SplineFontDB: 3.2
FontName: SovngardeBold
FullName: Sovngarde Bold
FamilyName: Sovngarde
Weight: Bold
Copyright: (c) All Rights Reserved. Designed and developed by K.
Version: 8.9
ItalicAngle: 0
UnderlinePosition: -100
UnderlineWidth: 50
Ascent: 800
Descent: 200
InvalidEm: 0
LayerCount: 2
Layer: 0 0 "Back" 1
Layer: 1 0 "Fore" 0
XUID: [1021 726 -1732314294 23016]
FSType: 0
OS2Version: 0
OS2_WeightWidthSlopeOnly: 0
OS2_UseTypoMetrics: 1
CreationTime: 1464055314
ModificationTime: 1599533961
PfmFamily: 17
TTFWeight: 700
TTFWidth: 5
LineGap: 90
VLineGap: 0
OS2TypoAscent: 0
OS2TypoAOffset: 1
OS2TypoDescent: 0
OS2TypoDOffset: 1
OS2TypoLinegap: 90
OS2WinAscent: 0
OS2WinAOffset: 1
OS2WinDescent: 0
OS2WinDOffset: 1
HheadAscent: 0
HheadAOffset: 1
HheadDescent: 0
HheadDOffset: 1
OS2Vendor: 'PfEd'
Lookup: 258 0 0 "Default" { "Default-1" [150,0,2] } ['kern' ('DFLT' <'dflt' > 'latn' <'dflt' > ) ]
MarkAttachClasses: 1
DEI: 91125
KernClass2: 11 25 "Default-1"
 1 T
 1 Y
 1 f
 1 A
 9 parenleft
 11 bracketleft
 1 V
 1 L
 1 O
 7 uni1E6A
 1 A
 1 G
 1 J
 1 o
 1 a
 1 b
 1 c
 1 d
 1 e
 1 f
 1 g
 1 h
 1 i
 1 j
 1 k
 1 l
 1 V
 1 T
 1 Y
 10 parenright
 12 bracketright
 1 O
 6 Yacute
 0 

StartChar: A
Encoding: 65 65 0
Width: 507
VWidth: 0
Flags: W
HStem: 0.566406 21G<27.6904 146.776 361.865 480.069> 467.565 20G<240.185 259.504>
LayerCount: 2
Fore
SplineSet
456.403320312 70.150390625 m 2
 464.041015625 54.5966796875 474.232421875 34.5126953125 480.069335938 29.5732421875 c 1
 480.069335938 0.56640625 l 1
 381.608398438 0.56640625 l 1
 361.865234375 0.56640625 l 1
 361.865234375 28.9013671875 l 1
 361.865234375 28.9013671875 373.770507812 44.390625 346.826171875 76.84375 c 2
 320.143554688 108.981445312 l 1
 293.881835938 101.6015625 265.803710938 103.064453125 265.803710938 103.064453125 c 1
 174.60546875 99.771484375 l 1
 144.7265625 49.4560546875 l 1
 139.697265625 30.609375 146.776367188 28.9013671875 146.776367188 28.9013671875 c 1
 146.776367188 0.56640625 l 1
 130.633789062 0.56640625 l 1
 27.6904296875 0.56640625 l 1
 27.6904296875 29.5732421875 l 1
 31.7890625 33.048828125 37.6875 42.748046875 43.4609375 53.603515625 c 2
 249.689453125 487.565429688 l 1
 442.103515625 95.47265625 l 1
 456.403320312 70.150390625 l 2
330.190429688 186.041015625 m 1
 335.654296875 189.578125 l 1
 327.334960938 193.360351562 333.465820312 196.653320312 333.465820312 196.653320312 c 1
 319.387695312 174.662109375 l 1
 306.288085938 194.458007812 l 1
 306.288085938 199.336914062 l 1
 296.23046875 200.435546875 l 1
 252.0078125 311.83203125 l 1
 238.1640625 281.211914062 l 2
 237.294921875 282.310546875 235.866210938 284.018554688 234.251953125 285.237304688 c 0
 231.70703125 287.189453125 228.8515625 298.534179688 225.684570312 286.154296875 c 1
 227.857421875 283.774414062 l 1
 227.173828125 281.211914062 l 1
 230.712890625 278.7109375 l 1
 233.196289062 270.35546875 l 1
 192.541015625 161.947265625 l 1
 236.436523438 167.986328125 245.578125 191.712890625 245.578125 191.712890625 c 1
 283.450195312 189.760742188 266.571289062 189.08984375 287.368164062 189.211914062 c 1
 301.756835938 177.623046875 l 1
 301.756835938 186.041015625 l 1
 330.190429688 186.041015625 l 1
EndSplineSet
Validated: 37
EndChar

StartChar: B
Encoding: 66 66 1
Width: 380
VWidth: 0
Flags: W
HStem: 1.36719 32.8799<15.4893 29.347> 202.1 90.1494<127.615 206.279> 416.568 70.8193<127.186 191.716>
VStem: 37.6826 89.9326<96.9648 201.978 292.249 292.985 302.12 339.949 378.741 413.521 416.157 416.568>
LayerCount: 2
Fore
SplineSet
177.798828125 292.249023438 m 2
 269.280273438 292.249023438 264.787109375 354 264.787109375 354 c 1
 264.787109375 423.280273438 191.715820312 416.568359375 191.715820312 416.568359375 c 1
 127.185546875 416.568359375 l 1
 127.185546875 383.09375 l 1
 126.756835938 378.741210938 l 1
 124.549804688 382.665039062 l 1
 122.342773438 377.025390625 l 1
 121.484375 368.413085938 l 1
 124.978515625 360.995117188 l 1
 127.185546875 356.213867188 l 1
 127.185546875 302.120117188 l 1
 123.69140625 301.690429688 l 1
 121.974609375 298.196289062 l 1
 127.615234375 292.985351562 l 1
 127.615234375 292.249023438 l 1
 177.798828125 292.249023438 l 2
285.215820312 253.2890625 m 1
 338.736328125 236.18359375 372.344726562 178.391601562 361.248046875 100.100585938 c 0
 345.247070312 -12.6435546875 235.985351562 1.18359375 235.985351562 1.18359375 c 1
 125.469726562 1.3671875 l 1
 15.4892578125 1.3671875 l 1
 15.4892578125 34.2470703125 l 1
 36.2724609375 39.826171875 37.6826171875 96.96484375 37.6826171875 96.96484375 c 1
 37.6826171875 333.391601562 l 1
 39.3984375 341.668945312 l 1
 42.2197265625 348.657226562 l 1
 65.5166015625 348.657226562 l 1
 69.0107421875 353.439453125 l 1
 54.2353515625 355.646484375 l 1
 40.318359375 359.140625 l 1
 40.318359375 368.704101562 l 1
 35.537109375 368.704101562 l 1
 35.537109375 413.520507812 l 1
 32.0419921875 416.157226562 l 1
 32.0419921875 429.215820312 l 1
 15.4892578125 446.198242188 l 1
 15.4892578125 483.463867188 l 1
 15.4892578125 487.387695312 l 1
 208.703125 487.387695312 l 1
 208.703125 487.387695312 363.079101562 486.5078125 340.333984375 342.86328125 c 0
 332.9765625 296.391601562 314.15234375 268.431640625 285.215820312 253.2890625 c 1
128.51171875 81.791015625 m 5
 287.759765625 56.3203125 276.490234375 141.583007812 276.490234375 141.583007812 c 1
 276.490234375 204.16015625 206.279296875 202.099609375 206.279296875 202.099609375 c 1
 132.94921875 202.099609375 l 1
 127.615234375 201.977539062 l 1
 127.615234375 95.3173828125 l 2
 127.615234375 89.2705078125 127.942382812 87.1064453125 128.51171875 81.791015625 c 5
EndSplineSet
Validated: 33
EndChar

StartChar: C
Encoding: 67 67 2
Width: 475
VWidth: 0
Flags: W
HStem: 0.34082 21G<247.284 315.78>
VStem: 27.4424 110.688<147.188 250.378>
LayerCount: 2
Fore
SplineSet
268.400390625 91.51953125 m 1
 268.400390625 91.51953125 374.879882812 102.080078125 423.462890625 184.838867188 c 1
 448.639648438 190.146484375 l 1
 447.759765625 120.31640625 l 1
 447.759765625 120.31640625 384.275390625 4.2392578125 247.284179688 0.3408203125 c 1
 247.284179688 0.3408203125 31.3408203125 -9.6826171875 27.4423828125 250.377929688 c 1
 27.4423828125 250.377929688 24.3486328125 494.969726562 254.15234375 486.493164062 c 1
 342.385742188 486.493164062 401.229492188 443.119140625 401.229492188 443.119140625 c 1
 432.970703125 399.744140625 447.697265625 416.017578125 447.697265625 416.017578125 c 1
 429.939453125 370.291992188 388.696289062 293.140625 388.696289062 293.140625 c 1
 367.170898438 299.251953125 l 1
 364.3203125 394.240234375 277.200195312 401.280273438 277.200195312 401.280273438 c 1
 277.200195312 401.280273438 138.129882812 430.3203125 138.129882812 233.84375 c 0
 138.129882812 69.51953125 268.400390625 91.51953125 268.400390625 91.51953125 c 1
EndSplineSet
Validated: 33
EndChar

StartChar: D
Encoding: 68 68 3
Width: 434
VWidth: 0
Flags: W
HStem: 0.0175781 86.9268<146.788 204.167> 398.933 87.1123<146.788 204.167>
VStem: 47.7471 99.041<98.9346 328.01 345.953 398.933> 320.072 99.7705<145.833 339.724>
LayerCount: 2
Fore
SplineSet
207.5703125 486.044921875 m 1
 207.5703125 486.044921875 419.780273438 482.951171875 419.842773438 243.0625 c 4
 419.842773438 3.1728515625 211.715820312 0.017578125 211.715820312 0.017578125 c 1
 133.381835938 0.017578125 l 1
 97.556640625 0.017578125 l 1
 23.80078125 0.017578125 l 1
 23.80078125 34.08984375 l 1
 49.703125 47.51953125 47.7470703125 98.9345703125 47.7470703125 98.9345703125 c 1
 47.7470703125 319.470703125 l 1
 49.603515625 328.009765625 l 1
 52.634765625 335.1875 l 1
 77.755859375 335.1875 l 1
 81.5302734375 340.13671875 l 1
 65.56640625 342.364257812 l 1
 50.53125 345.953125 l 1
 50.53125 355.853515625 l 1
 45.333984375 355.853515625 l 1
 45.333984375 402.259765625 l 1
 41.5595703125 404.982421875 l 1
 41.5595703125 418.470703125 l 1
 23.677734375 444.84375 l 1
 23.677734375 481.961914062 l 1
 23.677734375 486.044921875 l 1
 207.5703125 486.044921875 l 1
204.166992188 86.9443359375 m 1
 204.166992188 86.9443359375 320.072265625 78.3203125 320.072265625 241.88671875 c 0
 320.072265625 407.440429688 204.166992188 398.932617188 204.166992188 398.932617188 c 1
 174.5078125 398.932617188 l 1
 146.788085938 398.932617188 l 1
 146.788085938 86.9443359375 l 1
 174.5078125 86.9443359375 l 1
 204.166992188 86.9443359375 l 1
EndSplineSet
Validated: 33
EndChar

StartChar: E
Encoding: 69 69 4
Width: 351
VWidth: 0
Flags: W
HStem: 0.264648 75.6318<153.614 247.923 247.962 297.352> 216.628 66.165<179.777 199.66> 216.73 52.209<136.651 179.772> 415.934 70.1113<190.297 223.688>
VStem: 45.0967 91.4922<94.059 216.73 268.939 330.615 349.178 411.525> 306.738 22.0547<372.003 390.774>
LayerCount: 2
Fore
SplineSet
328.79296875 372.002929688 m 5xbc
 306.73828125 371.631835938 l 5
 293.9921875 415.93359375 223.688476562 415.93359375 223.688476562 415.93359375 c 5
 190.296875 415.93359375 l 5
 190.296875 415.93359375 143.333007812 419.08984375 137.393554688 390.379882812 c 5
 137.393554688 349.177734375 l 5
 131.330078125 345.217773438 l 5
 130.7109375 341.567382812 l 5
 123.966796875 341.567382812 l 5
 122.357421875 338.90625 l 5
 122.048828125 335.936523438 l 5
 119.51171875 337.607421875 l 5
 119.821289062 332.657226562 l 5
 124.276367188 332.657226562 l 5
 127.431640625 330.615234375 l 5
 128.978515625 331.729492188 l 5
 131.701171875 334.946289062 l 5
 136.52734375 337.236328125 l 5
 136.588867188 268.939453125 l 5xbc
 172.040039062 268.939453125 179.77734375 282.79296875 179.77734375 282.79296875 c 5
 278.51953125 277.200195312 289.61328125 287.185546875 289.61328125 287.185546875 c 5
 282.919921875 265.759765625 l 5
 275.443359375 239.28125 l 6
 264.984375 217.013671875 199.66015625 216.627929688 199.66015625 216.627929688 c 5xdc
 136.651367188 216.73046875 l 5
 136.836914062 142.907226562 l 6
 138.383789062 125.272460938 147.6328125 75.896484375 203.104492188 75.896484375 c 4
 292.599609375 75.896484375 301.602539062 103.740234375 301.602539062 103.740234375 c 5
 328.79296875 103.740234375 l 5
 328.79296875 0.326171875 l 5
 301.321289062 0.388671875 247.922851562 0.2646484375 247.922851562 0.2646484375 c 5
 132.33984375 0.4501953125 l 5
 132.216796875 0.326171875 l 5
 22.326171875 0.326171875 l 5
 22.326171875 52.6455078125 l 5
 22.326171875 52.6455078125 43.1162109375 52.2119140625 44.97265625 111.426757812 c 6
 45.0966796875 366.234375 l 5
 45.0966796875 388.6953125 l 6
 44.2919921875 399.399414062 42.25 412.083984375 37.30078125 422.169921875 c 4
 33.958984375 428.109375 29.1943359375 433.678710938 22.326171875 437.514648438 c 5
 22.326171875 437.885742188 l 5
 22.326171875 485.673828125 l 5
 22.326171875 486.044921875 l 5
 55.86328125 486.044921875 l 5
 159.626953125 486.044921875 l 5
 328.79296875 486.044921875 l 5
 328.79296875 372.002929688 l 5xbc
EndSplineSet
Validated: 33
EndChar

StartChar: F
Encoding: 70 70 5
Width: 333
VWidth: 0
Flags: W
HStem: -0.0449219 39.8271<150.533 169.417> 224.74 52.6143<144.11 180.61> 416.814 69.2305<173.315 229.519> 439.584 46.4609<19.8994 43.0313>
VStem: 52.0127 92.0977<99.1201 224.74 277.354 308.464 326.47 394.725> 291.875 21.7451<372.759 393.018>
LayerCount: 2
Fore
SplineSet
287.275390625 280.66796875 m 2xec
 275.184570312 229.920898438 209.484375 227.153320312 209.484375 227.091796875 c 2
 144.110351562 224.740234375 l 1
 144.110351562 99.1201171875 l 1
 144.110351562 99.1201171875 144.666992188 39.7822265625 169.416992188 39.7822265625 c 1
 169.416992188 -0.044921875 l 1
 25.9638671875 -0.044921875 l 1
 25.9638671875 40.21484375 l 1
 25.9638671875 40.21484375 50.7138671875 39.7822265625 52.0126953125 100.048828125 c 2
 52.0126953125 394.724609375 l 1
 52.0126953125 394.724609375 46.75390625 427.0234375 19.8994140625 439.583984375 c 1
 19.8994140625 486.044921875 l 1
 52.0126953125 486.044921875 l 1
 151.446289062 486.044921875 l 1
 313.620117188 486.044921875 l 1xdc
 313.620117188 372.758789062 l 1
 291.875 372.44921875 l 1
 279.685546875 416.814453125 229.518554688 416.814453125 229.518554688 416.814453125 c 1
 173.315429688 416.814453125 l 1
 173.315429688 416.814453125 144.9765625 417.803710938 145.286132812 382.040039062 c 2
 145.286132812 326.469726562 l 1
 138.293945312 322.6953125 l 1
 137.551757812 319.23046875 l 1
 129.817382812 319.23046875 l 1
 127.9609375 316.693359375 l 1
 127.58984375 313.84765625 l 1
 124.681640625 315.456054688 l 1
 125.052734375 310.69140625 l 1
 130.188476562 310.69140625 l 1
 134.209960938 308.463867188 l 1
 138.603515625 312.918945312 l 1
 144.110351562 315.146484375 l 1
 144.110351562 277.354492188 l 1
 171.7890625 278.080078125 180.616210938 292.5625 180.616210938 292.5625 c 1
 280.909179688 278.080078125 256.626953125 296.955078125 256.626953125 296.955078125 c 1
 289.921875 291.778320312 l 1
 287.275390625 280.66796875 l 2xec
EndSplineSet
Validated: 33
EndChar

StartChar: G
Encoding: 71 71 6
Width: 496
VWidth: 0
Flags: W
HStem: -0.0449219 99.2549<184.451 349.029> 186.116 41.7725<334.249 378.953> 395.715 90.4541<201.159 344.038>
VStem: 24.9971 101.544<157.984 321.412>
LayerCount: 2
Fore
SplineSet
509.602539062 249.951171875 m 1
 522.362304688 247.78515625 l 1
 505.594726562 199.419921875 l 2
 500.458984375 193.541992188 489.940429688 190.26171875 478.6171875 188.467773438 c 1
 466.576171875 183.040039062 462.838867188 148.090820312 462.838867188 148.090820312 c 1
 378.846679688 165.69140625 l 1
 381.215820312 176 377.696289062 186.42578125 362.9453125 186.42578125 c 1
 316.009765625 186.116210938 l 1
 334.249023438 227.888671875 l 1
 375.829101562 229.3125 402.634765625 249.146484375 402.634765625 249.146484375 c 1
 503.536132812 235.83984375 509.602539062 249.951171875 509.602539062 249.951171875 c 1
267.856445312 99.2099609375 m 0
 313.458984375 99.2099609375 363.616210938 110.879882812 378.72265625 165.752929688 c 1
 463.024414062 148.15234375 l 1
 435.776367188 22.8798828125 340.869140625 -0.044921875 260.741210938 -0.044921875 c 0
 130.494140625 -0.044921875 24.9970703125 108.916992188 24.9970703125 243.124023438 c 0
 24.9970703125 377.331054688 130.556640625 486.168945312 260.802734375 486.168945312 c 0
 346.747070312 486.168945312 436.65625 434.719726562 463.134765625 350.326171875 c 1
 389.4140625 332.725585938 l 1
 355.444335938 371.3359375 323.296875 395.71484375 267.856445312 395.71484375 c 0
 196.416015625 395.71484375 126.541015625 324.719726562 126.541015625 245.598632812 c 0
 126.541015625 161.040039062 165.515625 99.2099609375 267.856445312 99.2099609375 c 0
66.0205078125 344.041992188 m 1
 66.0205078125 344.041992188 72.0224609375 365.388671875 94.2353515625 369.596679688 c 1
 79.818359375 369.596679688 l 1
 71.0322265625 361.181640625 l 1
 64.783203125 361.80078125 l 1
 61.0087890625 354.684570312 l 1
 50.9853515625 354.06640625 l 1
 66.0205078125 344.041992188 l 1
EndSplineSet
Validated: 37
EndChar

StartChar: S
Encoding: 83 83 7
Width: 373
VWidth: 0
Flags: W
HStem: 368.964 84.9062<284.563 316.16>
LayerCount: 2
Fore
SplineSet
316.16015625 453.870117188 m 1
 316.16015625 368.963867188 l 1
 284.563476562 368.963867188 l 1
 284.563476562 368.963867188 176 442.639648438 133.313476562 372.256835938 c 1
 133.313476562 372.256835938 109.120117188 325.599609375 176.59765625 301.0390625 c 1
 176.59765625 301.0390625 174.500976562 301.671875 239.469726562 269.868164062 c 1
 239.469726562 269.868164062 332.639648438 233.200195312 346.045898438 168.193359375 c 1
 346.045898438 168.193359375 365.537109375 100.6875 314.861328125 44.814453125 c 1
 314.861328125 44.814453125 269.974609375 -4.06640625 171.96484375 0.2646484375 c 1
 171.96484375 0.2646484375 56.3681640625 3.234375 23.388671875 68.822265625 c 1
 23.388671875 163.319335938 l 1
 60.1083984375 163.319335938 l 1
 60.1083984375 163.319335938 75.28125 99.5263671875 164.2578125 92.41015625 c 1
 164.2578125 92.41015625 248.538085938 88 248.538085938 145.17578125 c 1
 248.538085938 145.17578125 256.080078125 178.639648438 149.255859375 209.3125 c 1
 149.255859375 209.3125 155.072265625 223.296875 178.4609375 234.991210938 c 1
 163.549804688 234.991210938 l 1
 154.454101562 226.576171875 l 1
 147.95703125 227.194335938 l 1
 144.05859375 220.079101562 l 1
 133.6640625 219.459960938 l 1
 133.6640625 219.459960938 34.0927734375 254.248046875 28.771484375 362.034179688 c 1
 28.771484375 362.034179688 25.51953125 434.719726562 120.669921875 476.702148438 c 1
 120.608398438 476.578125 208.993164062 509.0625 316.16015625 453.870117188 c 1
EndSplineSet
Validated: 33
EndChar

StartChar: T
Encoding: 84 84 8
Width: 445
VWidth: 0
Flags: W
HStem: -0.0449219 31.0273<272.555 287.536> 388.29 97.7549<18.2773 39.6514 379.584 426.941> 415.054 70.9912<42.9711 175.123 287.536 344.434>
VStem: 175.13 90.627<90.3203 308.464 326.47 392.807> 405.752 21.251<388.29 402.415>
LayerCount: 2
Fore
SplineSet
426.94140625 486.044921875 m 5xd8
 427.002929688 388.290039062 l 5
 405.751953125 388.290039062 l 5xd8
 399.51953125 415.360351562 344.43359375 415.053710938 344.43359375 415.053710938 c 5
 287.536132812 415.053710938 l 5
 287.536132812 415.053710938 266.684570312 413.599609375 266.684570312 397.879882812 c 6
 266.684570312 326.469726562 l 5
 260.682617188 322.6953125 l 5
 260.064453125 319.23046875 l 5
 253.443359375 319.23046875 l 5
 251.834960938 316.693359375 l 5
 251.525390625 313.84765625 l 5
 248.98828125 315.456054688 l 5
 249.297851562 310.69140625 l 5
 253.752929688 310.69140625 l 5
 257.217773438 308.463867188 l 5
 260.9921875 312.918945312 l 5
 265.756835938 315.146484375 l 5
 265.756835938 90.3203125 l 5
 265.756835938 90.3203125 266.189453125 30.982421875 287.536132812 30.982421875 c 5
 287.536132812 -0.044921875 l 5
 152.669921875 -0.044921875 l 5
 152.669921875 31.4150390625 l 5
 152.669921875 31.4150390625 174.016601562 30.982421875 175.129882812 91.248046875 c 6
 175.129882812 392.806640625 l 5
 175.129882812 392.806640625 175.120117188 414.9921875 147.458007812 414.9921875 c 5
 119.862304688 414.9921875 119.28515625 414.9921875 101.588867188 415.053710938 c 4xb8
 51.0361328125 415.177734375 39.6513671875 388.290039062 39.6513671875 388.290039062 c 5
 18.27734375 388.290039062 l 5
 18.27734375 486.044921875 l 5
 426.94140625 486.044921875 l 5xd8
EndSplineSet
Validated: 33
EndChar

StartChar: U
Encoding: 85 85 9
Width: 424
VWidth: 0
Flags: W
HStem: -0.0449219 83.8818<207.956 271.191> 460.374 25.6709<121.871 135.679>
VStem: 21.9941 95.7412<161.74 431.293> 307.732 94.2295<165.533 171.473 171.633 439.041>
LayerCount: 2
Fore
SplineSet
289.7890625 485.873046875 m 5
 420.337890625 486.044921875 l 5
 420.337890625 458.827148438 l 5
 420.337890625 458.827148438 401.837890625 450.96875 402.39453125 421.455078125 c 4
 402.951171875 391.940429688 401.961914062 171.47265625 401.961914062 171.47265625 c 5
 401.961914062 165.533203125 l 5
 397.444335938 157.1796875 l 5
 401.961914062 155.756835938 l 5
 401.961914062 155.756835938 389.62109375 -0.044921875 202.634765625 -0.044921875 c 4
 37.056640625 -0.044921875 21.994140625 161.573242188 21.994140625 161.573242188 c 5
 21.994140625 161.573242188 21.560546875 391.940429688 22.1181640625 421.455078125 c 4
 22.6748046875 450.96875 4.173828125 458.827148438 4.173828125 458.827148438 c 5
 4.173828125 486.044921875 l 5
 135.678710938 486.044921875 l 5
 135.678710938 460.374023438 l 5
 117.178710938 453.196289062 117.735351562 431.29296875 117.735351562 431.29296875 c 5
 117.735351562 201.399414062 l 5
 122.004882812 78.2685546875 207.956054688 83.8369140625 207.956054688 83.8369140625 c 5
 283.360351562 83.8369140625 302.349609375 142.866210938 306.743164062 177.88671875 c 4
 306.990234375 185.126953125 307.299804688 192.61328125 307.732421875 200.41015625 c 6
 307.423828125 211.23828125 l 5
 307.732421875 439.041015625 l 5
 307.732421875 439.041015625 308.290039062 452.083007812 289.7890625 459.322265625 c 5
 289.7890625 485.873046875 l 5
EndSplineSet
Validated: 33
EndChar

StartChar: V
Encoding: 86 86 10
Width: 455
VWidth: 0
Flags: W
HStem: -0.0595703 21G<185.849 282.699> 456.626 29.0469<289.912 305.183>
LayerCount: 2
Fore
SplineSet
289.912109375 485.672851562 m 1
 433.66796875 485.672851562 l 1
 433.66796875 455.759765625 l 1
 433.66796875 455.759765625 409.908203125 445.138671875 384.663085938 373.982421875 c 2
 276.938476562 -0.0595703125 l 1
 192.575195312 -0.0595703125 l 1
 67.7119140625 371.197265625 l 1
 67.7119140625 371.197265625 37.7646484375 444.994140625 22.171875 457.5546875 c 1
 22.171875 485.672851562 l 1
 177.196289062 485.672851562 l 1
 177.134765625 457.616210938 l 1
 177.134765625 457.616210938 137.224609375 451.586914062 176.020507812 344.419921875 c 2
 233.481445312 149.505859375 l 1
 236.314453125 149.505859375 l 1
 303.27734375 377.508789062 l 1
 303.27734375 377.508789062 325.922851562 442.766601562 289.7265625 456.625976562 c 1
 289.912109375 485.672851562 l 1
EndSplineSet
Validated: 33
EndChar

StartChar: W
Encoding: 87 87 11
Width: 586
VWidth: 0
Flags: W
HStem: -0.175781 20.2461<127.518 131.127 448.598 452.128> 457.272 28.999<22.626 41.2156 544.817 563.454>
VStem: 497.062 1.2998<269.042 282.159>
LayerCount: 2
Fore
SplineSet
270.420898438 114.4921875 m 5
 270.668945312 115.358398438 l 5
 270.544921875 115.358398438 l 5
 270.420898438 114.4921875 l 5
418.178710938 486.271484375 m 5
 563.454101562 486.271484375 l 5
 563.454101562 457.272460938 l 5
 534.9296875 455.044921875 521.193359375 373.6796875 521.193359375 373.6796875 c 5
 498.362304688 269.041992188 l 5
 497.0625 282.159179688 l 5
 490.1328125 280.1171875 l 5
 489.823242188 275.10546875 l 5
 482.150390625 274.239257812 l 5
 484.31640625 270.712890625 l 5
 484.31640625 270.712890625 478.12890625 269.3515625 475.901367188 265.82421875 c 4
 473.673828125 262.297851562 471.075195312 256.60546875 471.075195312 256.60546875 c 5
 477.509765625 259.265625 l 5
 480.48046875 255.739257812 l 5
 483.326171875 259.69921875 l 5
 487.34765625 256.666992188 l 5
 496.010742188 256.047851562 l 5
 456.149414062 94.8779296875 l 5
 456.2109375 94.8779296875 l 5
 456.2109375 94.8779296875 441.91796875 22.1123046875 452.250976562 19.513671875 c 5
 452.127929688 -0.1142578125 l 5
 449.71484375 -0.1142578125 l 5
 368.348632812 -0.1142578125 l 5
 368.0390625 -0.1142578125 l 5
 362.133789062 20.6279296875 l 5
 318.092773438 106.633789062 l 5
 318.7109375 119.008789062 l 5
 318.092773438 106.633789062 l 5
 309.327148438 124.825195312 l 5
 304.1640625 134.787109375 l 5
 293.19140625 161.083984375 l 5
 276.512695312 127.547851562 l 5
 275.583984375 129.032226562 l 5
 274.099609375 128.661132812 l 5
 275.76953125 137.818359375 l 5
 275.151367188 135.282226562 l 5
 274.532226562 132.869140625 l 5
 274.532226562 132.869140625 272.799804688 132.188476562 271.5625 132.188476562 c 4
 270.38671875 132.188476562 274.532226562 134.97265625 274.532226562 134.97265625 c 5
 272.3671875 134.97265625 l 5
 272.3671875 153.349609375 l 5
 270.510742188 155.329101562 l 5
 273.047851562 141.53125 271.376953125 132.25 269.954101562 127.609375 c 5
 264.384765625 126.310546875 l 5
 264.384765625 124.083007812 l 5
 258.81640625 121.85546875 l 5
 260.026367188 112.57421875 l 5
 270.049804688 115.172851562 l 5
 270.483398438 114.4921875 l 5
 217.8203125 19.576171875 l 5
 208.581054688 -0.17578125 l 5
 129.930664062 -0.17578125 l 5
 127.517578125 -0.17578125 l 5
 127.393554688 20.0703125 l 5
 136.1796875 24.4638671875 128.4453125 76.376953125 125.78515625 92.7119140625 c 6
 64.88671875 373.6796875 l 5
 64.88671875 373.6796875 56.099609375 449.166992188 22.6259765625 457.272460938 c 5
 22.6259765625 486.271484375 l 5
 176.762695312 486.271484375 l 5
 176.701171875 457.333984375 l 5
 176.701171875 457.333984375 158.6953125 451.0234375 168.78125 378.072265625 c 5
 167.729492188 378.567382812 165.192382812 379.43359375 162.098632812 379.557617188 c 6
 162.098632812 379.557617188 148.424804688 387.353515625 154.612304688 375.412109375 c 5
 157.767578125 374.669921875 l 5
 158.6953125 372.1328125 l 5
 163.02734375 372.0703125 l 5
 170.513671875 366.130859375 l 5
 171.875 357.654296875 173.607421875 347.430664062 175.7734375 337.283203125 c 6
 209.08984375 194.599609375 l 5
 211.502929688 194.599609375 l 5
 246.943359375 273.001953125 l 5
 294.96484375 382.032226562 l 5
 344.389648438 268.6015625 l 5
 379.830078125 196.359375 l 5
 382.243164062 196.359375 l 5
 410.306640625 337.283203125 l 6
 432.829101562 445.935546875 418.240234375 457.333984375 418.240234375 457.333984375 c 5
 418.178710938 486.271484375 l 5
EndSplineSet
Validated: 37
EndChar

StartChar: X
Encoding: 88 88 12
Width: 484
VWidth: 0
Flags: W
HStem: 0.0175781 27.2451<172.413 185.442> 458.429 27.2451<308.271 321.302>
LayerCount: 2
Fore
SplineSet
421.509765625 71.689453125 m 1
 421.509765625 71.689453125 443.1796875 42.05078125 468.548828125 26.953125 c 1
 468.548828125 -0.044921875 l 1
 304.311523438 -0.044921875 l 1
 304.373046875 26.7060546875 l 1
 304.373046875 26.7060546875 331.474609375 46.505859375 305.36328125 90.6845703125 c 2
 245.620117188 175.666992188 l 1
 244.1484375 175.666992188 l 1
 173.686523438 68.2861328125 l 1
 173.686523438 68.2861328125 162.053710938 34.75 185.62890625 27.2626953125 c 1
 185.442382812 0.017578125 l 1
 16.33203125 0.017578125 l 1
 16.33203125 27.7578125 l 1
 16.33203125 27.7578125 37.3076171875 32.02734375 59.58203125 70.2041015625 c 2
 180.251953125 245.310546875 l 1
 80.9423828125 387.725585938 l 1
 80.9423828125 387.725585938 48.7744140625 443.763671875 23.4677734375 458.73828125 c 1
 23.4677734375 485.736328125 l 1
 179.78515625 485.736328125 l 1
 179.72265625 458.985351562 l 1
 179.72265625 458.985351562 148.291015625 449.6015625 169.932617188 412.606445312 c 2
 240.236328125 310.024414062 l 1
 250.5078125 310.024414062 l 1
 320.02734375 417.405273438 l 1
 320.02734375 417.405273438 331.66015625 450.94140625 308.0859375 458.428710938 c 1
 308.271484375 485.673828125 l 1
 462.422851562 485.673828125 l 1
 462.422851562 457.995117188 l 1
 462.422851562 457.995117188 441.447265625 453.725585938 419.171875 415.548828125 c 2
 313.400390625 245.72265625 l 1
 421.509765625 71.689453125 l 1
EndSplineSet
Validated: 33
EndChar

StartChar: Y
Encoding: 89 89 13
Width: 445
VWidth: 0
Flags: W
HStem: -0.167969 31.3359<278.27 292.194> 458.813 27.2314<20.4873 32.8014 286.412 295.567>
VStem: 173.532 98.6768<81.2861 92.3623 109.316 192.496>
LayerCount: 2
Fore
SplineSet
286.412109375 486.044921875 m 1
 424.79296875 486.044921875 l 1
 424.79296875 458.008789062 l 1
 424.79296875 458.008789062 411.874023438 452.935546875 388.794921875 407.705078125 c 2
 272.208984375 192.49609375 l 1
 272.208984375 81.2861328125 l 1
 272.208984375 81.2861328125 272.208984375 36.921875 292.194335938 31.16796875 c 1
 292.194335938 -0.16796875 l 1
 146.4921875 -0.16796875 l 1
 146.4921875 28.5068359375 l 1
 146.4921875 28.5068359375 171.551757812 35.1279296875 173.779296875 92.3623046875 c 1
 182.44140625 99.044921875 l 1
 222.3515625 95.951171875 l 1
 224.145507812 100.838867188 l 1
 208.615234375 102.200195312 l 1
 204.16015625 106.655273438 l 1
 178.419921875 106.655273438 l 1
 173.532226562 109.31640625 l 1
 173.532226562 193.748046875 l 1
 57.32421875 405.91015625 l 1
 57.32421875 405.91015625 27.2802734375 458.813476562 20.4873046875 458.813476562 c 1
 20.4873046875 486.044921875 l 1
 173.030273438 486.044921875 l 1
 172.967773438 459.184570312 l 1
 172.967773438 459.184570312 144.876953125 435.671875 171.916015625 383.326171875 c 2
 219.993164062 276.178710938 l 1
 226.235351562 276.178710938 l 1
 282.76171875 383.532226562 l 1
 282.76171875 383.532226562 310.60546875 449.65625 286.2265625 458.50390625 c 1
 286.412109375 486.044921875 l 1
EndSplineSet
Validated: 33
EndChar

StartChar: H
Encoding: 72 72 14
Width: 447
VWidth: 0
Flags: W
HStem: 0.0175781 31.6455<28.167 43.8106 279.242 294.886> 195.714 85.9102<167.983 279.304> 466.045 20G<28.167 167.86 279.18 418.873>
VStem: 49.9473 94.4619<93.6611 195.563 282.113 413.253> 300.96 94.4629<93.6611 195.898 281.563 331.371 350.182 413.253>
LayerCount: 2
Fore
SplineSet
418.873046875 457.24609375 m 1
 395.793945312 444.685546875 395.422851562 413.252929688 395.422851562 413.252929688 c 1
 395.422851562 94.6513671875 l 2
 396.59765625 31.6630859375 418.873046875 32.095703125 418.873046875 32.095703125 c 1
 418.873046875 0.017578125 l 1
 279.2421875 0.017578125 l 1
 279.2421875 31.6630859375 l 1
 301.516601562 31.6630859375 302.01171875 93.6611328125 302.01171875 93.6611328125 c 1
 302.01171875 157.3515625 l 2
 300.09375 194.723632812 279.303710938 195.899414062 279.303710938 195.899414062 c 1
 168.045898438 195.713867188 l 2
 150.659179688 195.713867188 145.708984375 172.44921875 144.471679688 153.638671875 c 2
 144.471679688 131.549804688 l 2
 144.533203125 130.745117188 144.594726562 130.25 144.594726562 130.25 c 1
 144.471679688 130.62109375 l 1
 144.471679688 94.6513671875 l 2
 145.646484375 31.6630859375 167.921875 32.095703125 167.921875 32.095703125 c 1
 167.921875 0.017578125 l 1
 28.1669921875 0.017578125 l 1
 28.1669921875 31.6630859375 l 1
 50.44140625 31.6630859375 50.9365234375 93.6611328125 50.9365234375 93.6611328125 c 1
 49.947265625 418.57421875 l 2
 49.947265625 447.655273438 28.1669921875 454.89453125 28.1669921875 454.89453125 c 1
 28.1669921875 486.044921875 l 1
 167.860351562 486.044921875 l 1
 167.860351562 457.18359375 l 1
 144.71875 444.623046875 144.409179688 413.252929688 144.409179688 413.252929688 c 1
 144.409179688 348.881835938 l 1
 144.533203125 349.25390625 l 1
 144.965820312 283.604492188 167.983398438 281.624023438 167.983398438 281.624023438 c 1
 279.2421875 281.5625 l 2
 298.361328125 282.73828125 301.455078125 316.583007812 301.950195312 327.411132812 c 2
 301.950195312 338.301757812 l 1
 306.900390625 336.01171875 l 1
 310.860351562 331.37109375 l 1
 314.510742188 333.661132812 l 1
 319.151367188 333.661132812 l 1
 319.4609375 338.611328125 l 1
 316.799804688 336.940429688 l 1
 316.490234375 339.91015625 l 1
 314.8203125 342.571289062 l 1
 307.889648438 342.571289062 l 1
 307.208984375 346.221679688 l 1
 300.959960938 350.181640625 l 1
 300.959960938 418.635742188 l 2
 300.959960938 447.716796875 279.1796875 454.95703125 279.1796875 454.95703125 c 1
 279.1796875 486.107421875 l 1
 418.873046875 486.107421875 l 1
 418.873046875 457.24609375 l 1
EndSplineSet
Validated: 33
EndChar

StartChar: I
Encoding: 73 73 15
Width: 174
VWidth: 0
Flags: W
HStem: -0.0449219 31.6455<136.953 152.598> 466.045 20G<21.6426 152.598>
VStem: 21.6426 130.955<-0.0449219 31.6006 454.895 486.045> 45.0928 84.7344<93.5996 322.51 341.319 413.253>
LayerCount: 2
Fore
SplineSet
21.642578125 486.044921875 m 5xe0
 152.59765625 486.044921875 l 5
 152.59765625 454.89453125 l 5xe0
 152.59765625 454.89453125 130.817382812 447.655273438 130.817382812 418.57421875 c 6
 130.817382812 341.319335938 l 5
 124.568359375 337.359375 l 5
 123.887695312 333.708984375 l 5
 116.95703125 333.708984375 l 5
 115.287109375 331.048828125 l 5
 114.977539062 328.078125 l 5
 112.31640625 329.749023438 l 5
 112.625976562 324.798828125 l 5
 117.266601562 324.798828125 l 5
 120.91796875 322.509765625 l 5
 124.877929688 327.150390625 l 5
 129.827148438 329.439453125 l 5
 129.827148438 93.599609375 l 5xd0
 129.827148438 93.599609375 130.322265625 31.6005859375 152.59765625 31.6005859375 c 5
 152.59765625 -0.044921875 l 5
 21.642578125 -0.044921875 l 5
 21.642578125 32.0341796875 l 5xe0
 21.642578125 32.0341796875 43.91796875 31.6005859375 45.0927734375 94.58984375 c 6
 45.0927734375 413.252929688 l 5xd0
 45.0927734375 413.252929688 44.7841796875 444.623046875 21.642578125 457.18359375 c 5
 21.642578125 486.044921875 l 5xe0
152.53515625 31.6005859375 m 1028
EndSplineSet
Validated: 33
EndChar

StartChar: J
Encoding: 74 74 16
Width: 301
VWidth: 0
Flags: W
HStem: -20.8418 20G<28.2115 47.5439> 459.611 26.4961<274.962 286.63>
VStem: 178.904 84.4258<-34.744 421.496 457.198 459.549 461.22 463.323>
LayerCount: 2
Fore
SplineSet
167.643554688 60.4140625 m 1024
156.196289062 486.044921875 m 1
 156.196289062 486.107421875 l 1
 286.780273438 486.107421875 l 1
 286.780273438 465.921875 l 1
 283.5625 464.127929688 280.83984375 461.961914062 278.426757812 459.611328125 c 2
 274.961914062 459.611328125 l 1
 272.858398438 464.994140625 l 1
 264.072265625 463.323242188 l 1
 264.072265625 461.219726562 l 1
 259.678710938 459.548828125 l 1
 259.678710938 457.198242188 l 1
 261.96875 454.166015625 l 1
 268.46484375 452.309570312 l 1
 269.764648438 456.083984375 l 1
 273.10546875 455.403320312 l 1
 276.323242188 457.4453125 l 1
 263.577148438 442.78125 263.330078125 421.49609375 263.330078125 421.49609375 c 1
 263.330078125 -15.025390625 l 1
 263.330078125 -107.360351562 195.08203125 -132.147460938 195.08203125 -132.147460938 c 1
 195.08203125 -132.147460938 32.2958984375 -189.200195312 15.0595703125 -58.3173828125 c 1
 35.23046875 -0.841796875 l 1
 47.5439453125 -0.841796875 l 1
 47.5439453125 -0.841796875 64.9306640625 -28.12890625 89.43359375 -42.7314453125 c 2
 89.185546875 -42.607421875 l 1
 85.720703125 -45.88671875 l 1
 87.453125 -48.052734375 l 1
 89.185546875 -46.3818359375 l 1
 89.185546875 -48.052734375 l 1
 87.453125 -49.7236328125 l 1
 89.185546875 -51.0849609375 l 1
 90.0517578125 -52.5693359375 l 1
 93.0224609375 -53.5595703125 l 1
 91.3515625 -51.703125 l 1
 91.8466796875 -49.7236328125 l 1
 89.37109375 -49.5380859375 l 1
 91.3515625 -48.052734375 l 1
 90.6708984375 -46.1962890625 l 1
 94.81640625 -45.763671875 l 1
 94.3837890625 -45.515625 l 2
 104.53125 -50.58984375 115.66796875 -53.25 127.176757812 -50.8994140625 c 1
 127.176757812 -50.8994140625 178.904296875 -47.1865234375 178.904296875 31.208984375 c 2
 178.904296875 327.70703125 l 1
 177.915039062 426.817382812 l 2
 177.915039062 456.208007812 156.196289062 464.560546875 156.196289062 464.560546875 c 1
 156.196289062 486.044921875 l 1
EndSplineSet
Validated: 33
EndChar

StartChar: K
Encoding: 75 75 17
Width: 471
VWidth: 0
Flags: W
HStem: 0.0175781 20.9375G<18.4082 151.185 302.984 453.272> 461.948 24.0967<18.4082 33.7131 435.321 449.25>
VStem: 39.3213 94.9717<73.4602 165.595 176.794 432.001>
LayerCount: 2
Fore
SplineSet
18.408203125 461.948242188 m 1
 18.408203125 486.044921875 l 1
 155.20703125 486.044921875 l 1
 155.20703125 460.33984375 l 1
 155.20703125 460.33984375 133.612304688 452.234375 134.29296875 421.791992188 c 0
 134.973632812 391.348632812 134.29296875 73.2294921875 134.29296875 73.2294921875 c 1
 134.29296875 73.2294921875 134.168945312 42.2919921875 151.184570312 30.6591796875 c 1
 151.184570312 -0.044921875 l 1
 18.408203125 -0.044921875 l 1
 18.408203125 31.73828125 l 1
 18.408203125 31.73828125 39.3212890625 40.48046875 39.3212890625 75.298828125 c 2
 39.3212890625 165.594726562 l 1
 54.171875 163.243164062 l 1
 63.9482421875 157.1796875 l 1
 68.8359375 158.169921875 l 1
 70.6923828125 152.786132812 l 1
 80.1591796875 155.508789062 l 1
 83.5625 159.90234375 l 1
 83.5625 163.305664062 l 1
 77.126953125 165.65625 l 1
 77.126953125 168.688476562 l 1
 64.3193359375 171.040039062 l 1
 61.287109375 163.243164062 l 1
 54.171875 163.243164062 l 1
 39.01171875 176.793945312 l 1
 39.3212890625 432.000976562 l 1
 39.3212890625 432.000976562 40.001953125 454.5234375 18.408203125 461.948242188 c 1
384.900390625 103.946289062 m 2
 429.883789062 35.7607421875 453.272460938 31.4775390625 453.272460938 31.5390625 c 2
 453.272460938 0.017578125 l 1
 302.984375 0.017578125 l 1
 302.984375 28.47265625 l 1
 315.919921875 38.7197265625 300.26171875 67.1923828125 300.26171875 67.1923828125 c 1
 247.173828125 125.651367188 l 1
 247.173828125 134.189453125 l 1
 275.51171875 134.189453125 l 1
 280.895507812 137.778320312 l 1
 270.5625 142.233398438 l 1
 268.334960938 144.02734375 l 1
 264.74609375 140.439453125 l 1
 264.74609375 140.439453125 253.051757812 142.666992188 251.690429688 142.666992188 c 0
 250.329101562 142.666992188 251.690429688 147.616210938 251.690429688 147.616210938 c 1
 235.912109375 149.411132812 l 1
 156.203125 254.694335938 l 1
 301.217773438 416.841796875 l 2
 325.658203125 445.551757812 301.217773438 459.473632812 301.217773438 459.473632812 c 1
 301.217773438 486.044921875 l 1
 449.25 486.044921875 l 1
 449.68359375 459.473632812 l 1
 430.564453125 454.028320312 384.611328125 396.526367188 384.611328125 396.526367188 c 1
 266.080078125 254.694335938 l 1
 303.452148438 197.76953125 345.217773438 174.030273438 345.217773438 174.030273438 c 1
 384.900390625 103.946289062 l 2
289.248046875 133.942382812 m 1
 293.022460938 135.736328125 l 1
 290.794921875 137.53125 l 1
 289.248046875 141.986328125 l 1
 283.618164062 137.53125 l 1
 289.248046875 133.942382812 l 1
EndSplineSet
Validated: 37
EndChar

StartChar: L
Encoding: 76 76 18
Width: 336
VWidth: 0
Flags: W
HStem: -0.0449219 71.2324<140.382 143.251 143.375 262.546 262.57 296.332> 466.045 20G<12.2959 143.251>
VStem: 35.7461 84.7344<153.866 322.51 341.319 413.253>
LayerCount: 2
Fore
SplineSet
296.364257812 91.9013671875 m 1
 323.864257812 91.9013671875 l 1
 323.864257812 -0.044921875 l 1
 295.525390625 0.017578125 262.545898438 -0.1064453125 262.545898438 -0.1064453125 c 1
 143.375 0.0791015625 l 1
 143.250976562 -0.044921875 l 1
 12.2958984375 -0.044921875 l 1
 14.0556640625 55.7939453125 l 1
 14.0556640625 55.7939453125 35.74609375 73.919921875 35.74609375 156.189453125 c 2
 35.74609375 413.252929688 l 1
 35.74609375 413.252929688 35.4375 444.623046875 12.2958984375 457.18359375 c 1
 12.2958984375 486.044921875 l 1
 143.250976562 486.044921875 l 1
 143.250976562 454.89453125 l 1
 143.250976562 454.89453125 121.470703125 447.655273438 121.470703125 418.57421875 c 2
 121.470703125 341.319335938 l 1
 115.221679688 337.359375 l 1
 114.541015625 333.708984375 l 1
 107.611328125 333.708984375 l 1
 105.940429688 331.048828125 l 1
 105.630859375 328.078125 l 1
 102.970703125 329.749023438 l 1
 103.279296875 324.798828125 l 1
 107.919921875 324.798828125 l 1
 111.571289062 322.509765625 l 1
 115.53125 327.150390625 l 1
 120.48046875 329.439453125 l 1
 120.48046875 153.866210938 l 1
 120.48046875 153.866210938 118.389648438 71.1875 189.162109375 71.1875 c 0
 252.559570312 71.1875 296.364257812 91.9013671875 296.364257812 91.9013671875 c 1
EndSplineSet
Validated: 33
EndChar

StartChar: M
Encoding: 77 77 19
Width: 591
VWidth: 0
Flags: W
HStem: 0.0175781 23.6494<148.5 161.951 558.921 568.807> 444.238 41.8066<29.3594 44.265 532.177 545.851 548.388 568.683>
VStem: 46.4375 93.3623<80.3447 101.011 119.512 325.81> 444.568 105.242<74.6523 272.872 299.293 325.377>
LayerCount: 2
Fore
SplineSet
532.176757812 444.23828125 m 1
 531.805664062 440.216796875 l 1
 524.1328125 435.823242188 l 1
 537.374023438 434.090820312 l 1
 539.911132812 437.618164062 l 1
 549.873046875 436.751953125 l 1
 554.142578125 440.711914062 l 1
 552.41015625 432.358398438 l 1
 552.41015625 299.29296875 l 1
 540.03515625 298.426757812 l 1
 536.198242188 295.333007812 l 1
 533.228515625 299.29296875 l 1
 530.258789062 295.765625 l 1
 523.823242188 298.426757812 l 1
 527.66015625 290.073242188 l 1
 531.928710938 286.546875 l 1
 537.064453125 284.319335938 l 1
 534.899414062 280.791992188 l 1
 542.571289062 279.92578125 l 1
 543.004882812 273.305664062 l 1
 549.810546875 272.872070312 l 1
 549.810546875 74.65234375 l 1
 549.810546875 74.65234375 552.41015625 31.154296875 568.806640625 23.6669921875 c 1
 568.806640625 0.017578125 l 1
 426.19140625 0.017578125 l 1
 426.19140625 23.54296875 l 1
 426.19140625 23.54296875 445.434570312 29.05078125 444.568359375 75.951171875 c 2
 444.568359375 325.376953125 l 1
 440.732421875 325.376953125 l 1
 295.7109375 150.408203125 l 1
 144.501953125 325.809570312 l 1
 139.799804688 325.809570312 l 1
 139.799804688 119.51171875 l 1
 133.364257812 112.024414062 l 1
 129.095703125 111.158203125 l 1
 128.662109375 108.498046875 l 1
 125.692382812 107.198242188 l 1
 125.692382812 107.198242188 122.2890625 98.783203125 129.095703125 101.010742188 c 2
 129.095703125 101.010742188 132.560546875 104.538085938 133.797851562 104.538085938 c 0
 135.03515625 104.538085938 140.604492188 107.631835938 140.604492188 107.631835938 c 1
 140.604492188 80.3447265625 l 1
 140.604492188 80.3447265625 139.3046875 26.8232421875 161.951171875 22.86328125 c 1
 161.951171875 0.017578125 l 1
 22.5537109375 0.017578125 l 1
 22.5537109375 22.86328125 l 1
 22.5537109375 22.86328125 46.4375 31.4013671875 46.4375 77.68359375 c 0
 46.4375 123.966796875 46.4375 410.331054688 46.4375 410.331054688 c 1
 46.4375 410.331054688 44.705078125 439.845703125 29.359375 444.23828125 c 1
 29.359375 486.044921875 l 1
 157.791992188 486.044921875 l 1
 298.234375 308.504882812 l 1
 445.138671875 486.044921875 l 1
 568.682617188 486.044921875 l 1
 568.682617188 448.198242188 l 1
 548.387695312 447.765625 l 1
 545.850585938 444.23828125 l 1
 532.176757812 444.23828125 l 1
371.322265625 278.118164062 m 1
 375.158203125 284.3671875 l 1
 370.888671875 286.34765625 l 1
 369.58984375 291.420898438 l 1
 357.647460938 294.514648438 l 1
 354.677734375 285.233398438 l 1
 360.24609375 283.005859375 l 1
 360.24609375 280.778320312 l 1
 371.322265625 278.118164062 l 1
EndSplineSet
Validated: 33
EndChar

StartChar: N
Encoding: 78 78 20
Width: 508
VWidth: 0
Flags: W
HStem: -0.167969 31.6455<150.978 166.622 468.768 484.412> 464.609 21.3125<154.392 157.238>
VStem: 47.6777 96.1748<93.4756 234.51 253.319 321.554> 368.418 93.2246<160.789 410.84>
LayerCount: 2
Fore
SplineSet
166.560546875 31.6005859375 m 1024
462.5703125 418.57421875 m 2
 461.642578125 329.439453125 l 1
 461.642578125 93.599609375 l 1
 461.642578125 93.599609375 462.137695312 31.6005859375 484.412109375 31.6005859375 c 1
 484.412109375 -0.044921875 l 1
 367.798828125 -0.044921875 l 1
 144.842773438 321.553710938 l 1
 144.842773438 253.319335938 l 1
 138.592773438 249.359375 l 1
 137.912109375 245.708984375 l 1
 130.982421875 245.708984375 l 1
 129.311523438 243.048828125 l 1
 129.002929688 240.078125 l 1
 126.341796875 241.749023438 l 1
 126.651367188 236.798828125 l 1
 131.291992188 236.798828125 l 1
 134.942382812 234.509765625 l 1
 138.90234375 239.150390625 l 1
 143.852539062 241.439453125 l 1
 143.852539062 93.4755859375 l 1
 143.852539062 93.4755859375 144.34765625 31.4775390625 166.622070312 31.4775390625 c 1
 166.622070312 -0.16796875 l 1
 24.2275390625 -0.16796875 l 1
 24.2275390625 31.91015625 l 1
 24.2275390625 31.91015625 46.5029296875 31.4775390625 47.677734375 94.4658203125 c 2
 47.677734375 413.12890625 l 1
 47.677734375 413.12890625 47.369140625 444.5 24.2275390625 457.060546875 c 1
 24.2275390625 485.921875 l 1
 142.079101562 485.921875 l 1
 163.858398438 485.921875 l 1
 164.477539062 484.807617188 l 1
 157.23828125 464.794921875 l 1
 154.391601562 464.609375 l 1
 154.14453125 459.59765625 l 1
 143.130859375 452.666992188 l 1
 139.8515625 456.317382812 l 1
 127.166992188 447.284179688 l 1
 151.112304688 437.260742188 l 1
 145.481445312 443.509765625 l 1
 166.209960938 462.196289062 l 1
 166.51953125 463.495117188 l 1
 368.41796875 160.7890625 l 1
 370.458984375 410.83984375 l 1
 370.458984375 410.83984375 368.8984375 441.467773438 347.180664062 457.18359375 c 1
 347.180664062 486.044921875 l 1
 484.350585938 486.044921875 l 1
 484.350585938 454.89453125 l 1
 484.350585938 454.89453125 462.5703125 447.655273438 462.5703125 418.57421875 c 2
EndSplineSet
Validated: 33
EndChar

StartChar: O
Encoding: 79 79 21
Width: 523
VWidth: 0
Flags: W
HStem: 0.369141 95.8545<194.895 328.752> 392.385 93.4834<195.659 327.125>
VStem: 22.1309 113.131<157.971 307.774> 384.86 116.609<157.196 327.289>
LayerCount: 2
Fore
SplineSet
261.799804688 485.868164062 m 0
 394.142578125 485.868164062 501.469726562 374.141601562 501.469726562 241.798828125 c 0
 501.469726562 109.456054688 394.204101562 0.369140625 261.799804688 0.369140625 c 0
 129.396484375 0.369140625 22.130859375 109.456054688 22.130859375 241.798828125 c 0
 22.130859375 374.141601562 129.45703125 485.868164062 261.799804688 485.868164062 c 0
263.142578125 96.2236328125 m 0
 327.822265625 96.2236328125 384.860351562 148.719726562 384.860351562 243.32421875 c 0
 384.860351562 319.440429688 338.3828125 392.384765625 261.677734375 392.384765625 c 0
 201.102539062 392.384765625 142.94921875 336.16015625 142.94921875 299.336914062 c 1
 141.485351562 300.740234375 139.471679688 302.448242188 137.396484375 303.607421875 c 2
 137.396484375 303.607421875 126.231445312 324.4140625 124.888671875 302.631835938 c 1
 128.732421875 299.153320312 l 1
 128.061523438 294.8828125 l 1
 134.1015625 291.404296875 l 1
 138.677734375 280.360351562 l 1
 136.420898438 268.03515625 135.26171875 255.161132812 135.26171875 241.73828125 c 0
 135.26171875 139.919921875 202.862304688 96.2236328125 263.142578125 96.2236328125 c 0
EndSplineSet
Validated: 1
EndChar

StartChar: P
Encoding: 80 80 22
Width: 415
VWidth: 0
Flags: W
HStem: -0.106445 21G<26.4648 162.445> 405.614 80.4307<141.593 205.455>
VStem: 49.1104 92.4824<97.6973 272.652 281.934 337.689 366.352 367.885 369.617 405.614>
LayerCount: 2
Fore
SplineSet
224.987304688 199.330078125 m 1
 187.071289062 220.635742188 l 1
 187.071289062 271.723632812 l 1
 190.233398438 271.723632812 l 1
 305.926757812 257.83984375 294.81640625 340.9140625 294.81640625 340.9140625 c 5
 294.81640625 409.200195312 214.998046875 405.614257812 214.998046875 405.614257812 c 1
 141.592773438 405.614257812 l 1
 141.592773438 374.072265625 l 1
 141.16015625 369.6171875 l 1
 138.932617188 373.638671875 l 1
 136.705078125 367.884765625 l 1
 135.838867188 350.126953125 l 1
 139.365234375 342.578125 l 1
 141.592773438 337.689453125 l 1
 141.592773438 281.93359375 l 1
 138.06640625 281.5 l 1
 136.271484375 277.973632812 l 1
 142.026367188 272.65234375 l 1
 142.026367188 90.58203125 l 1
 138.932617188 42.2568359375 162.4453125 34.7080078125 162.4453125 34.7080078125 c 1
 162.4453125 -0.1064453125 l 1
 26.46484375 -0.1064453125 l 1
 26.46484375 33.841796875 l 1
 49.8466796875 48.400390625 49.1103515625 97.697265625 49.1103515625 97.697265625 c 1
 49.1103515625 340.240234375 l 1
 50.9052734375 348.655273438 l 1
 53.8134765625 355.770507812 l 1
 77.51171875 355.770507812 l 1
 81.0380859375 360.659179688 l 1
 65.9404296875 362.88671875 l 1
 51.708984375 366.3515625 l 1
 51.708984375 376.127929688 l 1
 46.8212890625 376.127929688 l 1
 46.8212890625 421.791992188 l 1
 43.294921875 424.452148438 l 1
 43.294921875 437.754882812 l 1
 26.46484375 455.080078125 l 1
 26.46484375 482.0234375 l 1
 26.46484375 486.044921875 l 1
 205.455078125 486.044921875 l 1
 205.455078125 486.044921875 397.446289062 495.440429688 388.598632812 330.911132812 c 0
 380.799804688 185.87890625 224.987304688 199.330078125 224.987304688 199.330078125 c 1
EndSplineSet
Validated: 33
EndChar

StartChar: Q
Encoding: 81 81 23
Width: 501
VWidth: 0
Flags: W
HStem: 6.6416 92.1426<189.711 263.037> 385.156 101.152<189.565 312.802>
VStem: 28.3848 105.532<161.637 323.446> 364.556 108.659<138.713 329.233>
LayerCount: 2
Fore
SplineSet
385.505859375 57.361328125 m 1
 432.080078125 -8.7998046875 459.936523438 -24.66796875 459.936523438 -24.66796875 c 2
 461.499023438 -31.2421875 l 1
 413.670898438 -43.2607421875 l 2
 383.4609375 -43.6640625 327.125 12.5302734375 327.125 12.5302734375 c 1
 324.998046875 15.0126953125 l 1
 298.3203125 7.0400390625 280.133789062 6.6416015625 250.799804688 6.6416015625 c 0
 127.958984375 6.6416015625 28.384765625 113.421875 28.384765625 245.154296875 c 0
 28.384765625 376.887695312 127.958984375 486.30859375 250.799804688 486.30859375 c 0
 373.641601562 486.30859375 473.21484375 376.887695312 473.21484375 245.154296875 c 0
 473.21484375 163.59375 443.798828125 100.356445312 385.505859375 57.361328125 c 1
67.2275390625 344.290039062 m 1
 67.2275390625 344.290039062 72.8564453125 365.216796875 93.87109375 369.375 c 1
 80.236328125 369.375 l 1
 71.98046875 361.125976562 l 1
 66.0380859375 361.728515625 l 1
 62.47265625 354.75390625 l 1
 53.0283203125 354.149414062 l 1
 67.2275390625 344.290039062 l 1
252.05078125 98.7841796875 m 0
 257.83984375 98.7841796875 263.509765625 100.731445312 263.509765625 100.731445312 c 1
 220.903320312 153.895507812 l 1
 304.745117188 148.365234375 l 1
 321.200195312 119.6796875 341.440429688 136.400390625 341.440429688 136.400390625 c 2
 345.192382812 140.4765625 l 1
 363.115234375 158.400390625 364.555664062 200.639648438 364.555664062 246.697265625 c 0
 364.555664062 320.3203125 322.959960938 385.15625 250.737304688 385.15625 c 0
 178.639648438 385.15625 133.916992188 313.280273438 133.916992188 245.087890625 c 0
 133.916992188 163.6796875 183.919921875 98.7841796875 252.05078125 98.7841796875 c 0
EndSplineSet
Validated: 33
EndChar

StartChar: R
Encoding: 82 82 24
Width: 435
VWidth: 0
Flags: W
HStem: -0.0449219 33.8867<18.1084 34.308> 405.924 80.1836<132.557 205.28>
VStem: 40.5693 91.9873<90.0869 265.337 274.557 329.694 342.007 349.46 367.094 405.924> 279.324 89.7666<333.187 391.285>
LayerCount: 2
Fore
SplineSet
323.702148438 171.967773438 m 1
 381.48046875 31.6796875 417.552734375 31.6357421875 417.552734375 31.6357421875 c 1
 417.552734375 -0.044921875 l 1
 339.672851562 -0.044921875 l 1
 300.444335938 2.4306640625 241.016601562 92.224609375 241.016601562 92.224609375 c 1
 172.4453125 185.28515625 l 1
 172.4453125 273.270507812 l 1
 201.760742188 273.270507812 l 1
 263.559570312 273.270507812 279.32421875 333.186523438 279.32421875 333.186523438 c 1
 279.32421875 351.274414062 l 1
 279.32421875 410.080078125 205.280273438 405.923828125 205.280273438 405.923828125 c 1
 132.556640625 405.923828125 l 1
 132.556640625 365.829101562 l 1
 132.124023438 361.435546875 l 1
 129.896484375 365.395507812 l 1
 127.668945312 359.641601562 l 1
 126.802734375 342.006835938 l 1
 130.329101562 334.520507812 l 1
 132.556640625 329.694335938 l 1
 132.556640625 274.556640625 l 1
 129.030273438 274.123046875 l 1
 127.297851562 270.596679688 l 1
 133.051757812 265.336914062 l 1
 133.051757812 88.4501953125 l 2
 133.051757812 28.6787109375 153.346679688 32.9482421875 153.346679688 32.9482421875 c 1
 153.346679688 -0.044921875 l 1
 18.1083984375 -0.044921875 l 1
 18.1083984375 33.841796875 l 1
 39.7646484375 33.841796875 40.5693359375 90.0869140625 40.5693359375 90.0869140625 c 1
 40.5693359375 341.106445312 l 1
 42.3017578125 349.459960938 l 1
 45.1484375 356.513671875 l 1
 68.72265625 356.513671875 l 1
 72.2490234375 361.33984375 l 1
 57.275390625 363.567382812 l 1
 43.16796875 367.09375 l 1
 43.16796875 376.80859375 l 1
 38.341796875 376.80859375 l 1
 38.341796875 422.163085938 l 1
 34.8154296875 424.823242188 l 1
 34.8154296875 438.064453125 l 1
 18.046875 455.265625 l 1
 18.046875 482.147460938 l 1
 18.046875 486.107421875 l 1
 231 486.107421875 l 1
 231 486.107421875 369.090820312 486.911132812 369.090820312 344.220703125 c 0
 369.090820312 220 259.33203125 207.22265625 259.33203125 207.22265625 c 1
 275.879882812 168.959960938 323.702148438 171.967773438 323.702148438 171.967773438 c 1
EndSplineSet
Validated: 33
EndChar

StartChar: Z
Encoding: 90 90 25
Width: 450
VWidth: 0
Flags: W
HStem: 0.0175781 92.0488<174.865 235.627 250.539 317.474> 392.635 93.4102<92.084 291.747>
VStem: 375.217 41.876<92.8236 105.837>
LayerCount: 2
Fore
SplineSet
417.092773438 486.044921875 m 1
 417.092773438 402.01171875 l 1
 174.865234375 93.4892578125 l 1
 235.626953125 93.4892578125 l 1
 238.782226562 84.8271484375 l 1
 241.62890625 83.8994140625 l 1
 241.62890625 74.3701171875 l 1
 243.732421875 72.0810546875 l 1
 246.083984375 71.6474609375 l 1
 244.784179688 67.9970703125 l 1
 248.682617188 68.4306640625 l 1
 248.682617188 74.8037109375 l 1
 250.5390625 79.8154296875 l 1
 246.887695312 85.2607421875 l 1
 245.032226562 92.06640625 l 1
 317.473632812 92.06640625 l 1
 317.473632812 92.06640625 375.216796875 87.1201171875 375.216796875 105.836914062 c 1
 417.092773438 123.4375 l 1
 417.092773438 0.017578125 l 1
 42.3154296875 0.017578125 l 1
 42.3154296875 0.017578125 42.3154296875 0.017578125 33.4677734375 0.017578125 c 1
 33.4677734375 68.7880859375 l 1
 33.4677734375 74.1572265625 l 1
 37.3037109375 77.8076171875 l 1
 291.747070312 393.625 l 1
 92.083984375 392.634765625 l 1
 92.083984375 392.634765625 60.7197265625 392.48046875 55.515625 379.359375 c 1
 33.4677734375 361.758789062 l 1
 33.4677734375 486.044921875 l 1
 417.092773438 486.044921875 l 1
EndSplineSet
Validated: 33
EndChar

StartChar: backslash
Encoding: 92 92 26
Width: 348
VWidth: 0
Flags: W
HStem: 467.111 20G<53.9229 93.894>
VStem: 53.9229 239.643
LayerCount: 2
Fore
SplineSet
210.02734375 45.880859375 m 5
 210.02734375 45.880859375 133.865234375 406.1796875 53.9228515625 487.111328125 c 5
 53.9228515625 487.111328125 156.319335938 455.926757812 198.270507812 425.11328125 c 5
 198.270507812 425.11328125 307.858398438 3.2490234375 293.565429688 0.2177734375 c 4
 291.5234375 -0.154296875 210.02734375 45.880859375 210.02734375 45.880859375 c 5
EndSplineSet
Validated: 33
EndChar

StartChar: bracketright
Encoding: 93 93 27
Width: 297
VWidth: 0
Flags: W
VStem: 177.21 86.9414<394.201 436.37>
LayerCount: 2
Fore
SplineSet
264.151367188 506.879882812 m 1
 33.2890625 506.879882812 l 1
 33.2890625 436.370117188 l 1
 177.209960938 436.370117188 l 1
 177.209960938 380.311523438 92.1318359375 367.977539062 92.1318359375 367.977539062 c 1
 213.654296875 331.533203125 190.80859375 -42.4052734375 190.80859375 -42.4052734375 c 1
 264.151367188 -120.22265625 l 1
 264.151367188 506.879882812 l 1
EndSplineSet
Validated: 41
EndChar

StartChar: bracketleft
Encoding: 91 91 28
Width: 297
VWidth: 0
Flags: W
HStem: 436.37 70.5098<120.23 264.151>
VStem: 33.2891 86.9414<394.201 436.37>
LayerCount: 2
Fore
SplineSet
33.2890625 506.879882812 m 1
 264.151367188 506.879882812 l 1
 264.151367188 436.370117188 l 1
 120.23046875 436.370117188 l 1
 120.23046875 380.311523438 205.30859375 367.977539062 205.30859375 367.977539062 c 1
 83.78515625 331.533203125 106.630859375 -42.4052734375 106.630859375 -42.4052734375 c 1
 33.2890625 -120.22265625 l 1
 33.2890625 506.879882812 l 1
EndSplineSet
Validated: 33
EndChar

StartChar: parenright
Encoding: 41 41 29
Width: 281
VWidth: 0
Flags: W
HStem: 440.11 66.7695<26.3037 60.2726>
VStem: 26.3037 228.992
LayerCount: 2
Fore
SplineSet
26.3037109375 440.110351562 m 1
 26.3037109375 506.879882812 l 1
 255.295898438 506.879882812 l 1
 255.295898438 506.879882812 196.143554688 456.2734375 196.143554688 431.275390625 c 2
 196.143554688 429.694335938 l 1
 196.143554688 429.694335938 250.545898438 363.440429688 250.545898438 197.133789062 c 1
 250.545898438 197.133789062 254.028320312 0 61.8818359375 -117.809570312 c 1
 61.8818359375 -117.809570312 136.427734375 10.2373046875 143.54296875 117.837890625 c 0
 143.60546875 117.899414062 186.622070312 375.017578125 26.3037109375 440.110351562 c 1
EndSplineSet
Validated: 33
EndChar

StartChar: parenleft
Encoding: 40 40 30
Width: 281
VWidth: 0
Flags: W
HStem: 437.536 69.4922<172.789 256.878> 507.028 0<24.7227 94.6807>
LayerCount: 2
Fore
SplineSet
24.72265625 507.028320312 m 1x40
 256.877929688 507.028320312 l 1
 256.877929688 437.536132812 l 1
 172.7890625 437.536132812 l 1x80
 171.737304688 425.841796875 l 1
 208.862304688 396.870117188 l 1
 208.862304688 396.870117188 41.0009765625 112.639648438 217.33984375 -120.198242188 c 1
 217.33984375 -120.198242188 -69.87890625 103.83984375 82.513671875 419.46875 c 0
 82.5517578125 419.547851562 94.6806640625 494.559570312 24.72265625 507.028320312 c 1x40
EndSplineSet
Validated: 33
EndChar

StartChar: dollar
Encoding: 36 36 31
Width: 285
VWidth: 0
Flags: W
HStem: -0.197266 21G<141.879 150.793>
VStem: 111.561 0.124023<197.555 219.459>
LayerCount: 2
Fore
SplineSet
85.078125 224.59375 m 2
 78.705078125 196.46875 l 1
 103.455078125 168.5625 l 1
 107.291015625 172.399414062 l 1
 107.291015625 79.3740234375 l 1
 13.9833984375 271.048828125 l 1
 108.776367188 483.541015625 l 1
 108.28125 462.379882812 l 1
 114.654296875 452.232421875 116.881835938 446.168945312 116.881835938 446.168945312 c 2
 111.189453125 454.3984375 105.235351562 447.77734375 105.235351562 447.77734375 c 1
 78.2373046875 348.708984375 l 1
 89.6220703125 342.2734375 94.79296875 325.140625 95.1640625 324.274414062 c 1
 88.791015625 335.041015625 74.44921875 332.662109375 74.44921875 332.662109375 c 1
 65.40234375 288.202148438 l 2
 64.2880859375 281.766601562 67.2578125 274.712890625 73.81640625 274.651367188 c 2
 90.646484375 274.465820312 l 1
 116.696289062 277.9921875 89.2236328125 292.594726562 89.2236328125 292.594726562 c 1
 109.581054688 287.892578125 114.221679688 267.783203125 114.221679688 267.783203125 c 1
 116.077148438 271.557617188 111.189453125 287.026367188 111.065429688 287.458984375 c 1
 119.666015625 282.508789062 125.916015625 272.052734375 126.287109375 271.372070312 c 1
 108.528320312 303.484375 114.90234375 321.119140625 114.90234375 321.119140625 c 1
 116.16015625 334.400390625 142.065429688 344.577148438 142.065429688 344.577148438 c 1
 161.040039062 352.879882812 160.682617188 365.291015625 160.682617188 365.291015625 c 1
 159.280273438 380.16015625 142.065429688 378.807617188 142.065429688 378.807617188 c 1
 117.500976562 380.416015625 114.90234375 355.975585938 114.90234375 355.975585938 c 1
 114.90234375 355.975585938 109.986328125 367.622070312 109.986328125 368.302734375 c 0
 109.986328125 368.983398438 113.822265625 380.368164062 113.822265625 380.368164062 c 1
 113.204101562 391.237304688 l 1
 121.956054688 403.041992188 l 1
 117.500976562 424.017578125 127.029296875 432.247070312 127.029296875 432.247070312 c 2
 125.111328125 415.7265625 135.78125 406.561523438 135.78125 406.561523438 c 1
 154.838867188 400.188476562 167.0625 414.591796875 167.0625 414.591796875 c 1
 167.681640625 410.13671875 165.14453125 403.041992188 161.370117188 401.185546875 c 0
 147.32421875 394.131835938 148.108398438 389.73828125 148.108398438 389.73828125 c 1
 176 383.6796875 174.672851562 361.15234375 174.672851562 361.15234375 c 1
 175.291992188 340.857421875 148.004882812 330.6484375 142.126953125 328.111328125 c 0
 117.12890625 317.283203125 142.126953125 298.287109375 142.126953125 298.287109375 c 1
 152.150390625 286.221679688 158.15234375 267.1640625 158.15234375 267.1640625 c 1
 158.771484375 279.229492188 172.754882812 287.458984375 172.754882812 287.458984375 c 2
 162.607421875 270.938476562 168.918945312 265.24609375 168.918945312 265.24609375 c 1
 180.798828125 290.615234375 193.544921875 293.08984375 193.544921875 293.08984375 c 1
 175.787109375 278.487304688 190.512695312 274.774414062 190.512695312 274.774414062 c 1
 207.342773438 274.774414062 l 2
 216.12890625 274.774414062 222.564453125 283.127929688 220.212890625 291.666992188 c 2
 210.450195312 328.0078125 l 2
 205.438476562 339.26953125 187.171875 325.752929688 186.73828125 325.2578125 c 1
 195.958007812 344.005859375 203.452148438 351.245117188 203.452148438 351.245117188 c 1
 178.08984375 447.983398438 l 6
 174.25390625 453.67578125 167.0625 444.930664062 167.0625 444.930664062 c 1
 167.0625 453.840820312 174.672851562 463.370117188 174.672851562 463.370117188 c 1
 175.16796875 484.90234375 l 1
 271.13671875 269.192382812 l 1
 189.15234375 102.638671875 l 1
 185.315429688 113.405273438 l 1
 181.479492188 110.868164062 l 1
 176.405273438 117.859375 l 1
 176.405273438 174.193359375 l 1
 183.397460938 168.500976562 l 1
 188.471679688 172.956054688 l 1
 189.08984375 178.030273438 l 1
 202.393554688 194.55078125 l 1
 199.237304688 204.856445312 l 1
 206.229492188 208.01171875 l 1
 199.237304688 217.540039062 l 1
 199.237304688 224.532226562 l 1
 178.26171875 220.696289062 173.002929688 196.998046875 173.002929688 196.998046875 c 1
 173.188476562 218.220703125 l 1
 163.041015625 215.684570312 156.048828125 199.1640625 156.048828125 199.1640625 c 1
 161.741210938 155.356445312 l 1
 143.71484375 112.166992188 l 1
 152.439453125 86.798828125 l 1
 132.88671875 56.2939453125 l 1
 142.3125 33.970703125 l 1
 161.6796875 44.228515625 l 1
 141.87890625 -0.197265625 l 1
 141.87890625 -0.197265625 116.201171875 53.8193359375 114.221679688 56.2939453125 c 0
 115.706054688 57.53125 130.618164062 86.798828125 130.618164062 86.798828125 c 1
 119.8515625 109.630859375 l 1
 133.141601562 151.51953125 l 1
 133.079101562 161.048828125 l 2
 134.193359375 201.700195312 111.560546875 219.458984375 111.560546875 219.458984375 c 1
 111.684570312 197.5546875 l 1
 106.177734375 223.727539062 85.7587890625 224.59375 85.078125 224.59375 c 2
EndSplineSet
Validated: 33
EndChar

StartChar: exclam
Encoding: 33 33 32
Width: 140
VWidth: 0
Flags: W
HStem: 0.0292969 90.5264<44.4404 91.8359>
VStem: 17.2217 106.356
LayerCount: 2
Fore
SplineSet
44.4404296875 90.5556640625 m 1
 91.8359375 90.5556640625 l 1
 118.172851562 45.2919921875 l 1
 91.8359375 0.029296875 l 1
 44.4404296875 0.029296875 l 1
 17.2216796875 46.171875 l 1
 44.4404296875 90.5556640625 l 1
39.978515625 481.360351562 m 6
 123.578125 492.799804688 l 6
 123.578125 492.799804688 116.538085938 467.805664062 116.010742188 462.219726562 c 6
 115.658203125 458.48046875 l 5
 92.880859375 153.874023438 l 6
 92.0947265625 143.356445312 84.537109375 135.053710938 74.365234375 132.49609375 c 6
 47.8984375 125.83984375 l 6
 47.8984375 125.83984375 48.8876953125 130.37890625 47.8984375 143.741210938 c 6
 24.7705078125 460.5078125 l 6
 23.158203125 482.26953125 39.978515625 481.360351562 39.978515625 481.360351562 c 6
EndSplineSet
Validated: 1
EndChar

StartChar: period
Encoding: 46 46 33
Width: 132
VWidth: 0
Flags: W
HStem: 0.0292969 90.5264<44.9414 92.3389>
VStem: 17.7246 100.951
LayerCount: 2
Fore
SplineSet
44.94140625 90.5556640625 m 5
 92.3388671875 90.5556640625 l 5
 118.67578125 45.2919921875 l 5
 92.3388671875 0.029296875 l 5
 44.94140625 0.029296875 l 5
 17.724609375 46.171875 l 5
 44.94140625 90.5556640625 l 5
EndSplineSet
Validated: 1
EndChar

StartChar: comma
Encoding: 44 44 34
Width: 132
VWidth: 0
Flags: W
HStem: -118.8 210.162
VStem: 18.3584 95.2832
LayerCount: 2
Fore
SplineSet
71.3271484375 91.3623046875 m 1
 71.3271484375 91.3623046875 113.641601562 61.599609375 113.641601562 16.697265625 c 0
 113.641601562 -12.513671875 73.2978515625 -67.6298828125 73.2978515625 -67.6298828125 c 2
 62.1884765625 -90.8505859375 27.361328125 -118.799804688 27.361328125 -118.799804688 c 1
 83.681640625 -14.080078125 23.7451171875 4.29296875 23.7451171875 4.29296875 c 1
 18.3583984375 65.103515625 l 1
 71.3271484375 91.3623046875 l 1
EndSplineSet
Validated: 33
EndChar

StartChar: slash
Encoding: 47 47 35
Width: 283
VWidth: 0
Flags: W
HStem: 467.111 20G<217.772 257.744>
VStem: 26.9023 230.842
LayerCount: 2
Fore
SplineSet
110.440429688 45.880859375 m 1
 110.440429688 45.880859375 28.943359375 -0.154296875 26.90234375 0.2177734375 c 0
 12.6083984375 3.2490234375 122.196289062 425.11328125 122.196289062 425.11328125 c 1
 164.147460938 455.926757812 257.744140625 487.111328125 257.744140625 487.111328125 c 1
 177.80078125 406.1796875 110.440429688 45.880859375 110.440429688 45.880859375 c 1
EndSplineSet
Validated: 33
EndChar

StartChar: question
Encoding: 63 63 36
Width: 265
VWidth: 0
Flags: W
HStem: 0.0292969 90.5264<58.501 105.898> 429.004 59.4268<90.2871 122.564>
VStem: 16.4971 232.327
LayerCount: 2
Fore
SplineSet
58.5009765625 90.5556640625 m 1
 105.8984375 90.5556640625 l 1
 132.234375 45.2919921875 l 1
 105.8984375 0.029296875 l 1
 58.5009765625 0.029296875 l 1
 31.2841796875 46.171875 l 1
 58.5009765625 90.5556640625 l 1
133.20703125 488.685546875 m 1
 237.958984375 487.51953125 248.82421875 379.317382812 248.82421875 379.317382812 c 1
 254.6796875 306.240234375 200.999023438 268.400390625 140.103515625 249.462890625 c 0
 100.587890625 237.174804688 105.079101562 130.240234375 105.079101562 130.240234375 c 1
 62.8388671875 118.799804688 59.9609375 141.814453125 59.9609375 141.814453125 c 1
 10.9189453125 300.080078125 104.96484375 307.165039062 104.96484375 307.165039062 c 1
 190.439453125 319.440429688 178.719726562 372.869140625 178.719726562 372.869140625 c 1
 174.599609375 430.3203125 122.564453125 429.00390625 122.564453125 429.00390625 c 1
 61.0791015625 429.00390625 35.5068359375 356.080078125 35.5068359375 356.080078125 c 1
 35.5068359375 356.080078125 16.4970703125 450.501953125 16.4970703125 452.791015625 c 0
 16.4970703125 455.080078125 90.287109375 488.430664062 90.287109375 488.430664062 c 1
 133.20703125 488.685546875 l 1
EndSplineSet
Validated: 33
EndChar

StartChar: asterisk
Encoding: 42 42 37
Width: 162
VWidth: 0
Flags: W
HStem: 361.271 143.187
VStem: 11.5977 137.626
LayerCount: 2
Fore
SplineSet
28.978515625 478.7734375 m 5
 28.978515625 478.7734375 50.24609375 479.221679688 57.150390625 474.208007812 c 4
 70.998046875 464.15234375 85.982421875 432.43359375 85.982421875 432.43359375 c 6
 90.29296875 426.190429688 83.7353515625 414.91015625 83.7353515625 414.91015625 c 5
 67.67578125 457.028320312 34.2099609375 446.017578125 34.2099609375 446.017578125 c 5
 25.4169921875 459.08984375 l 5
 28.978515625 478.7734375 l 5
75.0751953125 429.641601562 m 1030
11.59765625 417.146484375 m 5
 11.59765625 417.146484375 25.265625 433.446289062 33.583984375 435.341796875 c 4
 50.271484375 439.141601562 84.0107421875 429.530273438 84.0107421875 429.530273438 c 6
 91.5478515625 428.6640625 95.71875 416.301757812 95.71875 416.301757812 c 5
 53.4443359375 431.94921875 39.6943359375 399.514648438 39.6943359375 399.514648438 c 5
 24.06640625 401.504882812 l 5
 11.59765625 417.146484375 l 5
78.9287109375 419.484375 m 1030
69.283203125 361.270507812 m 5
 69.283203125 361.270507812 58.1640625 379.404296875 59.009765625 387.895507812 c 4
 60.7060546875 404.92578125 79.27734375 437.6328125 79.27734375 437.6328125 c 6
 82.4931640625 444.501953125 95.5400390625 444.53515625 95.5400390625 444.53515625 c 5
 67.27734375 409.416992188 94.9248046875 382.313476562 94.9248046875 382.313476562 c 5
 88.07421875 368.125 l 5
 69.283203125 361.270507812 l 5
87.1904296875 429.623046875 m 1030
149.223632812 395.395507812 m 5
 149.223632812 395.395507812 131.088867188 384.278320312 122.598632812 385.125 c 4
 105.569335938 386.8203125 86.671875 415.434570312 86.671875 415.434570312 c 6
 79.8017578125 418.649414062 79.7685546875 431.696289062 79.7685546875 431.696289062 c 5
 114.88671875 403.435546875 128.180664062 421.038085938 128.180664062 421.038085938 c 5
 142.369140625 414.186523438 l 5
 149.223632812 395.395507812 l 5
94.6806640625 423.34765625 m 1030
151.202148438 465.229492188 m 5
 151.202148438 465.229492188 145.272460938 444.7421875 138.400390625 439.668945312 c 4
 124.623046875 429.493164062 91.0009765625 424.853515625 91.0009765625 424.853515625 c 6
 83.728515625 422.637695312 74.880859375 432.359375 74.880859375 432.359375 c 5
 120.043945312 434.8515625 119.504882812 470.239257812 119.504882812 470.239257812 c 5
 134.662109375 474.657226562 l 5
 151.202148438 465.229492188 l 5
96.9697265625 504.45703125 m 5
 96.9697265625 504.45703125 109.61328125 487.280273438 109.455078125 478.741210938 c 4
 109.138671875 461.616210938 91.5849609375 436.143554688 91.5849609375 436.143554688 c 6
 88.916015625 429.026367188 72.759765625 423.94140625 72.759765625 423.94140625 c 5
 98.2802734375 461.287109375 72.935546875 481.366210938 72.935546875 481.366210938 c 5
 78.658203125 496.080078125 l 5
 96.9697265625 504.45703125 l 5
EndSplineSet
Validated: 37
EndChar

StartChar: bar
Encoding: 124 124 38
Width: 158
VWidth: 0
Flags: W
VStem: 36.0801 86.2402<185.114 468.703> 48.7646 73.5557<-59.957 241.824>
LayerCount: 2
Fore
SplineSet
48.7646484375 -59.95703125 m 5x40
 36.080078125 486.89453125 l 5
 53.28125 503.786132812 l 5
 122.3203125 468.703125 l 5x80
 122.3203125 -123.625976562 l 5
 62.748046875 -98.380859375 l 5
 48.7646484375 -59.95703125 l 5x40
EndSplineSet
Validated: 1
EndChar

StartChar: percent
Encoding: 37 37 39
Width: 633
VWidth: 0
HStem: 54.4521 60.5762<397.93 471.465> 205.613 59.2139<399.963 471.073> 243.171 60.6377<177.949 256.02> 396.154 57.3916<178.429 318.308> 465.412 20G<488.452 534.642>
VStem: 109.643 60.1699<312.22 387.201> 261.704 58.3135<309.468 388.288> 329.113 62.748<121.188 198.65> 478.473 61.0156<121.071 198.854>
LayerCount: 2
Fore
SplineSet
534.641601562 485.412109375 m 1xbf80
 442.26171875 407.573242188 212.4375 9.1669921875 212.4375 9.1669921875 c 1
 212.4375 9.1669921875 132.625976562 -0.4921875 130.645507812 0.1259765625 c 0
 116.971679688 4.271484375 379.314453125 394.029296875 379.314453125 394.029296875 c 2
 381.666015625 395.514648438 384.140625 396.9375 386.615234375 398.422851562 c 1
 379.06640625 396.071289062 374.797851562 394.958007812 374.797851562 394.958007812 c 2
 330.680664062 382.706054688 318.271484375 409.044921875 299.584960938 411.890625 c 1
 312.26953125 398.33984375 314.077148438 390.248046875 317.418945312 371.561523438 c 0
 319.151367188 364.13671875 320.017578125 356.340820312 320.017578125 348.358398438 c 0
 320.017578125 290.2578125 272.930664062 243.170898438 214.830078125 243.170898438 c 0
 156.729492188 243.170898438 109.642578125 290.2578125 109.642578125 348.358398438 c 0
 109.642578125 406.458984375 156.729492188 453.545898438 214.830078125 453.545898438 c 0
 219.903320312 453.545898438 224.977539062 453.174804688 229.865234375 452.494140625 c 0
 238.465820312 451.380859375 246.6953125 449.27734375 254.4296875 446.306640625 c 0
 298.856445312 433.189453125 464.537109375 464.807617188 512.056640625 476.31640625 c 0
 525.668945312 482.008789062 534.641601562 485.412109375 534.641601562 485.412109375 c 1xbf80
214.830078125 396.154296875 m 0
 198 396.154296875 169.8125 377.51953125 169.8125 348.358398438 c 0
 169.8125 320.3203125 199.759765625 303.80859375 215.44921875 303.80859375 c 0
 235.83984375 303.80859375 261.704101562 313.280273438 261.704101562 349.1015625 c 0
 261.704101562 381.919921875 233.200195312 396.154296875 214.830078125 396.154296875 c 0
434.30078125 264.827148438 m 0xdf80
 492.401367188 264.827148438 539.48828125 217.740234375 539.48828125 159.639648438 c 0
 539.48828125 101.5390625 492.401367188 54.4521484375 434.30078125 54.4521484375 c 0
 376.200195312 54.4521484375 329.11328125 101.5390625 329.11328125 159.639648438 c 0
 329.11328125 217.740234375 376.200195312 264.827148438 434.30078125 264.827148438 c 0xdf80
434.857421875 115.028320312 m 0
 460.240234375 115.028320312 478.47265625 135.51953125 478.47265625 160.3203125 c 0
 478.47265625 184.799804688 459.360351562 205.61328125 434.23828125 205.61328125 c 0
 411.83984375 205.61328125 391.861328125 183.040039062 391.861328125 159.578125 c 0
 391.861328125 132 414.48046875 115.028320312 434.857421875 115.028320312 c 0
EndSplineSet
Validated: 33
EndChar

StartChar: hyphen
Encoding: 45 45 40
Width: 387
VWidth: 0
Flags: W
HStem: 175.471 76.8076
VStem: 42.9434 299.049
LayerCount: 2
Fore
SplineSet
60.2412109375 181.122070312 m 5
 60.2412109375 181.122070312 43.1298828125 244.619140625 42.943359375 246.228515625 c 4
 41.7685546875 257.489257812 335.94921875 252.278320312 335.94921875 252.278320312 c 5
 349.986328125 229.6796875 341.9921875 175.470703125 341.9921875 175.470703125 c 5
 264.879882812 196.240234375 60.2412109375 181.122070312 60.2412109375 181.122070312 c 5
EndSplineSet
Validated: 33
EndChar

StartChar: quotedbl
Encoding: 34 34 41
Width: 202
VWidth: 0
Flags: W
HStem: 322.433 168.129
VStem: 10.2871 181.826
LayerCount: 2
Fore
SplineSet
52.662109375 490.561523438 m 1
 52.662109375 490.561523438 86.513671875 466.751953125 86.513671875 430.830078125 c 0
 86.513671875 407.461914062 54.23828125 363.368164062 54.23828125 363.368164062 c 2
 45.3505859375 344.791992188 17.4892578125 322.432617188 17.4892578125 322.432617188 c 1
 62.544921875 406.208007812 14.5966796875 420.90625 14.5966796875 420.90625 c 1
 10.287109375 469.5546875 l 1
 52.662109375 490.561523438 l 1
158.26171875 490.561523438 m 1
 158.26171875 490.561523438 192.11328125 466.751953125 192.11328125 430.830078125 c 0
 192.11328125 407.461914062 159.838867188 363.368164062 159.838867188 363.368164062 c 2
 150.951171875 344.791992188 123.088867188 322.432617188 123.088867188 322.432617188 c 1
 168.145507812 406.208007812 120.196289062 420.90625 120.196289062 420.90625 c 1
 115.88671875 469.5546875 l 1
 158.26171875 490.561523438 l 1
EndSplineSet
Validated: 33
EndChar

StartChar: quotesingle
Encoding: 39 39 42
Width: 117
VWidth: 0
Flags: W
HStem: 286 210.162
VStem: 10.8779 95.2842
LayerCount: 2
Fore
SplineSet
63.84765625 496.162109375 m 1
 63.84765625 496.162109375 106.162109375 466.400390625 106.162109375 421.497070312 c 0
 106.162109375 392.287109375 65.8173828125 337.169921875 65.8173828125 337.169921875 c 2
 54.708984375 313.94921875 19.8818359375 286 19.8818359375 286 c 1
 76.201171875 390.719726562 16.265625 409.09375 16.265625 409.09375 c 1
 10.8779296875 469.903320312 l 1
 63.84765625 496.162109375 l 1
EndSplineSet
Validated: 33
EndChar

StartChar: colon
Encoding: 58 58 43
Width: 132
VWidth: 0
Flags: W
HStem: 0.0292969 90.5264<42.7422 90.1387> 190.989 90.5264<42.7422 90.1387>
VStem: 15.5244 100.951
LayerCount: 2
Fore
SplineSet
42.7421875 281.515625 m 5
 90.138671875 281.515625 l 5
 116.475585938 236.251953125 l 5
 90.138671875 190.989257812 l 5
 42.7421875 190.989257812 l 5
 15.5244140625 237.131835938 l 5
 42.7421875 281.515625 l 5
42.7421875 90.5556640625 m 5
 90.138671875 90.5556640625 l 5
 116.475585938 45.2919921875 l 5
 90.138671875 0.029296875 l 5
 42.7421875 0.029296875 l 5
 15.5244140625 46.171875 l 5
 42.7421875 90.5556640625 l 5
EndSplineSet
Validated: 1
EndChar

StartChar: semicolon
Encoding: 59 59 44
Width: 132
VWidth: 0
Flags: W
HStem: 190.989 90.5264<42.7422 90.1387>
VStem: 15.6367 100.839
LayerCount: 2
Fore
SplineSet
68.60546875 91.3623046875 m 5
 68.60546875 91.3623046875 110.919921875 61.599609375 110.919921875 16.697265625 c 4
 110.919921875 -12.513671875 70.576171875 -67.6298828125 70.576171875 -67.6298828125 c 6
 59.466796875 -90.8505859375 24.6396484375 -118.799804688 24.6396484375 -118.799804688 c 5
 80.9599609375 -14.080078125 21.0234375 4.29296875 21.0234375 4.29296875 c 5
 15.63671875 65.103515625 l 5
 68.60546875 91.3623046875 l 5
42.7421875 281.515625 m 1
 90.138671875 281.515625 l 1
 116.475585938 236.251953125 l 1
 90.138671875 190.989257812 l 1
 42.7421875 190.989257812 l 1
 15.5244140625 237.131835938 l 1
 42.7421875 281.515625 l 1
EndSplineSet
Validated: 33
EndChar

StartChar: one
Encoding: 49 49 45
Width: 264
VWidth: 0
Flags: W
HStem: 0.460938 49.4521<32.1426 85.6442 198.27 248.154> 400.695 48.8945<63.0498 92.99>
VStem: 100.054 84.0518<61.4202 397.428>
LayerCount: 2
Fore
SplineSet
33.7724609375 449.58984375 m 6
 50.34375 449.58984375 l 6
 86.31640625 449.58984375 119.88671875 461.4375 150.965820312 485.048828125 c 5
 184.10546875 485.048828125 l 5
 184.10546875 133.451171875 l 6
 184.10546875 94.38671875 199.043945312 49.9130859375 228.834960938 49.9130859375 c 6
 248.154296875 49.9130859375 l 5
 248.154296875 0.4609375 l 5
 32.142578125 0.4609375 l 5
 32.142578125 49.9130859375 l 5
 54.5498046875 49.9130859375 l 6
 84.857421875 49.9130859375 100.053710938 94.38671875 100.053710938 133.451171875 c 6
 100.053710938 341.283203125 l 6
 100.053710938 380.862304688 87.6904296875 400.6953125 63.0498046875 400.6953125 c 5
 63.0498046875 400.6953125 23.212890625 399.665039062 23.212890625 384.2109375 c 6
 23.212890625 384.2109375 -7.265625 449.58984375 33.7724609375 449.58984375 c 6
EndSplineSet
Validated: 33
EndChar

StartChar: two
Encoding: 50 50 46
Width: 360
VWidth: 0
Flags: W
HStem: 0.734375 78.9863<172.595 255.074> 399.554 84.6045<176.533 219.655>
VStem: 236.496 84.8506<269.295 373.655>
LayerCount: 2
Fore
SplineSet
35.568359375 361.048828125 m 0
 48.31640625 418.821289062 110.317382812 484.158203125 185.974609375 484.158203125 c 0
 223.555664062 484.158203125 255.849609375 471.439453125 282.774414062 445.91796875 c 0
 308.462890625 420.725585938 321.346679688 384.918945312 321.346679688 347.999023438 c 0
 321.346679688 234.080078125 266.6796875 179.490234375 246.345703125 158.4296875 c 2
 209.423828125 120.184570312 l 2
 177.956054688 89.955078125 194.399414062 104.002929688 172.594726562 79.720703125 c 1
 220.739257812 79.720703125 l 2
 240.06640625 79.720703125 246.095703125 83.1884765625 255.512695312 90.1279296875 c 0
 263.936523438 97.06640625 273.186523438 112.26171875 283.346679688 135.802734375 c 1
 342.904296875 135.802734375 l 1
 305.819335938 0.734375 l 1
 17.8955078125 0.734375 l 1
 17.8955078125 52.3818359375 l 1
 32.265625 68.4873046875 70.1787109375 109.713867188 115.190429688 154.810546875 c 0
 141.62109375 181.239257812 159.709960938 201.0625 185.974609375 230.796875 c 0
 199.107421875 245.16796875 208.827148438 257.598632812 215.626953125 267.881835938 c 0
 225.280273438 282.48046875 234.080078125 302.719726562 236.49609375 316.6875 c 0
 240.255859375 338.41796875 237.26953125 358.1484375 223.889648438 374.419921875 c 0
 211.250976562 390.030273438 195.360351562 399.51953125 176.533203125 399.553710938 c 1
 176.533203125 399.553710938 128.48046875 397.759765625 104.880859375 348.953125 c 1
 104.880859375 348.953125 91.51953125 321.200195312 98.55859375 311.529296875 c 0
 104.165039062 303.826171875 24.6396484375 311.51953125 35.568359375 361.048828125 c 0
EndSplineSet
Validated: 33
EndChar

StartChar: three
Encoding: 51 51 47
Width: 369
VWidth: 0
Flags: W
LayerCount: 2
Fore
SplineSet
105.486328125 269.545898438 m 1
 169.83984375 263.120117188 227.072265625 321.073242188 224.616210938 364.9140625 c 0
 222.161132812 408.755859375 179.459960938 409.25 140.704101562 389.872070312 c 0
 101.947265625 370.493164062 77.4404296875 354.639648438 71.6728515625 318.759765625 c 0
 69.810546875 307.173828125 19.3603515625 350.240234375 38.05859375 415.163085938 c 1
 38.05859375 415.163085938 66.0048828125 408.206054688 95.9921875 440.209960938 c 0
 134.134765625 480.719726562 166.338867188 484.807617188 206.41015625 484.807617188 c 0
 246.48046875 484.807617188 311.190429688 461.572265625 315.049804688 402.03515625 c 0
 318.907226562 342.498046875 252.444335938 296.991210938 252.444335938 296.991210938 c 1
 252.444335938 296.991210938 366.783203125 284.27734375 349.947265625 161.431640625 c 0
 333.111328125 38.5888671875 225.875976562 -5.7666015625 142.401367188 0.7216796875 c 0
 58.9267578125 7.2099609375 28.1494140625 28.6044921875 19.2060546875 37.5498046875 c 0
 10.2626953125 46.4931640625 56.3203125 74.7998046875 51.1220703125 128.977539062 c 1
 51.1220703125 128.977539062 94.2626953125 76.8623046875 181.157226562 92.7333984375 c 0
 225.262695312 100.7890625 257.880859375 118.467773438 257.880859375 162.66015625 c 0
 257.880859375 206.852539062 206.84765625 232.249023438 163.620117188 217.341796875 c 0
 103.293945312 196.5625 105.486328125 269.545898438 105.486328125 269.545898438 c 1
EndSplineSet
Validated: 33
EndChar

StartChar: four
Encoding: 52 52 48
Width: 418
VWidth: 0
Flags: W
HStem: 0.0615234 44.3125<178.06 224.313 335.107 383.728>
VStem: 235.866 89.332<217.288 346.229>
LayerCount: 2
Fore
SplineSet
385.551757812 134.59375 m 0
 395.212890625 101.09375 355.86328125 134.59375 325.021484375 134.59375 c 1
 325.021484375 134.59375 311.905273438 44.3740234375 373.943359375 44.3740234375 c 0
 388.123046875 44.3740234375 386.705078125 23.1044921875 386.705078125 0.0615234375 c 1
 172.94140625 0.0615234375 l 1
 172.94140625 0.0615234375 170.10546875 42.6015625 186.05859375 42.6015625 c 0
 202.010742188 42.6015625 235.866210938 44.3740234375 235.866210938 134.59375 c 1
 235.866210938 134.59375 54.0078125 134.59375 32.7373046875 134.59375 c 0
 11.4677734375 134.59375 14.1259765625 147.178710938 19.443359375 156.926757812 c 2
 19.443359375 156.926757812 130.93359375 320.706054688 160.357421875 361.650390625 c 0
 209.986328125 430.778320312 235.776367188 469.684570312 251.640625 480.408203125 c 0
 272.555664062 494.5 325.198242188 491.04296875 325.198242188 491.04296875 c 1
 325.198242188 396.213867188 325.198242188 253.52734375 325.198242188 225.16796875 c 0
 325.198242188 196.80859375 336.720703125 195.036132812 366.853515625 249.09765625 c 1
 402.302734375 249.09765625 l 1
 402.302734375 249.09765625 375.893554688 168.09375 385.551757812 134.59375 c 0
235.866210938 204.252929688 m 1
 235.866210938 346.229492188 l 1
 141.21484375 204.252929688 l 2
 141.21484375 205.494140625 235.866210938 204.252929688 235.866210938 204.252929688 c 1
EndSplineSet
Validated: 37
EndChar

StartChar: five
Encoding: 53 53 49
Width: 397
VWidth: 0
Flags: W
HStem: 388.754 89.2686<155.244 351.693>
VStem: 266.295 99.8496<125.127 230.462>
LayerCount: 2
Fore
SplineSet
33.244140625 99.369140625 m 1
 93.052734375 79.8623046875 266.294921875 66.97265625 266.294921875 179.028320312 c 0
 266.294921875 304.060546875 89.529296875 214.624023438 89.529296875 214.624023438 c 5
 63.0625 214.624023438 43.298828125 236.708007812 43.298828125 236.708007812 c 5
 45.0166015625 324.359375 63.1484375 478.624023438 109.724609375 478.624023438 c 0
 131.463867188 478.624023438 212.240234375 478.022460938 267.838867188 478.022460938 c 0
 323.436523438 478.022460938 316.475585938 484.897460938 325.755859375 484.897460938 c 0
 335.037109375 484.897460938 380.151367188 484.897460938 380.151367188 484.897460938 c 1
 380.151367188 484.897460938 361.84765625 383.59765625 342.943359375 382.99609375 c 0
 324.038085938 382.481445312 205.865234375 388.75390625 178.3671875 388.75390625 c 0
 150.868164062 388.75390625 143.478515625 320.131835938 143.478515625 320.131835938 c 5
 172.083984375 337.919921875 231.923828125 331.759765625 238.088867188 330.787109375 c 4
 294.110351562 321.947265625 365.02734375 291.169921875 366.14453125 172.583984375 c 0
 367.43359375 32.0849609375 237.504882812 7.078125 211.466796875 3.7275390625 c 0
 121.23828125 -7.7880859375 19.8388671875 7.1650390625 17.77734375 26.7578125 c 0
 15.7138671875 46.349609375 33.244140625 99.369140625 33.244140625 99.369140625 c 1
EndSplineSet
Validated: 33
EndChar

StartChar: six
Encoding: 54 54 50
Width: 325
VWidth: 0
Flags: W
HStem: 0.791016 21G<65.7803 236.519>
LayerCount: 2
Fore
SplineSet
307.916015625 208.845703125 m 0
 318.924804688 142.395507812 314.696289062 0.791015625 158.341796875 0.791015625 c 0
 -26.78125 0.791015625 10.6396484375 235.76953125 39.513671875 349.772460938 c 0
 71.2802734375 475.200195312 183.758789062 479.2578125 200.41015625 479.107421875 c 0
 340.559570312 477.83984375 284.56640625 354.6953125 284.56640625 354.6953125 c 1
 284.56640625 354.6953125 250.799804688 435.599609375 162.619140625 383.301757812 c 4
 98.0908203125 345.03125 107.057617188 277.333007812 107.057617188 277.333007812 c 1
 233.876953125 365.216796875 297.326171875 272.764648438 307.916015625 208.845703125 c 0
234.141601562 137.797851562 m 0
 238.895507812 215.266601562 172.243164062 278.203125 105.93359375 190.61328125 c 1
 105.93359375 190.61328125 95.158203125 116.221679688 126.012695312 93.7900390625 c 0
 156.783203125 71.359375 230.473632812 77.0908203125 234.141601562 137.797851562 c 0
EndSplineSet
Validated: 33
EndChar

StartChar: seven
Encoding: 55 55 51
Width: 338
VWidth: 0
Flags: W
HStem: 0.910156 21G<73.7236 190.502> 406.843 77.8701<74.7963 227.277> 472.101 20G<33.3307 67.8247>
VStem: 73.7236 116.531<0.910156 138.441>
LayerCount: 2
Fore
SplineSet
14.4267578125 364.240234375 m 2xd0
 36.8359375 492.100585938 l 1
 63.0224609375 492.100585938 l 1xb0
 72.626953125 487.17578125 88.3046875 484.712890625 110.221679688 484.712890625 c 2
 324.930664062 484.712890625 l 1
 324.930664062 431.87890625 l 1
 317.54296875 421.04296875 308.348632812 404.708007812 297.267578125 382.873046875 c 0
 276.334960938 341.830078125 247.716796875 284.645507812 230.068359375 230.139648438 c 0
 204.046875 149.778320312 190.749023438 62.146484375 190.254882812 0.91015625 c 1
 73.7236328125 0.91015625 l 1
 73.7236328125 14.865234375 l 2
 73.7236328125 56.400390625 86.7744140625 125.069335938 112.796875 187.291015625 c 0
 151.623046875 280.458984375 197.069335938 361.44921875 230.559570312 411.602539062 c 2
 227.27734375 406.842773438 l 1
 116.87109375 406.842773438 l 2
 97.6630859375 406.842773438 82.06640625 404.461914062 74.4326171875 395.431640625 c 0
 56.0439453125 373.432617188 34.7021484375 339.77734375 52.76171875 328.28515625 c 1
 52.76171875 328.28515625 8.43359375 326.64453125 14.4267578125 364.240234375 c 2xd0
EndSplineSet
Validated: 33
EndChar

StartChar: nine
Encoding: 57 57 52
Width: 359
VWidth: 0
Flags: W
LayerCount: 2
Fore
SplineSet
78.8505859375 0.232421875 m 0
 -30.0068359375 -0.3984375 48.123046875 62.6923828125 38.4248046875 98.9482421875 c 0
 31.0830078125 126.59375 71.689453125 121.336914062 78.9404296875 114.62890625 c 0
 86.19140625 107.920898438 128.408203125 84.8125 193.547851562 113.733398438 c 0
 240.298828125 134.490234375 240.227539062 199.65234375 240.227539062 199.65234375 c 1
 99.0107421875 144.724609375 24.3271484375 245.243164062 18.986328125 295.809570312 c 0
 9.087890625 389.532226562 45.34375 476.283203125 165.370117188 485.436523438 c 0
 325.606445312 497.658203125 370.685546875 321.43359375 324.364257812 131.751953125 c 0
 288.751953125 -14.080078125 156.962890625 0.6865234375 78.8505859375 0.232421875 c 0
110.169921875 345.670898438 m 0
 110.169921875 261.194335938 177.232421875 264.10546875 239.3203125 299.455078125 c 1
 239.3203125 299.455078125 249.654296875 360.727539062 216.1171875 385.110351562 c 0
 182.670898438 409.4921875 110.169921875 398.78515625 110.169921875 345.670898438 c 0
EndSplineSet
Validated: 33
EndChar

StartChar: eight
Encoding: 56 56 53
Width: 371
VWidth: 0
Flags: W
HStem: 0.282227 77.3506<118.906 258.375> 423.042 62.4053<126.188 242.563>
VStem: 15.6836 82.0693<99.028 188.964> 34.8232 75.2539<340.046 406.139> 264.954 70.0068<319.489 400.354> 277.713 77.9639<97.6049 168.202>
LayerCount: 2
Fore
SplineSet
98.453125 255.930664062 m 1xe4
 67.51171875 277.081054688 64.541015625 285.559570312 54.490234375 298.931640625 c 0
 41.37890625 316.150390625 34.8232421875 335.990234375 34.8232421875 358.453125 c 0
 34.8232421875 396.296875 50.90625 427.413085938 83.0703125 451.884765625 c 0
 112.700195312 474.260742188 147.309570312 485.447265625 186.990234375 485.447265625 c 0
 224.048828125 485.447265625 256.912109375 475.571289062 285.4921875 455.73046875 c 0
 318.443359375 433.618164062 334.9609375 404.513671875 334.9609375 368.416992188 c 0xd8
 334.9609375 324.366210938 326.920898438 291.06640625 275.96484375 268.341796875 c 1
 334.9609375 239.76171875 355.676757812 195.885742188 355.676757812 136.627929688 c 0
 355.676757812 94.150390625 330.330078125 60.1513671875 297.116210938 34.6298828125 c 0
 267.2265625 11.73046875 230.080078125 0.2822265625 185.504882812 0.2822265625 c 0
 143.552734375 0.2822265625 107.368164062 10.8564453125 76.9521484375 31.9208984375 c 0
 41.904296875 56.1298828125 15.68359375 88.20703125 15.68359375 128.0625 c 0
 15.68359375 167.7421875 25.6474609375 209.171875 62.9677734375 234.8671875 c 0
 72.4951171875 241.684570312 84.29296875 248.676757812 98.453125 255.930664062 c 1xe4
159.196289062 213.62890625 m 1
 118.29296875 194.836914062 97.7529296875 173.423828125 97.7529296875 150.262695312 c 0
 97.7529296875 121.944335938 106.668945312 110.145507812 124.41015625 93.9755859375 c 0
 141.62890625 77.1953125 160.24609375 73.7861328125 199.576171875 77.6328125 c 0
 223.700195312 79.990234375 232.702148438 82.5263671875 252.979492188 95.548828125 c 0
 270.546875 106.82421875 277.712890625 117.487304688 277.712890625 132.870117188 c 0xe4
 277.712890625 159.352539062 253.765625 172.462890625 205.870117188 195.099609375 c 2
 159.196289062 213.62890625 l 1
212.076171875 299.107421875 m 1
 247.384765625 314.83984375 264.954101562 340.360351562 264.954101562 355.7421875 c 0
 264.954101562 378.904296875 257 388.606445312 241.1796875 402.415039062 c 0
 225.359375 416.224609375 205.870117188 423.041992188 182.70703125 423.041992188 c 0
 163.654296875 423.041992188 147.134765625 417.88671875 133.23828125 407.573242188 c 0
 117.76953125 396.47265625 110.077148438 380.303710938 110.077148438 371.475585938 c 0xd8
 110.077148438 357.927734375 121.177734375 346.56640625 143.290039062 332.14453125 c 0
 147.397460938 329.348632812 167.849609375 319.296875 204.733398438 301.991210938 c 2
 212.076171875 299.107421875 l 1
EndSplineSet
Validated: 33
EndChar

StartChar: asciitilde
Encoding: 126 126 54
Width: 570
VWidth: 0
Flags: W
LayerCount: 2
Fore
SplineSet
496.98046875 275.377929688 m 4
 349.22265625 190.423828125 348.48046875 134.639648438 242.26171875 188.8359375 c 4
 142.395507812 239.790039062 72.5791015625 185.260742188 73.259765625 185.260742188 c 4
 73.9404296875 185.260742188 73.259765625 255.08984375 73.259765625 255.08984375 c 5
 73.259765625 255.08984375 132.075195312 311.432617188 215.861328125 277.598632812 c 4
 301.83984375 242.879882812 332.825195312 213.688476562 496.98046875 275.377929688 c 4
EndSplineSet
Validated: 37
EndChar

StartChar: numbersign
Encoding: 35 35 56
Width: 453
VWidth: 0
Flags: W
HStem: 112.167 69.376<36.0506 70.8643 152.646 256.316 337.438 426.122> 273.521 67.8535<36.059 97.7363 186.009 283.007 370.698 426.133>
LayerCount: 2
Fore
SplineSet
336.518554688 461.200195312 m 1
 408.106445312 467.924804688 l 1
 408.106445312 467.924804688 391.911132812 436.354492188 389.692382812 429.017578125 c 2
 388.208007812 424.102539062 l 1
 370.698242188 340.846679688 l 1
 404.290039062 340.556640625 426.149414062 340.278320312 426.149414062 340.278320312 c 1
 440.186523438 317.6796875 432.192382812 263.470703125 432.192382812 263.470703125 c 1
 415.913085938 267.85546875 388.849609375 270.640625 356.283203125 272.306640625 c 1
 337.4375 182.703125 l 1
 389.143554688 182.350585938 426.149414062 181.877929688 426.149414062 181.877929688 c 1
 440.186523438 159.280273438 432.192382812 105.0703125 432.192382812 105.0703125 c 1
 410.663085938 110.869140625 370.275390625 113.87109375 323.237304688 115.184570312 c 1
 301.485351562 11.7578125 l 2
 297.584960938 -2.1162109375 285.215820312 -11.189453125 270.900390625 -11.86328125 c 2
 233.651367188 -13.6142578125 l 1
 233.651367188 -13.6142578125 236.205078125 -7.802734375 238.49609375 10.3623046875 c 2
 256.31640625 116.034179688 l 1
 215.556640625 116.043945312 174.072265625 115.284179688 138.258789062 114.336914062 c 1
 116.685546875 11.7578125 l 2
 112.78515625 -2.1162109375 100.415039062 -11.189453125 86.099609375 -11.86328125 c 2
 48.8515625 -13.6142578125 l 1
 48.8515625 -13.6142578125 51.4052734375 -7.802734375 53.6962890625 10.3623046875 c 2
 70.8642578125 112.166992188 l 1
 49.21875 111.346679688 36.041015625 110.721679688 36.041015625 110.721679688 c 2
 36.041015625 110.721679688 18.9296875 174.219726562 18.744140625 175.828125 c 0
 18.4482421875 178.659179688 44.0576171875 180.44921875 82.5625 181.54296875 c 1
 97.736328125 271.5234375 l 1
 60.599609375 270.28515625 36.041015625 269.122070312 36.041015625 269.122070312 c 2
 36.041015625 269.122070312 18.9296875 332.619140625 18.744140625 334.228515625 c 0
 18.3837890625 337.67578125 56.419921875 339.579101562 109.37890625 340.561523438 c 1
 125.70703125 437.389648438 l 2
 129.4375 466.970703125 151.71875 461.200195312 151.71875 461.200195312 c 1
 223.305664062 467.924804688 l 1
 223.305664062 467.924804688 207.111328125 436.354492188 204.892578125 429.017578125 c 2
 203.408203125 424.102539062 l 1
 186.008789062 341.375 l 1
 222.110351562 341.545898438 259.790039062 341.494140625 294.310546875 341.344726562 c 1
 310.506835938 437.389648438 l 2
 314.237304688 466.970703125 336.518554688 461.200195312 336.518554688 461.200195312 c 1
171.73828125 273.521484375 m 1
 152.646484375 182.745117188 l 1
 189.40625 183.087890625 229.614257812 183.134765625 267.615234375 183.037109375 c 1
 283.006835938 274.310546875 l 1
 246.059570312 274.65625 207.305664062 274.2421875 171.73828125 273.521484375 c 1
EndSplineSet
Validated: 33
EndChar

StartChar: braceleft
Encoding: 123 123 57
Width: 218
VWidth: 0
Flags: W
VStem: 18.3213 181.507
LayerCount: 2
Fore
SplineSet
199.828125 412.872070312 m 1
 201.044921875 415.360351562 189.604492188 422.400390625 189.604492188 422.400390625 c 0
 187.244140625 423.581054688 162.599609375 328.556640625 162.599609375 328.556640625 c 0
 150.080078125 280.19140625 l 1
 164.96484375 263.120117188 165.412109375 242.72265625 165.96875 241.361328125 c 1
 157.924804688 263.120117188 141.90625 255.379882812 141.90625 255.379882812 c 1
 121.397460938 193.79296875 l 2
 119.913085938 183.708007812 147.399414062 129.807617188 156.061523438 129.68359375 c 1
 156.508789062 73.3017578125 l 1
 180.37890625 20.8798828125 l 1
 198.590820312 33.8603515625 l 1
 180.990234375 -119.087890625 l 1
 18.3212890625 207.137695312 l 1
 189.88671875 506.633789062 l 1
 199.828125 412.872070312 l 1
EndSplineSet
Validated: 37
EndChar

StartChar: braceright
Encoding: 125 125 58
Width: 218
VWidth: 0
Flags: W
VStem: 18.4121 10.2227<419.585 422.4>
LayerCount: 2
Fore
SplineSet
18.412109375 412.872070312 m 1
 17.1953125 415.360351562 28.634765625 422.400390625 28.634765625 422.400390625 c 0
 30.99609375 423.581054688 55.640625 328.556640625 55.640625 328.556640625 c 0
 68.1591796875 280.19140625 l 1
 53.275390625 263.120117188 52.828125 242.72265625 52.271484375 241.361328125 c 1
 60.3154296875 263.120117188 76.333984375 255.379882812 76.333984375 255.379882812 c 1
 96.841796875 193.79296875 l 2
 98.3271484375 183.708007812 70.8408203125 129.807617188 62.1787109375 129.68359375 c 1
 61.7314453125 73.3017578125 l 1
 37.861328125 20.8798828125 l 1
 19.6494140625 33.8603515625 l 1
 37.25 -119.087890625 l 1
 199.918945312 207.137695312 l 1
 28.353515625 506.633789062 l 1
 18.412109375 412.872070312 l 1
EndSplineSet
Validated: 37
EndChar

StartChar: underscore
Encoding: 95 95 59
Width: 652
VWidth: 0
Flags: W
HStem: -123.129 121.557
LayerCount: 2
Fore
SplineSet
90.2861328125 -123.12890625 m 1
 90.2861328125 -123.12890625 10.5908203125 -32.447265625 10.28125 -29.353515625 c 0
 7.55859375 -8.25390625 642.334960938 -1.572265625 642.334960938 -1.572265625 c 1
 602.734375 -66.7265625 602.734375 -123.92578125 602.734375 -123.92578125 c 1
 311.51953125 -93.2802734375 90.2861328125 -123.12890625 90.2861328125 -123.12890625 c 1
EndSplineSet
Validated: 33
EndChar

StartChar: asciicircum
Encoding: 94 94 60
Width: 196
VWidth: 0
Flags: W
HStem: 383.279 119.508
VStem: 20.0557 156.105
LayerCount: 2
Fore
SplineSet
124.62109375 394.310546875 m 5
 124.62109375 394.310546875 120.108398438 402.864257812 101.251953125 426.192382812 c 5
 80.9912109375 407.653320312 76.0078125 397.256835938 76.0078125 397.256835938 c 5
 76.0078125 397.256835938 20.6728515625 386.84375 20.0556640625 387.180664062 c 4
 16.09765625 389.342773438 90.052734375 488.725585938 100.549804688 502.787109375 c 4
 100.915039062 503.517578125 101.280273438 504.274414062 101.672851562 505.088867188 c 6
 101.672851562 505.088867188 180.567382812 385.356445312 176.161132812 383.279296875 c 4
 175.515625 382.970703125 124.62109375 394.310546875 124.62109375 394.310546875 c 5
EndSplineSet
Validated: 33
EndChar

StartChar: less
Encoding: 60 60 61
Width: 303
VWidth: 0
Flags: W
LayerCount: 2
Fore
SplineSet
265.177734375 168.69140625 m 5
 265.177734375 168.69140625 199.759765625 178.639648438 148.330078125 220.212890625 c 5
 189.200195312 264.879882812 258.680664062 275.866210938 258.680664062 275.866210938 c 5
 258.680664062 275.866210938 281.635742188 397.856445312 280.893554688 399.217773438 c 4
 276.12890625 407.94140625 57.0302734375 244.901367188 26.0302734375 221.759765625 c 4
 24.421875 220.956054688 22.7509765625 220.151367188 20.95703125 219.28515625 c 6
 20.95703125 219.28515625 284.915039062 45.3544921875 289.494140625 55.068359375 c 4
 290.174804688 56.4921875 265.177734375 168.69140625 265.177734375 168.69140625 c 5
EndSplineSet
Validated: 41
EndChar

StartChar: greater
Encoding: 62 62 62
Width: 303
VWidth: 0
Flags: W
VStem: 17.5381 268.537
LayerCount: 2
Fore
SplineSet
41.85546875 168.69140625 m 1
 41.85546875 168.69140625 107.272460938 178.639648438 158.702148438 220.212890625 c 1
 117.83203125 264.879882812 48.3515625 275.866210938 48.3515625 275.866210938 c 1
 48.3515625 275.866210938 25.396484375 397.856445312 26.138671875 399.217773438 c 0
 30.9033203125 407.94140625 250.002929688 244.901367188 281.001953125 221.759765625 c 0
 282.610351562 220.956054688 284.28125 220.151367188 286.075195312 219.28515625 c 2
 286.075195312 219.28515625 22.1171875 45.3544921875 17.5380859375 55.068359375 c 0
 16.857421875 56.4921875 41.85546875 168.69140625 41.85546875 168.69140625 c 1
EndSplineSet
Validated: 33
EndChar

StartChar: equal
Encoding: 61 61 63
Width: 431
VWidth: 0
Flags: W
HStem: 103.606 165.096
LayerCount: 2
Fore
SplineSet
334.478515625 175.477539062 m 5
 358.16015625 176 364.934570312 165.673828125 364.978515625 165.735351562 c 5
 371.360351562 128.48046875 364.836914062 103.606445312 364.836914062 103.606445312 c 5
 222.639648438 139.919921875 17.056640625 105.407226562 17.056640625 105.407226562 c 5
 17.056640625 105.407226562 16.3154296875 159.534179688 16.0986328125 161.947265625 c 4
 14.5830078125 178.83984375 293.919921875 174.240234375 293.919921875 174.240234375 c 6
 294.049804688 174.116210938 292.0546875 174.114257812 292.234375 174.109375 c 4
 319.440429688 173.360351562 334.478515625 175.477539062 334.478515625 175.477539062 c 5
378.478515625 252.037109375 m 5
 394.850585938 237.55859375 400.134765625 233.43359375 400.178710938 233.49609375 c 5
 360.799804688 243.759765625 364.836914062 197.766601562 364.836914062 197.766601562 c 5
 222.639648438 234.080078125 17.056640625 199.567382812 17.056640625 199.567382812 c 5
 17.056640625 199.567382812 16.3154296875 253.694335938 16.0986328125 256.107421875 c 4
 14.5830078125 272.999023438 335.844726562 268.702148438 335.844726562 268.702148438 c 6
 335.974609375 268.579101562 336.0546875 268.274414062 336.234375 268.26953125 c 4
 363.440429688 267.51953125 378.478515625 252.037109375 378.478515625 252.037109375 c 5
EndSplineSet
Validated: 37
EndChar

StartChar: plus
Encoding: 43 43 64
Width: 352
VWidth: 0
Flags: W
HStem: 195.285 68.6396<60.2677 143.109 217.027 314.426>
VStem: 143.109 71.8369<92.9466 97.8906 97.9229 195.285 263.94 355.969>
LayerCount: 2
Fore
SplineSet
60.2412109375 189.921875 m 2
 60.2412109375 189.921875 25.529296875 255.1796875 25.34375 256.788085938 c 0
 24.830078125 261.711914062 80.7724609375 263.486328125 143.903320312 263.924804688 c 1
 143.086914062 314.92578125 139.76171875 355.999023438 139.76171875 355.999023438 c 1
 139.76171875 355.999023438 212.059570312 390.7109375 213.66796875 390.896484375 c 0
 218.80859375 391.432617188 218.682617188 330.419921875 217.02734375 263.940429688 c 1
 272.473632812 263.650390625 318.349609375 262.837890625 318.349609375 262.837890625 c 0
 332.38671875 240.240234375 315.592773438 184.270507812 315.592773438 184.270507812 c 1
 290.901367188 192.219726562 253.534179688 195.421875 214.946289062 196.184570312 c 1
 213.024414062 142.10546875 210.91796875 97.890625 210.91796875 97.890625 c 0
 188.3203125 83.853515625 126.190429688 91.84765625 126.190429688 91.84765625 c 1
 136.497070312 115.044921875 141.267578125 154.163085938 143.109375 195.28515625 c 1
 96.4853515625 193.446289062 60.2412109375 189.921875 60.2412109375 189.921875 c 2
EndSplineSet
Validated: 33
EndChar

StartChar: ampersand
Encoding: 38 38 65
Width: 447
VWidth: 0
Flags: W
HStem: 421.4 68.1113<178.803 282.926>
VStem: 75.3945 63.4229<-133.893 -16.1308>
LayerCount: 2
Fore
SplineSet
410.569335938 462.331054688 m 4
 453.337890625 412.276367188 422.98828125 316.159179688 367.673828125 277.573242188 c 4
 312.55078125 238.923828125 300.1328125 204.456054688 329.086914062 152.056640625 c 4
 358.04296875 99.658203125 344.737304688 13.2353515625 253.247070312 -1.0205078125 c 4
 231.450195312 -4.4423828125 201.037109375 -3.427734375 169.23046875 2.78125 c 5
 151.110351562 -37.896484375 143.950195312 -52.546875 138.817382812 -81.3125 c 4
 131.658203125 -121.228515625 143 -170.966796875 134.69921875 -165.454101562 c 4
 126.399414062 -159.94140625 78.1826171875 -121.35546875 75.39453125 -113.0546875 c 4
 72.6708984375 -104.754882812 76.7890625 -68.5625 94.7197265625 -17.5576171875 c 4
 98.2041015625 -7.546875 104.033203125 5.3779296875 111.3828125 20.0146484375 c 5
 64.2421875 39.65625 24.2001953125 72.603515625 17.4833984375 121.70703125 c 4
 3.6708984375 222.38671875 113.916992188 306.084960938 113.916992188 306.084960938 c 5
 104.666992188 318.947265625 93.958984375 342.517578125 91.107421875 358.927734375 c 4
 88.2568359375 375.336914062 98.267578125 418.866210938 111.827148438 434.579101562 c 4
 125.385742188 450.229492188 158.90234375 489.51171875 225.303710938 489.51171875 c 4
 271.68359375 489.51171875 291.705078125 479.501953125 308.8125 473.102539062 c 4
 325.919921875 466.702148438 338.782226562 447.377929688 342.330078125 435.276367188 c 4
 345.942382812 423.173828125 357.346679688 399.604492188 338.782226562 391.748046875 c 4
 320.217773438 383.891601562 309.700195312 376.288085938 296.837890625 385.538085938 c 4
 284.0390625 394.7890625 273.837890625 421.400390625 231.006835938 421.400390625 c 4
 188.17578125 421.400390625 168.534179688 400.5546875 168.534179688 363.42578125 c 4
 168.534179688 326.296875 225.811523438 272.1875 245.072265625 270.73046875 c 5
 192.673828125 255.524414062 96.3037109375 225.553710938 103.01953125 161.751953125 c 4
 106.884765625 125.065429688 113.473632812 97.8212890625 144.963867188 81.6015625 c 5
 172.842773438 129.754882812 204.712890625 179.872070312 223.0234375 205.849609375 c 4
 256.161132812 252.736328125 323.765625 318.947265625 355.446289062 347.90234375 c 4
 387.125976562 376.858398438 367.864257812 436.163085938 365.077148438 441.67578125 c 4
 362.288085938 447.1875 393.208007812 482.669921875 410.569335938 462.331054688 c 4
203.4453125 66.583984375 m 5
 276.24609375 60.375 270.290039062 161.307617188 247.861328125 131.337890625 c 4
 230.24609375 107.83203125 215.610351562 86.3525390625 203.4453125 66.583984375 c 5
EndSplineSet
Validated: 33
EndChar

StartChar: grave
Encoding: 96 96 66
Width: 154
VWidth: 0
Flags: W
VStem: 21.0098 112.86
LayerCount: 2
Fore
SplineSet
24.8408203125 489.458984375 m 5
 24.8408203125 489.458984375 58.1259765625 503.723632812 84.875 487.216796875 c 4
 102.276367188 476.477539062 120.276367188 432.182617188 120.276367188 432.182617188 c 6
 130.025390625 417.028320312 133.870117188 386.006835938 133.870117188 386.006835938 c 5
 92.193359375 458.0546875 59.2158203125 429.10546875 59.2158203125 429.10546875 c 5
 21.009765625 448.251953125 l 5
 24.8408203125 489.458984375 l 5
EndSplineSet
Validated: 33
EndChar

StartChar: sterling
Encoding: 163 163 67
Width: 285
VWidth: 0
Flags: W
HStem: -0.197266 21G<141.879 150.793>
VStem: 111.561 0.124023<197.555 219.459>
LayerCount: 2
Fore
SplineSet
85.078125 224.59375 m 2
 78.705078125 196.46875 l 1
 103.455078125 168.5625 l 1
 107.291015625 172.399414062 l 1
 107.291015625 79.3740234375 l 1
 13.9833984375 271.048828125 l 1
 108.776367188 483.541015625 l 1
 108.28125 462.379882812 l 1
 114.654296875 452.232421875 116.881835938 446.168945312 116.881835938 446.168945312 c 2
 111.189453125 454.3984375 105.235351562 447.77734375 105.235351562 447.77734375 c 1
 78.2373046875 348.708984375 l 1
 89.6220703125 342.2734375 94.79296875 325.140625 95.1640625 324.274414062 c 1
 88.791015625 335.041015625 74.44921875 332.662109375 74.44921875 332.662109375 c 1
 65.40234375 288.202148438 l 2
 64.2880859375 281.766601562 67.2578125 274.712890625 73.81640625 274.651367188 c 2
 90.646484375 274.465820312 l 1
 116.696289062 277.9921875 89.2236328125 292.594726562 89.2236328125 292.594726562 c 1
 109.581054688 287.892578125 114.221679688 267.783203125 114.221679688 267.783203125 c 1
 116.077148438 271.557617188 111.189453125 287.026367188 111.065429688 287.458984375 c 1
 119.666015625 282.508789062 125.916015625 272.052734375 126.287109375 271.372070312 c 1
 108.528320312 303.484375 114.90234375 321.119140625 114.90234375 321.119140625 c 1
 116.16015625 334.400390625 142.065429688 344.577148438 142.065429688 344.577148438 c 1
 161.040039062 352.879882812 160.682617188 365.291015625 160.682617188 365.291015625 c 1
 159.280273438 380.16015625 142.065429688 378.807617188 142.065429688 378.807617188 c 1
 117.500976562 380.416015625 114.90234375 355.975585938 114.90234375 355.975585938 c 1
 114.90234375 355.975585938 109.986328125 367.622070312 109.986328125 368.302734375 c 0
 109.986328125 368.983398438 113.822265625 380.368164062 113.822265625 380.368164062 c 1
 113.204101562 391.237304688 l 1
 121.956054688 403.041992188 l 1
 117.500976562 424.017578125 127.029296875 432.247070312 127.029296875 432.247070312 c 2
 125.111328125 415.7265625 135.78125 406.561523438 135.78125 406.561523438 c 1
 154.838867188 400.188476562 167.0625 414.591796875 167.0625 414.591796875 c 1
 167.681640625 410.13671875 165.14453125 403.041992188 161.370117188 401.185546875 c 0
 147.32421875 394.131835938 148.108398438 389.73828125 148.108398438 389.73828125 c 1
 176 383.6796875 174.672851562 361.15234375 174.672851562 361.15234375 c 1
 175.291992188 340.857421875 148.004882812 330.6484375 142.126953125 328.111328125 c 0
 117.12890625 317.283203125 142.126953125 298.287109375 142.126953125 298.287109375 c 1
 152.150390625 286.221679688 158.15234375 267.1640625 158.15234375 267.1640625 c 1
 158.771484375 279.229492188 172.754882812 287.458984375 172.754882812 287.458984375 c 2
 162.607421875 270.938476562 168.918945312 265.24609375 168.918945312 265.24609375 c 1
 180.798828125 290.615234375 193.544921875 293.08984375 193.544921875 293.08984375 c 1
 175.787109375 278.487304688 190.512695312 274.774414062 190.512695312 274.774414062 c 1
 207.342773438 274.774414062 l 2
 216.12890625 274.774414062 222.564453125 283.127929688 220.212890625 291.666992188 c 2
 210.450195312 328.0078125 l 2
 205.438476562 339.26953125 187.171875 325.752929688 186.73828125 325.2578125 c 1
 195.958007812 344.005859375 203.452148438 351.245117188 203.452148438 351.245117188 c 1
 178.08984375 447.983398438 l 6
 174.25390625 453.67578125 167.0625 444.930664062 167.0625 444.930664062 c 1
 167.0625 453.840820312 174.672851562 463.370117188 174.672851562 463.370117188 c 1
 175.16796875 484.90234375 l 1
 271.13671875 269.192382812 l 1
 189.15234375 102.638671875 l 1
 185.315429688 113.405273438 l 1
 181.479492188 110.868164062 l 1
 176.405273438 117.859375 l 1
 176.405273438 174.193359375 l 1
 183.397460938 168.500976562 l 1
 188.471679688 172.956054688 l 1
 189.08984375 178.030273438 l 1
 202.393554688 194.55078125 l 1
 199.237304688 204.856445312 l 1
 206.229492188 208.01171875 l 1
 199.237304688 217.540039062 l 1
 199.237304688 224.532226562 l 1
 178.26171875 220.696289062 173.002929688 196.998046875 173.002929688 196.998046875 c 1
 173.188476562 218.220703125 l 1
 163.041015625 215.684570312 156.048828125 199.1640625 156.048828125 199.1640625 c 1
 161.741210938 155.356445312 l 1
 143.71484375 112.166992188 l 1
 152.439453125 86.798828125 l 1
 132.88671875 56.2939453125 l 1
 142.3125 33.970703125 l 1
 161.6796875 44.228515625 l 1
 141.87890625 -0.197265625 l 1
 141.87890625 -0.197265625 116.201171875 53.8193359375 114.221679688 56.2939453125 c 0
 115.706054688 57.53125 130.618164062 86.798828125 130.618164062 86.798828125 c 1
 119.8515625 109.630859375 l 1
 133.141601562 151.51953125 l 1
 133.079101562 161.048828125 l 2
 134.193359375 201.700195312 111.560546875 219.458984375 111.560546875 219.458984375 c 1
 111.684570312 197.5546875 l 1
 106.177734375 223.727539062 85.7587890625 224.59375 85.078125 224.59375 c 2
EndSplineSet
Validated: 33
EndChar

StartChar: yen
Encoding: 165 165 68
Width: 285
VWidth: 0
Flags: W
HStem: -0.197266 21G<141.879 150.793>
VStem: 111.561 0.124023<197.555 219.459>
LayerCount: 2
Fore
SplineSet
85.078125 224.59375 m 2
 78.705078125 196.46875 l 1
 103.455078125 168.5625 l 1
 107.291015625 172.399414062 l 1
 107.291015625 79.3740234375 l 1
 13.9833984375 271.048828125 l 1
 108.776367188 483.541015625 l 1
 108.28125 462.379882812 l 1
 114.654296875 452.232421875 116.881835938 446.168945312 116.881835938 446.168945312 c 2
 111.189453125 454.3984375 105.235351562 447.77734375 105.235351562 447.77734375 c 1
 78.2373046875 348.708984375 l 1
 89.6220703125 342.2734375 94.79296875 325.140625 95.1640625 324.274414062 c 1
 88.791015625 335.041015625 74.44921875 332.662109375 74.44921875 332.662109375 c 1
 65.40234375 288.202148438 l 2
 64.2880859375 281.766601562 67.2578125 274.712890625 73.81640625 274.651367188 c 2
 90.646484375 274.465820312 l 1
 116.696289062 277.9921875 89.2236328125 292.594726562 89.2236328125 292.594726562 c 1
 109.581054688 287.892578125 114.221679688 267.783203125 114.221679688 267.783203125 c 1
 116.077148438 271.557617188 111.189453125 287.026367188 111.065429688 287.458984375 c 1
 119.666015625 282.508789062 125.916015625 272.052734375 126.287109375 271.372070312 c 1
 108.528320312 303.484375 114.90234375 321.119140625 114.90234375 321.119140625 c 1
 116.16015625 334.400390625 142.065429688 344.577148438 142.065429688 344.577148438 c 1
 161.040039062 352.879882812 160.682617188 365.291015625 160.682617188 365.291015625 c 1
 159.280273438 380.16015625 142.065429688 378.807617188 142.065429688 378.807617188 c 1
 117.500976562 380.416015625 114.90234375 355.975585938 114.90234375 355.975585938 c 1
 114.90234375 355.975585938 109.986328125 367.622070312 109.986328125 368.302734375 c 0
 109.986328125 368.983398438 113.822265625 380.368164062 113.822265625 380.368164062 c 1
 113.204101562 391.237304688 l 1
 121.956054688 403.041992188 l 1
 117.500976562 424.017578125 127.029296875 432.247070312 127.029296875 432.247070312 c 2
 125.111328125 415.7265625 135.78125 406.561523438 135.78125 406.561523438 c 1
 154.838867188 400.188476562 167.0625 414.591796875 167.0625 414.591796875 c 1
 167.681640625 410.13671875 165.14453125 403.041992188 161.370117188 401.185546875 c 0
 147.32421875 394.131835938 148.108398438 389.73828125 148.108398438 389.73828125 c 1
 176 383.6796875 174.672851562 361.15234375 174.672851562 361.15234375 c 1
 175.291992188 340.857421875 148.004882812 330.6484375 142.126953125 328.111328125 c 0
 117.12890625 317.283203125 142.126953125 298.287109375 142.126953125 298.287109375 c 1
 152.150390625 286.221679688 158.15234375 267.1640625 158.15234375 267.1640625 c 1
 158.771484375 279.229492188 172.754882812 287.458984375 172.754882812 287.458984375 c 2
 162.607421875 270.938476562 168.918945312 265.24609375 168.918945312 265.24609375 c 1
 180.798828125 290.615234375 193.544921875 293.08984375 193.544921875 293.08984375 c 1
 175.787109375 278.487304688 190.512695312 274.774414062 190.512695312 274.774414062 c 1
 207.342773438 274.774414062 l 2
 216.12890625 274.774414062 222.564453125 283.127929688 220.212890625 291.666992188 c 2
 210.450195312 328.0078125 l 2
 205.438476562 339.26953125 187.171875 325.752929688 186.73828125 325.2578125 c 1
 195.958007812 344.005859375 203.452148438 351.245117188 203.452148438 351.245117188 c 1
 178.08984375 447.983398438 l 2
 174.25390625 453.67578125 167.0625 444.930664062 167.0625 444.930664062 c 1
 167.0625 453.840820312 174.672851562 463.370117188 174.672851562 463.370117188 c 1
 175.16796875 484.90234375 l 1
 271.13671875 269.192382812 l 1
 189.15234375 102.638671875 l 1
 185.315429688 113.405273438 l 1
 181.479492188 110.868164062 l 1
 176.405273438 117.859375 l 1
 176.405273438 174.193359375 l 1
 183.397460938 168.500976562 l 1
 188.471679688 172.956054688 l 1
 189.08984375 178.030273438 l 1
 202.393554688 194.55078125 l 1
 199.237304688 204.856445312 l 1
 206.229492188 208.01171875 l 1
 199.237304688 217.540039062 l 1
 199.237304688 224.532226562 l 1
 178.26171875 220.696289062 173.002929688 196.998046875 173.002929688 196.998046875 c 1
 173.188476562 218.220703125 l 1
 163.041015625 215.684570312 156.048828125 199.1640625 156.048828125 199.1640625 c 1
 161.741210938 155.356445312 l 1
 143.71484375 112.166992188 l 1
 152.439453125 86.798828125 l 1
 132.88671875 56.2939453125 l 1
 142.3125 33.970703125 l 1
 161.6796875 44.228515625 l 1
 141.87890625 -0.197265625 l 1
 141.87890625 -0.197265625 116.201171875 53.8193359375 114.221679688 56.2939453125 c 0
 115.706054688 57.53125 130.618164062 86.798828125 130.618164062 86.798828125 c 1
 119.8515625 109.630859375 l 1
 133.141601562 151.51953125 l 1
 133.079101562 161.048828125 l 2
 134.193359375 201.700195312 111.560546875 219.458984375 111.560546875 219.458984375 c 1
 111.684570312 197.5546875 l 1
 106.177734375 223.727539062 85.7587890625 224.59375 85.078125 224.59375 c 2
EndSplineSet
Validated: 33
EndChar

StartChar: cent
Encoding: 162 162 69
Width: 285
VWidth: 0
Flags: W
HStem: -0.197266 21G<141.879 150.793>
VStem: 111.561 0.124023<197.555 219.459>
LayerCount: 2
Fore
SplineSet
85.078125 224.59375 m 2
 78.705078125 196.46875 l 1
 103.455078125 168.5625 l 1
 107.291015625 172.399414062 l 1
 107.291015625 79.3740234375 l 1
 13.9833984375 271.048828125 l 1
 108.776367188 483.541015625 l 1
 108.28125 462.379882812 l 1
 114.654296875 452.232421875 116.881835938 446.168945312 116.881835938 446.168945312 c 2
 111.189453125 454.3984375 105.235351562 447.77734375 105.235351562 447.77734375 c 1
 78.2373046875 348.708984375 l 1
 89.6220703125 342.2734375 94.79296875 325.140625 95.1640625 324.274414062 c 1
 88.791015625 335.041015625 74.44921875 332.662109375 74.44921875 332.662109375 c 1
 65.40234375 288.202148438 l 2
 64.2880859375 281.766601562 67.2578125 274.712890625 73.81640625 274.651367188 c 2
 90.646484375 274.465820312 l 1
 116.696289062 277.9921875 89.2236328125 292.594726562 89.2236328125 292.594726562 c 1
 109.581054688 287.892578125 114.221679688 267.783203125 114.221679688 267.783203125 c 1
 116.077148438 271.557617188 111.189453125 287.026367188 111.065429688 287.458984375 c 1
 119.666015625 282.508789062 125.916015625 272.052734375 126.287109375 271.372070312 c 1
 108.528320312 303.484375 114.90234375 321.119140625 114.90234375 321.119140625 c 1
 116.16015625 334.400390625 142.065429688 344.577148438 142.065429688 344.577148438 c 1
 161.040039062 352.879882812 160.682617188 365.291015625 160.682617188 365.291015625 c 1
 159.280273438 380.16015625 142.065429688 378.807617188 142.065429688 378.807617188 c 1
 117.500976562 380.416015625 114.90234375 355.975585938 114.90234375 355.975585938 c 1
 114.90234375 355.975585938 109.986328125 367.622070312 109.986328125 368.302734375 c 0
 109.986328125 368.983398438 113.822265625 380.368164062 113.822265625 380.368164062 c 1
 113.204101562 391.237304688 l 1
 121.956054688 403.041992188 l 1
 117.500976562 424.017578125 127.029296875 432.247070312 127.029296875 432.247070312 c 2
 125.111328125 415.7265625 135.78125 406.561523438 135.78125 406.561523438 c 1
 154.838867188 400.188476562 167.0625 414.591796875 167.0625 414.591796875 c 1
 167.681640625 410.13671875 165.14453125 403.041992188 161.370117188 401.185546875 c 0
 147.32421875 394.131835938 148.108398438 389.73828125 148.108398438 389.73828125 c 1
 176 383.6796875 174.672851562 361.15234375 174.672851562 361.15234375 c 1
 175.291992188 340.857421875 148.004882812 330.6484375 142.126953125 328.111328125 c 0
 117.12890625 317.283203125 142.126953125 298.287109375 142.126953125 298.287109375 c 1
 152.150390625 286.221679688 158.15234375 267.1640625 158.15234375 267.1640625 c 1
 158.771484375 279.229492188 172.754882812 287.458984375 172.754882812 287.458984375 c 2
 162.607421875 270.938476562 168.918945312 265.24609375 168.918945312 265.24609375 c 1
 180.798828125 290.615234375 193.544921875 293.08984375 193.544921875 293.08984375 c 1
 175.787109375 278.487304688 190.512695312 274.774414062 190.512695312 274.774414062 c 1
 207.342773438 274.774414062 l 2
 216.12890625 274.774414062 222.564453125 283.127929688 220.212890625 291.666992188 c 2
 210.450195312 328.0078125 l 2
 205.438476562 339.26953125 187.171875 325.752929688 186.73828125 325.2578125 c 1
 195.958007812 344.005859375 203.452148438 351.245117188 203.452148438 351.245117188 c 1
 178.08984375 447.983398438 l 6
 174.25390625 453.67578125 167.0625 444.930664062 167.0625 444.930664062 c 1
 167.0625 453.840820312 174.672851562 463.370117188 174.672851562 463.370117188 c 1
 175.16796875 484.90234375 l 1
 271.13671875 269.192382812 l 1
 189.15234375 102.638671875 l 1
 185.315429688 113.405273438 l 1
 181.479492188 110.868164062 l 1
 176.405273438 117.859375 l 1
 176.405273438 174.193359375 l 1
 183.397460938 168.500976562 l 1
 188.471679688 172.956054688 l 1
 189.08984375 178.030273438 l 1
 202.393554688 194.55078125 l 1
 199.237304688 204.856445312 l 1
 206.229492188 208.01171875 l 1
 199.237304688 217.540039062 l 1
 199.237304688 224.532226562 l 1
 178.26171875 220.696289062 173.002929688 196.998046875 173.002929688 196.998046875 c 1
 173.188476562 218.220703125 l 1
 163.041015625 215.684570312 156.048828125 199.1640625 156.048828125 199.1640625 c 1
 161.741210938 155.356445312 l 1
 143.71484375 112.166992188 l 1
 152.439453125 86.798828125 l 1
 132.88671875 56.2939453125 l 1
 142.3125 33.970703125 l 1
 161.6796875 44.228515625 l 1
 141.87890625 -0.197265625 l 1
 141.87890625 -0.197265625 116.201171875 53.8193359375 114.221679688 56.2939453125 c 0
 115.706054688 57.53125 130.618164062 86.798828125 130.618164062 86.798828125 c 1
 119.8515625 109.630859375 l 1
 133.141601562 151.51953125 l 1
 133.079101562 161.048828125 l 2
 134.193359375 201.700195312 111.560546875 219.458984375 111.560546875 219.458984375 c 1
 111.684570312 197.5546875 l 1
 106.177734375 223.727539062 85.7587890625 224.59375 85.078125 224.59375 c 2
EndSplineSet
Validated: 33
EndChar

StartChar: zero
Encoding: 48 48 70
Width: 371
VWidth: 0
Flags: W
HStem: -0.864258 95.9043<131.406 235.926> 394.24 87.916<141.125 235.033>
VStem: 24.1377 84.4805<118.241 355.971> 260.858 86.2393<116.393 368.755>
LayerCount: 2
Fore
SplineSet
24.1376953125 221.759765625 m 0
 24.1376953125 339.6796875 57.578125 482.15625 187.619140625 482.15625 c 0
 322.458007812 482.15625 345.337890625 337.040039062 347.09765625 240.240234375 c 0
 349.06640625 132.014648438 328.879882812 -0.8642578125 188.836914062 -0.8642578125 c 0
 62.9716796875 -0.8642578125 24.1376953125 115.221679688 24.1376953125 221.759765625 c 0
186.938476562 394.240234375 m 0
 129.73828125 394.240234375 110.377929688 338.799804688 108.618164062 227.040039062 c 0
 106.96875 122.318359375 132.377929688 94.16015625 186.938476562 95.0400390625 c 0
 248.4921875 96.0322265625 259.978515625 131.120117188 260.858398438 238.48046875 c 0
 261.659179688 336.161132812 250.303710938 394.240234375 186.938476562 394.240234375 c 0
EndSplineSet
Validated: 33
EndChar

StartChar: a
Encoding: 97 97 71
Width: 334
VWidth: 0
Flags: W
HStem: 0.0986328 21G<144.772 191.925 206.669 314.469>
VStem: 206.841 85.751<90.6699 144.281>
LayerCount: 2
Fore
SplineSet
313.044921875 26.34765625 m 1
 314.46875 23.6865234375 l 1
 314.46875 0.0986328125 l 1
 212.051757812 0.0986328125 l 1
 206.668945312 8.748046875 l 1
 206.916015625 26.044921875 l 1
 144.772460938 -0.3134765625 l 1
 144.772460938 -0.3134765625 68.8388671875 -27.9306640625 29.609375 28.4990234375 c 1
 29.609375 28.4990234375 3.931640625 58.8798828125 36.23046875 134.676757812 c 0
 44.521484375 154.229492188 129.056640625 191.162109375 129.056640625 191.162109375 c 1
 207.720703125 204.774414062 l 1
 207.720703125 204.774414062 207.9765625 269.280273438 92.8525390625 209.51171875 c 1
 74.970703125 193.857421875 l 1
 56.4150390625 191.114257812 l 1
 56.0439453125 259.740234375 l 1
 56.0439453125 259.740234375 210.174804688 342.948242188 281.826171875 246.98046875 c 1
 281.826171875 246.98046875 292.591796875 227.303710938 292.591796875 173.224609375 c 0
 292.591796875 119.146484375 292.591796875 54.810546875 292.591796875 54.810546875 c 1
 292.591796875 54.810546875 294.161132812 33.6015625 308.060546875 29.3173828125 c 0
 311.81640625 28.16015625 313.044921875 26.34765625 313.044921875 26.34765625 c 1
206.90234375 90.669921875 m 1
 206.840820312 90.669921875 l 1
 207.720703125 144.28125 l 1
 157.23046875 143.971679688 150.685546875 122.762695312 150.685546875 122.762695312 c 1
 113.931640625 145.161132812 106.423828125 114.038085938 106.423828125 114.038085938 c 1
 86.5361328125 29.0400390625 158.736328125 70.6298828125 158.736328125 70.6298828125 c 1
 206.90234375 90.669921875 l 1
EndSplineSet
Validated: 33
EndChar

StartChar: b
Encoding: 98 98 72
Width: 360
VWidth: 0
Flags: W
HStem: -6.89062 75.7422<137.791 243.593> 209.376 82.5<138.282 237.718>
VStem: 30.6582 83.3594<92.4752 184.897 263.263 322.34 341.149 424.846> 259.609 75.5566<84.6659 188.139>
LayerCount: 2
Fore
SplineSet
200.5390625 291.875976562 m 4
 257.047851562 291.875976562 334.670898438 248.096679688 335.166015625 136.473632812 c 4
 335.474609375 42.23828125 267.866210938 -6.890625 209.333007812 -6.890625 c 4
 106.9296875 -6.890625 30.658203125 37.783203125 30.658203125 37.783203125 c 5
 30.658203125 73.2998046875 l 5
 30.658203125 424.845703125 l 5
 30.658203125 424.845703125 28.248046875 449.6796875 8.0322265625 461.379882812 c 5
 111.975585938 484.025390625 l 5
 130.291015625 484.087890625 l 5
 130.291015625 484.087890625 114.017578125 476.848632812 114.017578125 447.766601562 c 6
 114.017578125 341.149414062 l 5
 109.315429688 337.189453125 l 5
 108.8203125 333.5390625 l 5
 103.623046875 333.5390625 l 5
 102.384765625 330.877929688 l 5
 102.137695312 327.908203125 l 5
 100.157226562 329.579101562 l 5
 100.405273438 324.62890625 l 5
 103.870117188 324.62890625 l 5
 106.592773438 322.33984375 l 5
 109.5625 326.98046875 l 5
 113.275390625 329.26953125 l 5
 113.275390625 263.262695312 l 5
 135.549804688 284.857421875 169.540039062 291.875976562 200.5390625 291.875976562 c 4
189.099609375 68.8515625 m 4
 234.16796875 68.8515625 259.609375 94.16015625 259.609375 136.473632812 c 4
 259.609375 180.400390625 223.607421875 209.375976562 190.336914062 209.375976562 c 4
 157.607421875 209.375976562 115.763671875 180.400390625 115.763671875 139.444335938 c 4
 115.763671875 98.5595703125 152.328125 68.8515625 189.099609375 68.8515625 c 4
EndSplineSet
Validated: 33
EndChar

StartChar: c
Encoding: 99 99 73
Width: 286
VWidth: 0
Flags: W
HStem: 0.264648 290.503
VStem: 17.3633 81.0977<88.0196 149.692>
LayerCount: 2
Fore
SplineSet
148.84765625 74.3837890625 m 1
 148.84765625 74.3837890625 205.65625 67.759765625 253.822265625 131.384765625 c 1
 266.75390625 135.09765625 l 1
 268.514648438 63.177734375 l 1
 268.514648438 63.177734375 230.584960938 2.5537109375 148.724609375 0.2646484375 c 1
 148.724609375 0.2646484375 19.6533203125 -5.7373046875 17.36328125 149.692382812 c 1
 17.36328125 149.692382812 15.5078125 295.841796875 152.931640625 290.767578125 c 0
 205.7109375 290.767578125 240.856445312 264.841796875 240.856445312 264.841796875 c 1
 259.8515625 238.916992188 268.637695312 248.630859375 268.637695312 248.630859375 c 1
 257.995117188 221.34375 222.850585938 174.586914062 222.850585938 174.586914062 c 1
 211.568359375 180.493164062 l 1
 211.568359375 224.400390625 152.994140625 220.780273438 152.994140625 220.780273438 c 1
 152.994140625 220.780273438 98.4609375 218.240234375 98.4609375 144.990234375 c 0
 98.4609375 76.5595703125 148.84765625 74.3837890625 148.84765625 74.3837890625 c 1
EndSplineSet
Validated: 33
EndChar

StartChar: d
Encoding: 100 100 74
Width: 360
VWidth: 0
Flags: W
HStem: -6.89062 75.7422<117.207 223.009> 209.376 82.5<123.082 222.518>
VStem: 25.6348 75.5557<84.6659 188.139> 246.782 83.3594<92.4752 184.897>
LayerCount: 2
Fore
SplineSet
160.260742188 291.875976562 m 0
 103.751953125 291.875976562 26.12890625 248.096679688 25.634765625 136.473632812 c 0
 25.3251953125 42.23828125 92.93359375 -6.890625 151.467773438 -6.890625 c 0
 253.870117188 -6.890625 330.141601562 37.783203125 330.141601562 37.783203125 c 1
 330.141601562 73.2998046875 l 1
 330.141601562 424.845703125 l 1
 330.141601562 424.845703125 332.552734375 449.6796875 352.767578125 461.379882812 c 1
 248.82421875 484.025390625 l 1
 230.509765625 484.087890625 l 1
 230.509765625 484.087890625 246.782226562 476.848632812 246.782226562 447.766601562 c 2
 246.782226562 341.149414062 l 1
 251.485351562 337.189453125 l 1
 251.979492188 333.5390625 l 1
 257.177734375 333.5390625 l 1
 258.415039062 330.877929688 l 1
 258.662109375 327.908203125 l 1
 260.642578125 329.579101562 l 1
 260.39453125 324.62890625 l 1
 256.9296875 324.62890625 l 1
 254.20703125 322.33984375 l 1
 251.237304688 326.98046875 l 1
 247.525390625 329.26953125 l 1
 247.525390625 263.262695312 l 1
 225.25 284.857421875 191.259765625 291.875976562 160.260742188 291.875976562 c 0
171.700195312 68.8515625 m 0
 126.6328125 68.8515625 101.190429688 94.16015625 101.190429688 136.473632812 c 0
 101.190429688 180.400390625 137.192382812 209.375976562 170.462890625 209.375976562 c 0
 203.192382812 209.375976562 245.036132812 180.400390625 245.036132812 139.444335938 c 0
 245.036132812 98.5595703125 208.47265625 68.8515625 171.700195312 68.8515625 c 0
EndSplineSet
Validated: 41
EndChar

StartChar: j
Encoding: 106 106 75
Width: 156
VWidth: 0
Flags: W
HStem: -161.608 76.8906<-6.6709 24.1184> 287.288 1.79492<138.473 148.69>
VStem: 32.7891 90.5264<350.302 392.419> 41.0967 74.9863<1.65234 225.537>
LayerCount: 2
Fore
SplineSet
32.7890625 350.301757812 m 1xe0
 32.7890625 392.418945312 l 1
 78.052734375 422.275390625 l 1
 123.315429688 392.418945312 l 1
 123.315429688 350.301757812 l 1
 78.052734375 320.444335938 l 1
 32.7890625 350.301757812 l 1xe0
148.690429688 289.083007812 m 1
 139.409179688 287.288085938 l 1
 133.221679688 281.842773438 116.639648438 263.713867188 116.083007812 224.91796875 c 2
 116.083007812 198.374023438 l 1
 116.083007812 -8.9697265625 l 2
 116.083007812 -102.080078125 67.73046875 -161.608398438 -5.0615234375 -161.608398438 c 0
 -145.229492188 -161.608398438 -93.6669921875 -29.126953125 -93.6669921875 -29.126953125 c 1
 -89.8232421875 -19.5498046875 l 1
 -71.6396484375 -5.3603515625 l 1
 -69.59765625 -97.615234375 -6.6708984375 -84.7177734375 -6.6708984375 -84.7177734375 c 1
 37.810546875 -82.7197265625 41.0966796875 1.65234375 41.0966796875 1.65234375 c 1
 41.0966796875 225.537109375 l 1xd0
 41.0966796875 225.537109375 39.599609375 261.360351562 19.7294921875 278.997070312 c 1
 48.6455078125 283.947265625 l 1
 134.087890625 289.083007812 l 1
 141.513671875 289.083007812 l 1
 141.69921875 289.083007812 l 1
 148.690429688 289.083007812 l 1
EndSplineSet
Validated: 33
EndChar

StartChar: g
Encoding: 103 103 76
Width: 336
VWidth: 0
Flags: W
HStem: -174.209 59.3848<106.241 232.545> 22.834 60.9326<114.038 204.865> 223.523 70.666<115.935 202.699>
VStem: 27.6572 70.3545<95.0743 193.194> 220.087 67.9365<99.606 206.724> 244.792 77.2549<-107.701 -63.986>
LayerCount: 2
Fore
SplineSet
328.743164062 286.321289062 m 5xf4
 328.743164062 286.321289062 315.279296875 221.658203125 295.607421875 219.28125 c 5
 265.228515625 228.08203125 l 5
 286.98828125 205.693359375 288.0234375 178.33984375 288.0234375 145.286132812 c 4xf8
 288.0234375 63.3603515625 238.573242188 22.833984375 166.639648438 22.833984375 c 4
 145.153320312 22.833984375 124.875976562 25.2109375 107.016601562 34.08203125 c 5
 105.916992188 31.494140625 105.368164062 31.810546875 105.368164062 29.751953125 c 4
 105.368164062 26.6884765625 107.072265625 23.7841796875 110.479492188 20.9326171875 c 4
 113.940429688 18.08203125 120.58984375 10.7958984375 130.53515625 9.52734375 c 4
 136.306640625 8.8408203125 150.814453125 8.2080078125 174.002929688 7.6796875 c 4
 216.646484375 6.78125 246.048828125 1.994140625 258.6875 0.4091796875 c 4
 277.920898438 -1.9130859375 293.318359375 -10.5595703125 304.79296875 -24.177734375 c 4
 314.596679688 -35.8125 322.046875 -51.740234375 322.046875 -66.314453125 c 4
 322.046875 -86.43359375 310.177734375 -130.803710938 288.251953125 -148.440429688 c 4
 255.939453125 -174.418945312 203.28515625 -174.208984375 151.299804688 -174.208984375 c 4
 111.349609375 -174.208984375 77.6083984375 -169.086914062 50.076171875 -153.616210938 c 4
 34.5244140625 -144.692382812 19.7373046875 -120.4921875 19.7373046875 -110.880859375 c 4
 19.7373046875 -106.604492188 20.5048828125 -102.884765625 20.5048828125 -98.05078125 c 4
 20.5048828125 -98.05078125 21.3984375 -82.7197265625 36.9853515625 -59.978515625 c 4
 38.19140625 -58.21875 47.205078125 -48.78515625 66.8779296875 -31.1474609375 c 5
 32.8076171875 -17.68359375 27.6572265625 27.9033203125 27.6572265625 27.9033203125 c 5
 47.4951171875 27.427734375 58.0927734375 42.0537109375 71.28125 50.291015625 c 5
 51.318359375 57.2001953125 27.6572265625 89.759765625 27.6572265625 145.337890625 c 4
 27.6572265625 256.080078125 85.9072265625 294.189453125 157.83984375 294.189453125 c 4
 184.6015625 294.189453125 209.49609375 286.427734375 230.158203125 273.12109375 c 5
 313.301757812 294.03125 l 5
 328.743164062 286.321289062 l 5xf4
122.688476562 -52.6728515625 m 5
 112.9609375 -61.755859375 113.57421875 -61.298828125 108.572265625 -69.1669921875 c 4
 103.572265625 -77.033203125 100.21875 -73.6552734375 100.21875 -80.2548828125 c 4
 100.21875 -88.8095703125 98.2802734375 -94.2041015625 109.3984375 -102.080078125 c 4
 123.43359375 -112.0234375 131.89453125 -114.82421875 171.021484375 -114.82421875 c 4
 208.279296875 -114.82421875 216.5546875 -113.21875 225.290039062 -107.5546875 c 4
 240.518554688 -97.6796875 244.791992188 -89.4951171875 244.791992188 -76.6640625 c 4xf4
 244.791992188 -73.919921875 239.516601562 -69.623046875 228.965820312 -65.7158203125 c 4
 218.194335938 -61.8076171875 210.598632812 -59.83984375 191.401367188 -58.798828125 c 4
 144.913085938 -56.2763671875 147.747070312 -55.6826171875 122.688476562 -52.6728515625 c 5
50.3525390625 194.709960938 m 5
 50.3525390625 194.709960938 53.650390625 205.639648438 65.9599609375 207.857421875 c 5
 57.9912109375 207.857421875 l 5
 53.1552734375 203.52734375 l 5
 49.693359375 203.844726562 l 5
 47.60546875 200.201171875 l 5
 42.0556640625 199.884765625 l 5
 50.3525390625 194.709960938 l 5
157.89453125 83.7666015625 m 4
 203.560546875 83.7666015625 220.086914062 124.080078125 220.086914062 146.182617188 c 4xf8
 220.086914062 179.51953125 203.55859375 223.5234375 159.048828125 223.5234375 c 4
 114.678710938 223.5234375 98.01171875 179.51953125 98.01171875 145.286132812 c 4
 98.01171875 114.400390625 104.118164062 107.360351562 118.877929688 95.1201171875 c 5
 119.921875 94.75 l 6
 119.868164062 94.697265625 119.813476562 94.64453125 119.703125 94.591796875 c 5
 130.693359375 87.568359375 143.607421875 83.7666015625 157.89453125 83.7666015625 c 4
EndSplineSet
Validated: 33
EndChar

StartChar: h
Encoding: 104 104 77
Width: 317
VWidth: 0
Flags: W
HStem: 0.219727 23.6025<114.181 124.523 298.23 311.51> 198.907 90.7773<113.63 206.246>
VStem: 28.4863 74.5732<89.3477 157.575 262.948 340.78 358.291 430.1> 216.188 79.668<47.8916 145.895>
LayerCount: 2
Fore
SplineSet
295.85546875 47.8916015625 m 1
 295.85546875 47.8916015625 296.96875 23.3271484375 311.509765625 23.388671875 c 1
 311.509765625 0.2822265625 l 1
 200.904296875 0.2822265625 l 1
 200.904296875 23.5126953125 l 1
 200.904296875 23.5126953125 215.4453125 23.63671875 216.1875 48.2001953125 c 2
 216.1875 61.8134765625 l 1
 216.1875 145.89453125 l 1
 216.1875 145.89453125 217.711914062 198.907226562 160.513671875 198.907226562 c 0
 108.592773438 198.907226562 106.517578125 157.575195312 106.517578125 157.575195312 c 1
 106.517578125 89.34765625 l 1
 106.517578125 89.34765625 107.754882812 23.822265625 124.5234375 23.822265625 c 1
 124.5234375 0.2197265625 l 1
 11.0380859375 0.2197265625 l 1
 11.0380859375 23.3271484375 l 1
 11.0380859375 23.3271484375 27.6201171875 31.6181640625 28.486328125 90.08984375 c 2
 28.486328125 113.774414062 l 1
 28.486328125 430.099609375 l 1
 28.486328125 430.099609375 27.083984375 456.733398438 6.169921875 465.272460938 c 1
 101.63671875 486.248046875 l 1
 119.889648438 486.309570312 l 1
 119.889648438 486.309570312 103.678710938 461.965820312 103.678710938 434.98828125 c 2
 103.678710938 358.291015625 l 1
 99.0380859375 354.639648438 l 1
 98.54296875 351.237304688 l 1
 93.4072265625 351.237304688 l 1
 92.169921875 348.76171875 l 1
 91.921875 345.977539062 l 1
 89.9423828125 347.524414062 l 1
 90.189453125 342.9453125 l 1
 93.654296875 342.9453125 l 1
 96.376953125 340.780273438 l 1
 99.34765625 345.049804688 l 1
 103.059570312 347.21484375 l 1
 103.059570312 262.948242188 l 1
 113.872070312 275.440429688 140.272460938 289.684570312 166.956054688 289.684570312 c 0
 247.6328125 289.684570312 295.600585938 235.829101562 295.731445312 188.010742188 c 2
 295.85546875 142.594726562 l 1
 295.85546875 47.8916015625 l 1
EndSplineSet
Validated: 33
EndChar

StartChar: e
Encoding: 101 101 78
Width: 295
VWidth: 0
Flags: W
HStem: -0.106445 21G<169.365 210.915> 131.068 53.2061<94.4004 209.014>
VStem: 18.4248 74.7998<86.7834 131.068>
LayerCount: 2
Fore
SplineSet
160.627929688 69.2900390625 m 5
 160.627929688 69.2900390625 234.080078125 66 254.952148438 97.11328125 c 5
 281.33203125 100.88671875 l 5
 282.211914062 46.2587890625 l 5
 282.211914062 46.2587890625 252.463867188 2.2451171875 169.365234375 -0.1064453125 c 5
 169.365234375 -0.1064453125 21.1201171875 -6.16015625 18.4248046875 132.189453125 c 5
 18.4248046875 132.189453125 18.36328125 133.673828125 18.4873046875 136.2109375 c 5
 19.4150390625 136.2109375 l 5
 21.8896484375 135.530273438 l 5
 23.74609375 137.201171875 l 5
 26.5927734375 138.19140625 l 5
 27.1494140625 143.326171875 l 5
 23.560546875 141.59375 l 5
 23.189453125 140.046875 l 5
 19.2294921875 140.046875 l 5
 18.30078125 138.93359375 l 5
 18.115234375 137.633789062 l 5
 16.630859375 138.314453125 l 5
 16.75390625 137.015625 l 5
 3.2041015625 138.624023438 10.2333984375 154.879882812 0.9833984375 170.09765625 c 5
 19.4765625 177.501953125 l 5
 23.6845703125 215.864257812 62.87890625 297.051757812 173.634765625 292.967773438 c 5
 173.634765625 292.967773438 242.612304688 291.791992188 263.40234375 247.427734375 c 4
 276.952148438 218.532226562 287.657226562 237.15625 287.657226562 237.15625 c 5
 285.924804688 217.727539062 280.231445312 206.28125 280.231445312 206.28125 c 5
 265.567382812 146.166015625 l 5
 254.677734375 132.120117188 209.013671875 133.9765625 209.013671875 133.9765625 c 5
 117.8515625 131.068359375 l 5
 93.3486328125 131.068359375 l 5
 93.287109375 128.408203125 93.224609375 125.80859375 93.224609375 123.024414062 c 4
 93.224609375 73.919921875 160.627929688 69.2900390625 160.627929688 69.2900390625 c 5
164.834960938 231.409179688 m 5
 164.834960938 231.409179688 94.400390625 231.440429688 94.400390625 184.274414062 c 5
 131.079101562 184.274414062 l 6
 165.852539062 186.25390625 221.450195312 199.309570312 221.450195312 199.309570312 c 5
 221.450195312 231.440429688 164.834960938 231.409179688 164.834960938 231.409179688 c 5
EndSplineSet
Validated: 33
EndChar

StartChar: f
Encoding: 102 102 79
Width: 321
VWidth: 0
Flags: W
HStem: 0.219727 21G<56.1445 183.555> 219.484 63.8623<203.022 232.413> 219.484 48.6406<46.7461 82.084> 413.6 75.2881<183.868 231.704>
VStem: 82.084 86.8447<89.8428 218.185 269.425 323.984> 290.912 28.7998<357.617 393.459>
LayerCount: 2
Fore
SplineSet
231.704101562 413.599609375 m 5xbc
 156.639648438 413.599609375 168.8671875 323.984375 168.8671875 323.984375 c 2
 168.8671875 269.424804688 l 1
 192.255859375 274.126953125 203.022460938 283.346679688 203.022460938 283.346679688 c 1
 278.34375 278.080078125 292.465820312 293.569335938 292.465820312 293.569335938 c 1
 313.592773438 282.727539062 l 1
 296.453125 260.700195312 l 2
 263.734375 218.650390625 232.413085938 219.484375 232.413085938 219.484375 c 1xdc
 168.928710938 218.7421875 l 1
 168.928710938 89.8427734375 l 1
 168.928710938 89.8427734375 170.104492188 30.9375 186.625 30.9375 c 1
 177.825195312 0.2197265625 l 1
 56.14453125 0.2197265625 l 1
 64.9443359375 31.37109375 l 1
 64.9443359375 31.37109375 81.2177734375 31.6796875 82.083984375 90.5849609375 c 2
 82.083984375 123.254882812 l 1
 82.083984375 218.184570312 l 1
 24.623046875 219.484375 l 1
 25.6748046875 244.818359375 l 1
 46.74609375 268.125 l 1
 82.1455078125 267.258789062 l 1
 82.1455078125 341.522460938 l 2
 82.1455078125 449.061523438 145.463867188 488.887695312 215.520507812 488.887695312 c 0
 279.223632812 488.887695312 311.193359375 456.190429688 311.193359375 456.190429688 c 1
 330.017578125 459.786132812 l 1
 319.711914062 357.603515625 l 1
 290.912109375 357.6171875 l 1
 290.912109375 409.200195312 231.704101562 413.599609375 231.704101562 413.599609375 c 5xbc
EndSplineSet
Validated: 33
EndChar

StartChar: i
Encoding: 105 105 80
Width: 142
VWidth: 0
Flags: W
HStem: 0.18457 16.3018<113.935 122.666>
VStem: 29.5137 79.5947<50.0117 190.903 200.926 263.692 350.302 392.419>
LayerCount: 2
Fore
SplineSet
23.6220703125 350.301757812 m 1
 23.6220703125 392.418945312 l 1
 68.8857421875 422.275390625 l 1
 114.1484375 392.418945312 l 1
 114.1484375 350.301757812 l 1
 68.8857421875 320.444335938 l 1
 23.6220703125 350.301757812 l 1
109.108398438 50.01171875 m 5
 109.108398438 50.01171875 110.059570312 16.486328125 122.666015625 16.486328125 c 5
 122.666015625 0.1845703125 l 5
 16.3740234375 0.1845703125 l 5
 16.3740234375 16.720703125 l 5
 16.3740234375 16.720703125 28.859375 16.8974609375 29.513671875 50.4208984375 c 6
 29.513671875 69.060546875 l 5
 29.513671875 263.692382812 l 5
 29.513671875 263.692382812 29.5234375 272.799804688 18.22265625 274.801757812 c 5
 108.15625 285.7890625 l 5
 121.892578125 285.84765625 l 5
 121.892578125 285.84765625 109.703125 281.978515625 109.703125 266.505859375 c 6
 109.703125 200.92578125 l 5
 106.194335938 198.81640625 l 5
 103.303710938 196.881835938 l 5
 101.973632812 196.881835938 l 5
 101.022460938 195.475585938 l 5
 99.0830078125 193.892578125 l 1
 97.5966796875 194.772460938 l 5
 97.775390625 192.134765625 l 5
 102.090820312 192.134765625 l 5
 104.114257812 190.903320312 l 5
 106.314453125 193.364257812 l 5
 109.108398438 194.595703125 l 5
 109.108398438 50.01171875 l 5
EndSplineSet
Validated: 1
EndChar

StartChar: k
Encoding: 107 107 81
Width: 356
VWidth: 0
Flags: W
HStem: 0.219727 30.6562<115.684 127.463 313.762 347.16> 283.16 23.0459<310.461 333.438>
VStem: 28.6348 81.1318<89.3477 332.86 350.371 421.3>
LayerCount: 2
Fore
SplineSet
109.766601562 89.34765625 m 1
 109.766601562 89.34765625 111.00390625 30.8759765625 127.462890625 30.8759765625 c 1
 127.462890625 0.2197265625 l 1
 11.619140625 0.2197265625 l 1
 11.619140625 31.30859375 l 1
 11.619140625 31.30859375 27.7685546875 31.6181640625 28.634765625 90.08984375 c 2
 28.634765625 113.774414062 l 1
 28.634765625 421.299804688 l 1
 28.634765625 421.299804688 28.4248046875 452.3203125 9.240234375 465.272460938 c 1
 108.528320312 486.248046875 l 1
 120.188476562 486.309570312 l 1
 120.188476562 486.309570312 110.508789062 479.565429688 110.508789062 452.587890625 c 2
 110.508789062 350.37109375 l 1
 105.9296875 346.719726562 l 1
 105.434570312 343.31640625 l 1
 100.422851562 343.31640625 l 1
 99.2470703125 340.841796875 l 1
 99 338.057617188 l 1
 97.08203125 339.604492188 l 1
 97.3291015625 335.025390625 l 1
 100.670898438 335.025390625 l 1
 103.331054688 332.860351562 l 1
 106.177734375 337.12890625 l 1
 109.766601562 339.294921875 l 1
 109.766601562 89.34765625 l 1
296.85546875 64.3994140625 m 2
 329.896484375 23.0673828125 347.09765625 25.7900390625 347.16015625 25.7900390625 c 2
 347.16015625 -0.2255859375 l 1
 239.627929688 -0.2255859375 l 1
 213.228515625 27.7080078125 l 1
 218.177734375 33.1533203125 211.248046875 42.125 211.248046875 42.125 c 1
 172.266601562 86.005859375 l 1
 172.266601562 91.1416015625 l 1
 193.056640625 91.1416015625 l 1
 197.016601562 93.3076171875 l 1
 189.40625 96.0302734375 l 1
 187.735351562 97.1435546875 l 1
 185.075195312 94.978515625 l 1
 185.075195312 94.978515625 176.474609375 96.33984375 175.484375 96.33984375 c 0
 174.494140625 96.33984375 175.484375 99.3095703125 175.484375 99.3095703125 c 1
 163.9140625 100.422851562 l 1
 123.811523438 157.258789062 l 1
 201.575195312 257.358398438 l 2
 219.518554688 274.74609375 201.575195312 283.16015625 201.575195312 283.16015625 c 1
 201.575195312 306.206054688 l 1
 333.4375 306.206054688 l 1
 333.747070312 283.16015625 l 1
 319.701171875 279.819335938 304.465820312 267.3828125 304.465820312 267.3828125 c 1
 219.903320312 157.258789062 l 1
 247.314453125 122.793945312 264.0546875 124.403320312 264.0546875 124.403320312 c 1
 296.85546875 64.3994140625 l 2
203.081054688 91.0185546875 m 1
 214.7265625 92.0703125 l 1
 204.255859375 93.18359375 l 1
 203.081054688 95.90625 l 1
 198.934570312 93.18359375 l 1
 203.081054688 91.0185546875 l 1
EndSplineSet
Validated: 33
EndChar

StartChar: l
Encoding: 108 108 82
Width: 161
VWidth: 0
Flags: W
HStem: 0.219727 30.6562<126.73 138.509>
VStem: 37.041 83.7715<89.3477 332.86 350.371 421.3>
LayerCount: 2
Fore
SplineSet
120.8125 89.34765625 m 1
 120.8125 89.34765625 122.049804688 30.8759765625 138.508789062 30.8759765625 c 1
 138.508789062 0.2197265625 l 1
 20.025390625 0.2197265625 l 1
 20.025390625 31.30859375 l 1
 20.025390625 31.30859375 36.1748046875 31.6181640625 37.041015625 90.08984375 c 2
 37.041015625 122.57421875 l 1
 37.041015625 421.299804688 l 1
 37.041015625 421.299804688 33.4404296875 449.6796875 22.53125 465.272460938 c 1
 119.575195312 486.248046875 l 1
 137.395507812 486.309570312 l 1
 137.395507812 486.309570312 121.5546875 470.765625 121.5546875 443.788085938 c 2
 121.5546875 350.37109375 l 1
 116.9765625 346.719726562 l 1
 116.481445312 343.31640625 l 1
 111.469726562 343.31640625 l 1
 110.293945312 340.841796875 l 1
 110.046875 338.057617188 l 1
 108.127929688 339.604492188 l 1
 108.375976562 335.025390625 l 1
 111.716796875 335.025390625 l 1
 114.377929688 332.860351562 l 1
 117.223632812 337.12890625 l 1
 120.8125 339.294921875 l 1
 120.8125 89.34765625 l 1
EndSplineSet
Validated: 1
EndChar

StartChar: m
Encoding: 109 109 83
Width: 520
VWidth: 0
Flags: W
HStem: -0.0419922 23.292<130.857 144.457 309.367 322.863 482.846 496.396> 214.891 73.5977<135.75 210.594 312.929 393.278>
VStem: 38.5967 87.1123<61.9844 138.008> 221.361 85.1055<48.8047 136.522> 403.693 76.2432<48.8047 136.461>
LayerCount: 2
Fore
SplineSet
479.936523438 48.8046875 m 5
 479.936523438 48.8046875 481.05078125 23.25 496.395507812 23.25 c 5
 496.395507812 -0.0419921875 l 5
 387.791015625 -0.0419921875 l 5
 387.791015625 23.435546875 l 5
 387.791015625 23.435546875 402.888671875 23.5595703125 403.693359375 49.1142578125 c 6
 403.693359375 63.283203125 l 5
 403.693359375 136.4609375 l 5
 403.693359375 136.4609375 412.016601562 214.829101562 354.220703125 214.829101562 c 4
 295.856445312 214.829101562 306.528320312 153.91015625 306.28125 141.040039062 c 4
 306.28125 139.493164062 306.342773438 137.946289062 306.342773438 136.399414062 c 6
 306.466796875 103.20703125 l 5
 306.466796875 48.8046875 l 5
 306.466796875 48.8046875 307.581054688 23.25 322.86328125 23.25 c 5
 322.86328125 -0.0419921875 l 5
 205.458984375 -0.0419921875 l 5
 205.458984375 23.435546875 l 5
 205.458984375 23.435546875 220.556640625 23.5595703125 221.361328125 49.1142578125 c 6
 221.361328125 63.283203125 l 5
 221.361328125 136.522460938 l 5
 221.361328125 136.522460938 229.856445312 214.890625 171.888671875 214.890625 c 4
 118.9765625 214.890625 125.771484375 137.822265625 125.771484375 137.822265625 c 5
 125.708984375 138.0078125 l 5
 125.708984375 61.984375 l 5
 125.708984375 61.984375 127.008789062 21.2705078125 144.45703125 21.2705078125 c 5
 144.45703125 -0.0419921875 l 5
 20.466796875 -0.0419921875 l 5
 20.466796875 20.9609375 l 5
 20.466796875 20.9609375 37.66796875 26.0966796875 38.5966796875 62.4169921875 c 6
 38.5966796875 82.5888671875 l 5
 38.5966796875 247.918945312 l 5
 38.5966796875 247.918945312 36.080078125 278.080078125 24.564453125 285.208984375 c 5
 80.34765625 298.202148438 l 5
 136.303710938 298.263671875 l 5
 136.303710938 298.263671875 126.452148438 294.056640625 126.452148438 277.288085938 c 6
 126.452148438 264.569335938 l 5
 129.536132812 274.559570312 140.813476562 288.48828125 173.360351562 288.48828125 c 4
 197.305664062 288.48828125 252.353515625 287.59375 274.319335938 244.28125 c 5
 286.508789062 273.610351562 323.592773438 288.48828125 364.4296875 288.48828125 c 4
 395.181640625 288.48828125 479.813476562 276.85546875 479.813476562 191.838867188 c 6
 479.936523438 144.56640625 l 5
 479.936523438 48.8046875 l 5
118.779296875 147.537109375 m 5
 120.016601562 148.711914062 l 5
 117.232421875 154.033203125 l 5
 115.685546875 154.033203125 l 5
 114.38671875 170.086914062 l 5
 114.138671875 168.354492188 l 5
 112.096679688 169.282226562 l 5
 112.344726562 166.435546875 l 5
 115.93359375 148.8359375 l 5
 118.779296875 147.537109375 l 5
EndSplineSet
Validated: 33
EndChar

StartChar: n
Encoding: 110 110 84
Width: 359
VWidth: 0
Flags: W
HStem: -0.0419922 23.3447<125.899 139.144 326.044 339.487> 217.531 70.957<135.956 224.598>
VStem: 37.6816 82.7129<61.9844 134.488> 238.047 85.1055<48.8047 141.803>
LayerCount: 2
Fore
SplineSet
323.15234375 48.8046875 m 1
 323.15234375 48.8046875 324.266601562 23.25 339.487304688 23.3125 c 1
 339.487304688 0.01953125 l 1
 222.14453125 0.01953125 l 1
 222.14453125 5.8974609375 l 1
 222.14453125 5.8974609375 237.2421875 23.6220703125 238.046875 49.17578125 c 2
 238.046875 63.345703125 l 1
 238.046875 141.802734375 l 1
 238.046875 141.802734375 246.599609375 217.53125 179.774414062 217.53125 c 0
 115.361328125 217.53125 120.45703125 134.302734375 120.45703125 134.302734375 c 1
 120.39453125 134.48828125 l 1
 120.39453125 61.984375 l 1
 120.39453125 61.984375 121.694335938 23.302734375 139.143554688 23.302734375 c 1
 139.143554688 -0.0419921875 l 1
 19.552734375 -0.0419921875 l 1
 19.552734375 22.6689453125 l 1
 19.552734375 22.6689453125 37.681640625 26.0966796875 37.681640625 62.4169921875 c 2
 37.681640625 73.7880859375 l 1
 37.681640625 247.856445312 l 1
 37.681640625 247.856445312 37.0419921875 276.3203125 23.587890625 285.208984375 c 1
 114.572265625 298.202148438 l 1
 133.567382812 298.263671875 l 1
 133.567382812 298.263671875 117.6171875 294.056640625 117.6171875 277.288085938 c 2
 117.6171875 267.209960938 l 1
 135.375976562 287.443359375 157.499023438 288.48828125 190.045898438 288.48828125 c 0
 275.521484375 288.48828125 322.897460938 242 323.028320312 191.838867188 c 2
 323.15234375 144.56640625 l 1
 323.15234375 48.8046875 l 1
113.52734375 144.016601562 m 1
 114.764648438 145.25390625 l 1
 111.98046875 150.575195312 l 1
 110.43359375 150.575195312 l 1
 109.133789062 149.028320312 l 1
 108.88671875 147.295898438 l 1
 106.844726562 148.224609375 l 1
 107.091796875 145.377929688 l 1
 110.7421875 145.377929688 l 1
 113.52734375 144.016601562 l 1
EndSplineSet
Validated: 33
EndChar

StartChar: o
Encoding: 111 111 85
Width: 343
VWidth: 0
Flags: W
HStem: 0.158203 64.7969<122.664 222.935> 229.268 62.8164<126.754 220.275>
VStem: 16.8369 84.6104<86.1873 204.331> 243.409 82.9541<85.8996 205.581>
LayerCount: 2
Fore
SplineSet
171.599609375 292.083984375 m 4
 252.22265625 292.083984375 326.36328125 240.240234375 326.36328125 146.12109375 c 4
 326.36328125 42.240234375 252.22265625 0.158203125 171.599609375 0.158203125 c 4
 90.9765625 0.158203125 16.8369140625 52.7998046875 16.8369140625 146.12109375 c 4
 16.8369140625 238.48046875 90.9765625 292.083984375 171.599609375 292.083984375 c 4
172.404296875 64.955078125 m 4
 215.776367188 64.955078125 243.409179688 98.5595703125 243.409179688 147.111328125 c 4
 243.409179688 194.48046875 211.375976562 229.267578125 171.599609375 229.267578125 c 4
 133.936523438 229.267578125 101.447265625 190.080078125 101.447265625 146.12109375 c 4
 101.447265625 102.080078125 125.135742188 64.955078125 172.404296875 64.955078125 c 4
EndSplineSet
Validated: 1
EndChar

StartChar: p
Encoding: 112 112 86
Width: 344
VWidth: 0
Flags: W
HStem: 0.259766 71.7402<125.197 231.066> 218.534 69.7539<121.243 223.259>
VStem: 30.5146 74.3115<-104.359 -53.2441 -34.5576 25.0576 91.7762 203.096> 244.967 73.9609<84.3312 197.077>
LayerCount: 2
Fore
SplineSet
185.821289062 288.288085938 m 0
 264.263671875 288.288085938 318.866210938 235.694335938 318.927734375 139.911132812 c 0
 318.927734375 52.5439453125 255.463867188 0 174.126953125 0.259765625 c 0
 150.180664062 0.3359375 125.719726562 3.7109375 103.444335938 25.0576171875 c 1
 103.444335938 -41.42578125 l 1
 99.9794921875 -39.13671875 l 1
 97.2568359375 -34.5576171875 l 1
 94.720703125 -36.84765625 l 1
 91.5029296875 -36.84765625 l 1
 91.2548828125 -41.7978515625 l 1
 93.111328125 -40.126953125 l 1
 93.359375 -43.0966796875 l 1
 94.53515625 -45.6953125 l 1
 99.361328125 -45.6953125 l 1
 99.7939453125 -49.2841796875 l 1
 104.125 -53.244140625 l 1
 104.125 -109.556640625 l 2
 104.125 -138.373046875 119.22265625 -172.091796875 119.22265625 -172.091796875 c 1
 102.20703125 -172.029296875 l 1
 14.2412109375 -149.569335938 l 1
 30.267578125 -137.0703125 30.5146484375 -104.359375 30.5146484375 -104.359375 c 1
 30.5146484375 202.453125 l 1
 30.5146484375 237.721679688 l 1
 30.5146484375 237.721679688 30.638671875 237.784179688 30.76171875 237.969726562 c 2
 30.205078125 237.721679688 l 1
 30.205078125 237.721679688 27.7919921875 260.69140625 16.83984375 258.7734375 c 1
 11.9521484375 262.547851562 l 1
 62.0087890625 290.88671875 l 1
 100.969726562 290.88671875 l 1
 100.969726562 274.427734375 l 1
 120.83203125 282.100585938 145.602539062 288.288085938 182.293945312 288.288085938 c 1
 182.293945312 288.225585938 l 2
 183.469726562 288.288085938 184.645507812 288.288085938 185.821289062 288.288085938 c 0
181.056640625 72 m 0
 222.904296875 72 244.966796875 95.0400390625 244.966796875 139.911132812 c 0
 244.966796875 198.879882812 200.0234375 218.534179688 174.3671875 218.534179688 c 0
 140.18359375 218.534179688 104.826171875 203.280273438 104.826171875 140.791015625 c 0
 104.826171875 108.240234375 130.50390625 72 181.056640625 72 c 0
EndSplineSet
Validated: 33
EndChar

StartChar: q
Encoding: 113 113 87
Width: 335
VWidth: 0
Flags: W
HStem: -173.017 21G<270.284 303.016> 0.196289 76.0781<104.067 218.929> 217.604 69.6299<110.03 212.138>
VStem: 18.7344 70.1318<90.7227 196.325> 232.732 73.4248<-91.4512 -55.5605 -36.9355 22.292 89.6025 198.21>
LayerCount: 2
Fore
SplineSet
374.405273438 -81.0283203125 m 1
 376.385742188 -81.400390625 l 1
 372.36328125 -93.8984375 l 2
 366.108398438 -113.337890625 345.32421875 -132.680664062 345.32421875 -132.680664062 c 1
 303.015625 -165.956054688 l 1
 270.345703125 -173.016601562 l 1
 270.284179688 -172.892578125 l 1
 269.7890625 -173.078125 l 1
 226.434570312 -173.139648438 l 1
 226.434570312 -173.139648438 232.732421875 -150.940429688 232.732421875 -122.168945312 c 2
 232.732421875 -55.560546875 l 1
 237.063476562 -51.662109375 l 1
 237.497070312 -48.0732421875 l 1
 242.323242188 -48.0732421875 l 1
 243.436523438 -45.474609375 l 1
 243.684570312 -42.5048828125 l 1
 245.541015625 -44.11328125 l 1
 245.29296875 -39.2255859375 l 1
 242.075195312 -39.2255859375 l 1
 239.5390625 -36.935546875 l 1
 236.81640625 -41.5146484375 l 1
 233.413085938 -43.8037109375 l 1
 233.413085938 22.2919921875 l 1
 214.719726562 6.16015625 186.862304688 0.24609375 163.041015625 0.1962890625 c 0
 68.6396484375 0 18.734375 52.294921875 18.734375 139.415039062 c 0
 18.734375 234.826171875 73.0400390625 287.234375 151.346679688 287.234375 c 0
 152.459960938 287.234375 153.635742188 287.171875 154.811523438 287.171875 c 2
 154.811523438 287.234375 l 1
 223.51953125 287.234375 235.826171875 264.635742188 235.826171875 264.635742188 c 1
 235.826171875 289.89453125 l 1
 257.125 289.89453125 l 1
 315.858398438 261.618164062 l 1
 310.969726562 257.84375 l 1
 306.240234375 253.440429688 306.466796875 236.854492188 306.466796875 236.854492188 c 1
 305.91015625 237.1015625 l 2
 306.095703125 236.977539062 306.157226562 236.854492188 306.157226562 236.854492188 c 1
 306.157226562 201.708984375 l 1
 306.157226562 -91.451171875 l 1
 306.157226562 -91.451171875 306.28125 -95.349609375 314.077148438 -103.021484375 c 1
 322.740234375 -97.5771484375 325.709960938 -92.44140625 325.709960938 -92.44140625 c 1
 375.209960938 -79.32421875 374.405273438 -81.0283203125 374.405273438 -81.0283203125 c 1
156.048828125 76.2744140625 m 0
 205.040039062 76.2744140625 231.151367188 92.400390625 231.151367188 142.0546875 c 0
 231.151367188 203.280273438 186.559570312 217.604492188 163.618164062 217.604492188 c 0
 116.16015625 217.604492188 88.8662109375 183.919921875 88.8662109375 142.934570312 c 0
 88.8662109375 95.0400390625 119.6796875 76.2744140625 156.048828125 76.2744140625 c 0
EndSplineSet
Validated: 33
EndChar

StartChar: r
Encoding: 114 114 88
Width: 289
VWidth: 0
Flags: W
HStem: -0.0117188 25.5195<114.886 128.279> 219.871 65.6426<116.725 166.999>
VStem: 34.002 76.2715<60.9004 164.122 174.702 212.059> 222.59 45.1689<191.687 209.258>
LayerCount: 2
Fore
SplineSet
236.7109375 264.606445312 m 1
 236.7109375 264.606445312 269.971679688 238.8671875 268.6875 211.868164062 c 2
 268.6875 211.868164062 268.6875 198.9296875 267.758789062 196.764648438 c 0
 266.831054688 194.598632812 222.58984375 166.665039062 222.58984375 166.665039062 c 1
 214.719726562 225.280273438 166.999023438 219.87109375 166.999023438 219.87109375 c 1
 125.233398438 219.87109375 116.83203125 198.6484375 110.891601562 188.12890625 c 1
 110.891601562 174.702148438 l 1
 106.250976562 172.474609375 l 1
 105.756835938 170.432617188 l 1
 100.62109375 170.432617188 l 1
 99.3828125 168.948242188 l 1
 99.1357421875 167.27734375 l 1
 97.15625 168.205078125 l 1
 97.4033203125 165.420898438 l 1
 100.868164062 165.420898438 l 1
 103.590820312 164.122070312 l 1
 106.560546875 166.720703125 l 1
 110.2734375 168.01953125 l 1
 110.2734375 60.900390625 l 1
 110.2734375 60.900390625 111.510742188 25.5078125 128.279296875 25.5078125 c 1
 128.279296875 -0.01171875 l 1
 16.5537109375 -0.01171875 l 1
 16.5537109375 25.755859375 l 1
 16.5537109375 25.755859375 33.1357421875 25.87890625 34.001953125 61.271484375 c 2
 34.001953125 80.8857421875 l 1
 34.001953125 261.705078125 l 1
 34.001953125 261.705078125 32.2919921875 276.012695312 11.4404296875 281.1484375 c 1
 88.671875 293.770507812 l 1
 127.165039062 293.83203125 l 1
 127.165039062 293.83203125 110.954101562 287.98828125 110.954101562 271.653320312 c 2
 110.954101562 267.686523438 l 1
 126.732421875 285.4453125 157.627929688 285.513671875 183.86328125 285.513671875 c 0
 212.202148438 285.513671875 236.7109375 264.606445312 236.7109375 264.606445312 c 1
EndSplineSet
Validated: 33
EndChar

StartChar: s
Encoding: 115 115 89
Width: 227
VWidth: 0
Flags: W
HStem: 209.048 66.6055<168.423 195.339> 267.567 20G<49.2622 74.9092>
VStem: 15.4131 197.931
LayerCount: 2
Fore
SplineSet
213.34375 90.193359375 m 5xa0
 213.34375 90.193359375 218.8046875 73.0400390625 192.8359375 36.0595703125 c 5
 192.8359375 36.0595703125 164.9375 -2.193359375 105.846679688 0.4052734375 c 5
 105.846679688 0.4052734375 35.2744140625 0.4404296875 15.4130859375 39.978515625 c 5
 15.4130859375 103.083984375 l 5
 43.27734375 103.083984375 l 5
 43.27734375 103.083984375 48.96484375 73.0400390625 98.4833984375 70.2490234375 c 5
 98.4833984375 70.2490234375 145.866210938 63.3603515625 145.866210938 96.2978515625 c 5
 145.866210938 96.2978515625 147.83984375 117.040039062 83.248046875 126.52734375 c 5
 83.248046875 126.52734375 86.775390625 134.942382812 100.8828125 141.99609375 c 5
 91.9111328125 141.99609375 l 5
 86.404296875 136.922851562 l 5
 82.505859375 137.293945312 l 5
 80.154296875 132.962890625 l 5
 73.9052734375 132.590820312 l 5
 73.9052734375 132.590820312 22.150390625 158.400390625 22.150390625 217.614257812 c 5
 22.150390625 217.614257812 23.615234375 271.108398438 74.9091796875 287.567382812 c 5x60
 74.9091796875 287.567382812 130.741210938 308.94140625 195.338867188 275.653320312 c 5
 195.338867188 209.047851562 l 5
 168.422851562 209.047851562 l 5
 168.422851562 209.047851562 117.919921875 256.959960938 88.564453125 218.240234375 c 5
 88.564453125 218.240234375 75.1005859375 199.84765625 113.807617188 182.490234375 c 6
 113.807617188 182.490234375 127.284179688 176 175.538085938 157.629882812 c 5
 175.538085938 157.629882812 213.34375 143.440429688 213.34375 90.193359375 c 5xa0
EndSplineSet
Validated: 33
EndChar

StartChar: t
Encoding: 116 116 90
Width: 257
VWidth: 0
Flags: W
HStem: -0.166016 31.46<166.281 178.723> 230.848 51.9404<27.9258 81.4619> 232.704 60.2734<168.465 196.749>
VStem: 82.0322 78.0039<93.293 231.219 288.151 290.399> 118.271 42.9551<316.533 351.359>
LayerCount: 2
Fore
SplineSet
246.681640625 294.524414062 m 6x80
 246.434570312 294.709960938 246.186523438 294.771484375 246.186523438 294.771484375 c 5
 246.681640625 294.524414062 l 6x80
246.681640625 294.524414062 m 6
 249.65234375 293.0390625 l 5
 236.348632812 250.482421875 l 5
 226.776367188 234.080078125 196.749023438 232.9375 196.749023438 232.9375 c 5
 160.221679688 232.704101562 l 5xa8
 160.036132812 93.29296875 l 5
 160.036132812 93.29296875 161.3359375 31.2939453125 178.72265625 31.2939453125 c 5
 178.72265625 -0.166015625 l 5
 63.96484375 -0.166015625 l 5
 63.96484375 31.7275390625 l 5
 63.96484375 31.7275390625 81.1044921875 32.037109375 82.0322265625 94.09765625 c 6
 82.0322265625 128.5 l 5
 82.2802734375 231.21875 l 5
 68.419921875 230.84765625 l 5
 8.1884765625 230.84765625 l 5
 8.1884765625 247.333984375 l 5
 27.92578125 282.788085938 l 5
 81.4619140625 282.788085938 l 5xd0
 81.4619140625 290.399414062 l 5
 81.4619140625 290.399414062 118.146484375 344.120117188 118.270507812 376.790039062 c 5
 161.225585938 351.359375 l 5
 161.1640625 288.151367188 l 5
 166.17578125 290.811523438 168.46484375 292.977539062 168.46484375 292.977539062 c 5xa8
 256.204101562 288.274414062 248.78515625 293.287109375 246.681640625 294.524414062 c 6
EndSplineSet
Validated: 37
EndChar

StartChar: u
Encoding: 117 117 91
Width: 316
VWidth: 0
Flags: W
HStem: 0.219727 69.7881<156.712 201.84> 268.503 19.7998G<20.958 113.936 203.943 295.842>
VStem: 31.7246 71.4453<97.5188 249.356> 214.091 70.7373<99.8389 103.428 103.516 249.556>
LayerCount: 2
Fore
SplineSet
203.943359375 288.502929688 m 1
 295.841796875 288.365234375 l 1
 295.841796875 266.000976562 l 1
 295.841796875 266.000976562 284.704101562 261.236328125 285.075195312 243.478515625 c 0
 285.446289062 225.719726562 284.828125 103.427734375 284.828125 103.427734375 c 1
 284.828125 99.8388671875 l 1
 282.10546875 94.8271484375 l 1
 284.828125 93.9609375 l 1
 284.828125 93.9609375 286 0 153.495117188 0.2197265625 c 0
 30.7998046875 0.423828125 31.6630859375 97.42578125 31.6630859375 97.42578125 c 1
 31.6630859375 97.42578125 31.353515625 225.658203125 31.724609375 243.416015625 c 0
 32.095703125 261.174804688 20.9580078125 265.938476562 20.9580078125 265.938476562 c 1
 20.9580078125 288.302734375 l 1
 113.935546875 288.302734375 l 1
 113.935546875 266.8671875 l 1
 102.798828125 262.53515625 103.169921875 249.356445312 103.169921875 249.356445312 c 1
 103.169921875 140.731445312 l 2
 103.169921875 69.451171875 156.711914062 70.0078125 156.711914062 70.0078125 c 1
 203.61328125 70.0078125 211.4921875 105.709960938 214.090820312 126.747070312 c 0
 214.276367188 131.016601562 214.461914062 135.471679688 214.709960938 140.112304688 c 2
 214.524414062 146.609375 l 1
 214.709960938 249.555664062 l 1
 214.709960938 249.555664062 215.081054688 262.735351562 203.943359375 267.06640625 c 1
 203.943359375 288.502929688 l 1
EndSplineSet
Validated: 33
EndChar

StartChar: v
Encoding: 118 118 92
Width: 354
VWidth: 0
Flags: W
HStem: 0.219727 292.298
VStem: 22.2783 310.083
LayerCount: 2
Fore
SplineSet
223.763671875 292.517578125 m 1
 223.763671875 292.456054688 l 1
 332.361328125 292.456054688 l 1
 332.361328125 267.430664062 l 1
 332.361328125 267.430664062 315.716796875 262.666015625 298.083007812 219.724609375 c 2
 279.520507812 177.092773438 l 1
 281.5625 184.084960938 l 1
 279.334960938 183.713867188 l 1
 281.067382812 185.5078125 l 1
 282.67578125 191.138671875 l 1
 282.057617188 189.591796875 l 1
 281.5 188.106445312 l 1
 281.5 188.106445312 279.891601562 187.735351562 278.715820312 187.735351562 c 0
 277.540039062 187.735351562 281.5 189.40625 281.5 189.40625 c 1
 279.458007812 189.40625 l 1
 279.458007812 200.543945312 l 1
 277.6640625 201.719726562 l 1
 281.252929688 189.282226562 275.870117188 182.909179688 275.870117188 182.909179688 c 1
 277.478515625 180.9296875 l 1
 277.478515625 178.94921875 l 1
 279.396484375 177.155273438 l 1
 219.453125 0.2197265625 l 1
 145.533203125 0.2197265625 l 1
 54.14453125 218.116210938 l 1
 54.14453125 218.116210938 33.16796875 261.057617188 22.2783203125 268.606445312 c 1
 22.2783203125 292.579101562 l 1
 136.15625 292.579101562 l 1
 136.09375 268.66796875 l 1
 136.09375 268.66796875 108.126953125 261.3046875 135.290039062 196.70703125 c 2
 180.616210938 93.912109375 l 1
 183.50390625 93.912109375 l 1
 233.107421875 221.890625 l 1
 233.107421875 221.890625 249.008789062 259.634765625 223.640625 267.987304688 c 1
 223.763671875 292.517578125 l 1
EndSplineSet
Validated: 37
EndChar

StartChar: w
Encoding: 119 119 93
Width: 454
VWidth: 0
Flags: W
HStem: 0.158203 21G<102.289 175.227 281.852 351.066> 224.73 15.7295<172.576 182.035 273.623 282.198>
VStem: 172.452 109.87<178.536 240.46>
LayerCount: 2
Fore
SplineSet
330.983398438 293.259765625 m 1
 429.866210938 293.259765625 l 1
 429.866210938 278.086914062 l 1
 420.956054688 270.4765625 403.87890625 227.47265625 403.87890625 227.47265625 c 1
 345.970703125 0.158203125 l 1
 291.07421875 0.158203125 l 1
 245.78125 98.3876953125 l 1
 247.328125 100.182617188 l 1
 247.328125 102.162109375 l 1
 248.627929688 104.142578125 l 1
 248.627929688 104.142578125 244.234375 110.577148438 247.204101562 123.014648438 c 1
 245.78125 121.838867188 l 1
 245.78125 110.701171875 l 1
 244.110351562 110.701171875 l 1
 244.110351562 110.701171875 247.328125 109.030273438 246.400390625 109.030273438 c 0
 245.41015625 109.030273438 244.110351562 109.40234375 244.110351562 109.40234375 c 1
 243.677734375 110.88671875 l 1
 243.182617188 112.43359375 l 1
 244.481445312 106.802734375 l 1
 245.905273438 105.008789062 l 1
 244.110351562 105.379882812 l 1
 245.78125 98.326171875 l 1
 229.240234375 130.19140625 l 1
 212.69921875 98.326171875 l 1
 214.369140625 105.379882812 l 1
 212.575195312 105.008789062 l 1
 213.998046875 106.802734375 l 1
 215.297851562 112.43359375 l 1
 214.802734375 110.88671875 l 1
 214.369140625 109.40234375 l 1
 214.369140625 109.40234375 213.0078125 109.030273438 212.080078125 109.030273438 c 0
 211.15234375 109.030273438 214.369140625 110.701171875 214.369140625 110.701171875 c 1
 212.69921875 110.701171875 l 1
 212.69921875 121.838867188 l 1
 211.275390625 123.014648438 l 1
 214.24609375 110.577148438 209.852539062 104.142578125 209.852539062 104.142578125 c 1
 211.15234375 102.162109375 l 1
 211.15234375 100.182617188 l 1
 212.69921875 98.3876953125 l 1
 165.646484375 0.158203125 l 1
 107.229492188 0.158203125 l 1
 51.0810546875 227.47265625 l 1
 51.0810546875 227.47265625 40.919921875 266.639648438 25.09375 278.086914062 c 1
 25.09375 293.259765625 l 1
 123.791015625 293.259765625 l 1
 123.729492188 278.1484375 l 1
 123.729492188 278.1484375 100.958984375 270.78515625 123.110351562 206.002929688 c 2
 147.791992188 111.698242188 l 1
 154.474609375 111.698242188 l 1
 180.186523438 178.509765625 l 1
 180.186523438 178.509765625 197.836914062 214.719726562 172.452148438 224.73046875 c 1
 172.576171875 240.459960938 l 1
 174.432617188 240.459960938 l 1
 280.341796875 240.459960938 l 1
 282.198242188 240.459960938 l 1
 282.322265625 224.73046875 l 1
 259.436523438 213.83984375 274.587890625 178.509765625 274.587890625 178.509765625 c 1
 300.362304688 111.698242188 l 1
 307.043945312 111.698242188 l 1
 331.6640625 206.002929688 l 2
 353.876953125 270.78515625 331.044921875 278.1484375 331.044921875 278.1484375 c 1
 330.983398438 293.259765625 l 1
EndSplineSet
Validated: 33
EndChar

StartChar: x
Encoding: 120 120 94
Width: 330
VWidth: 0
Flags: W
HStem: 0.158203 14.2109<120.165 130.071> 276.203 14.2109<17.2393 27.8529 199.351 210.776>
VStem: 18.3594 291.061
LayerCount: 2
Fore
SplineSet
280.029296875 40.974609375 m 1
 280.029296875 40.974609375 296.296875 14.9599609375 309.419921875 16.0048828125 c 1
 309.419921875 0.158203125 l 1
 190.0078125 0.158203125 l 1
 190.069335938 14.939453125 l 1
 190.069335938 14.939453125 211.044921875 25.939453125 190.874023438 52.2978515625 c 2
 164.5703125 95.3974609375 l 1
 158.41015625 95.3974609375 l 1
 120.975585938 38.87109375 l 1
 120.975585938 38.87109375 107.9765625 23.759765625 130.1953125 14.369140625 c 1
 130.071289062 0.158203125 l 1
 18.359375 0.158203125 l 1
 18.359375 15.55859375 l 1
 18.359375 15.55859375 25.7705078125 17.21484375 42.97265625 40.046875 c 2
 110.965820312 144.526367188 l 1
 40.53125 249.659179688 l 1
 40.53125 249.659179688 27.8974609375 276.3203125 17.2392578125 276.327148438 c 1
 17.2392578125 290.4140625 l 1
 130.491210938 290.4140625 l 1
 130.428710938 276.512695312 l 1
 130.428710938 276.512695312 109.453125 264.6328125 129.625 238.2734375 c 2
 162.982421875 183.967773438 l 1
 157.626953125 183.844726562 l 1
 154.780273438 181.740234375 l 1
 144.694335938 181.740234375 l 1
 144.323242188 179.389648438 l 1
 138.198242188 176.728515625 l 1
 148.778320312 175.676757812 l 1
 150.8203125 177.780273438 l 1
 158.678710938 177.223632812 l 1
 162.08203125 179.575195312 l 1
 160.720703125 174.563476562 l 1
 171.548828125 188.134765625 l 1
 173.65234375 188.134765625 l 1
 208.446289062 251.700195312 l 1
 208.446289062 251.700195312 224.13671875 268.400390625 199.227539062 276.203125 c 1
 199.350585938 290.4140625 l 1
 312.760742188 290.4140625 l 5
 312.760742188 275.893554688 l 5
 312.760742188 275.893554688 300.94921875 273.356445312 283.748046875 250.525390625 c 2
 218.39453125 143.467773438 l 1
 280.029296875 40.974609375 l 1
EndSplineSet
Validated: 33
EndChar

StartChar: y
Encoding: 121 121 95
Width: 365
VWidth: 0
Flags: W
HStem: 270.885 20.0615G<19.7842 142.462 226.55 226.674>
VStem: 11.3867 5.80957<-102.572 -88.1699>
LayerCount: 2
Fore
SplineSet
226.673828125 290.884765625 m 5
 226.673828125 290.823242188 l 5
 345.013671875 290.823242188 l 5
 345.013671875 274.59765625 l 5
 345.013671875 274.59765625 328.369140625 269.833007812 310.672851562 226.892578125 c 6
 292.110351562 184.198242188 l 5
 294.15234375 191.190429688 l 5
 291.924804688 190.819335938 l 5
 293.657226562 192.61328125 l 5
 295.265625 198.244140625 l 5
 294.647460938 196.697265625 l 5
 294.08984375 195.211914062 l 5
 294.08984375 195.211914062 292.481445312 194.840820312 291.305664062 194.840820312 c 4
 290.129882812 194.840820312 294.08984375 196.51171875 294.08984375 196.51171875 c 5
 292.047851562 196.51171875 l 5
 292.047851562 207.649414062 l 5
 290.25390625 208.82421875 l 5
 293.842773438 196.44921875 288.459960938 190.014648438 288.459960938 190.014648438 c 5
 290.068359375 188.03515625 l 5
 290.068359375 186.0546875 l 5
 291.986328125 184.260742188 l 5
 199.119140625 -84.48046875 l 6
 133.377929688 -274.72265625 14.408203125 -88.169921875 11.38671875 -102.572265625 c 5
 17.1962890625 -51.2509765625 l 5
 57.5693359375 -33.158203125 l 5
 123.438476562 -158.400390625 167.438476562 8.7998046875 139.29296875 52.3974609375 c 5
 51.650390625 225.283203125 l 5
 51.650390625 225.283203125 30.736328125 268.224609375 19.7841796875 275.7734375 c 5
 19.7841796875 290.946289062 l 5
 142.461914062 290.946289062 l 5
 142.400390625 275.834960938 l 5
 142.400390625 275.834960938 114.432617188 268.47265625 141.595703125 203.8125 c 6
 186.104492188 113.276367188 l 5
 190.751953125 113.276367188 l 5
 236.016601562 228.99609375 l 5
 236.016601562 228.99609375 251.918945312 266.801757812 226.549804688 275.154296875 c 5
 226.673828125 290.884765625 l 5
EndSplineSet
Validated: 37
EndChar

StartChar: z
Encoding: 122 122 96
Width: 302
VWidth: 0
Flags: W
HStem: 0.21582 66.0723<118.078 151.504 161.632 216.913> 227.901 63.6943<75.9277 200.152>
VStem: 258.891 25.1182<69.8301 80.6562>
LayerCount: 2
Fore
SplineSet
284.008789062 291.595703125 m 1
 283.947265625 291.595703125 l 1
 283.947265625 219.604492188 l 1
 118.078125 67.0849609375 l 1
 151.50390625 67.0849609375 l 1
 153.6171875 61.9326171875 l 1
 155.54296875 61.3798828125 l 1
 155.54296875 55.6767578125 l 1
 156.970703125 54.326171875 l 1
 158.586914062 54.0810546875 l 1
 157.716796875 51.93359375 l 1
 160.388671875 52.1796875 l 1
 160.388671875 55.982421875 l 1
 161.631835938 58.98828125 l 1
 159.145507812 62.2392578125 l 1
 157.904296875 66.2880859375 l 1
 216.913085938 66.2880859375 l 1
 216.913085938 66.2880859375 258.25 65.1201171875 258.890625 80.65625 c 1
 284.008789062 85.056640625 l 1
 284.008789062 0.2158203125 l 1
 24.73828125 0.2158203125 l 1
 24.73828125 0.2158203125 24.73828125 0.2158203125 18.7109375 0.2158203125 c 1
 18.7109375 55.462890625 l 1
 18.7109375 73.435546875 l 1
 21.3212890625 75.58203125 l 1
 200.15234375 228.514648438 l 1
 75.927734375 227.901367188 l 1
 75.927734375 227.901367188 46.4384765625 227.227539062 42.337890625 216.186523438 c 1
 18.7109375 212.626953125 l 1
 18.7109375 284.909179688 l 1
 18.7109375 291.595703125 l 1
 276.491210938 291.595703125 l 1
 284.008789062 291.595703125 l 1
EndSplineSet
Validated: 37
EndChar

StartChar: at
Encoding: 64 64 97
Width: 586
VWidth: 0
Flags: W
HStem: 0.0986328 63.6777<411.731 471.92>
VStem: 337.629 85.752<90.6699 144.281>
LayerCount: 2
Fore
SplineSet
445.256835938 0.0986328125 m 2
 411.731445312 63.7763671875 l 1
 465.188476562 63.7763671875 524.076171875 99.8271484375 474.275390625 232.313476562 c 0
 435.87890625 334.450195312 337.228515625 356.30859375 260.435546875 335.3359375 c 0
 183.643554688 314.364257812 117.622070312 263.169921875 100.704101562 165.975585938 c 0
 84.16796875 70.80859375 133.905273438 -68.013671875 304.977539062 -58.3828125 c 0
 328.420898438 -57.0517578125 324.174804688 -49.6396484375 326.7734375 -54.0107421875 c 0
 329.37109375 -58.3828125 315.431640625 -61.0439453125 307.57421875 -67.126953125 c 0
 299.717773438 -73.2724609375 209.810546875 -123.008789062 145.247070312 -99.4404296875 c 0
 80.68359375 -75.8701171875 27.77734375 10.42578125 22.2021484375 84.7470703125 c 0
 12.6337890625 213.05078125 51.4736328125 305.68359375 182.819335938 379.751953125 c 0
 250.868164062 418.147460938 354.778320312 414.663085938 408 398.0625 c 0
 455.7109375 383.236328125 516.396484375 342.313476562 547.646484375 243.590820312 c 0
 602.46875 70.400390625 517.98828125 0 448.931640625 0.03515625 c 0
 447.600585938 0.0361328125 446.5234375 0.0986328125 445.256835938 0.0986328125 c 2
443.833984375 26.34765625 m 1
 445.256835938 23.6865234375 l 1
 445.256835938 0.0986328125 l 1
 342.83984375 0.0986328125 l 1
 337.45703125 8.748046875 l 1
 337.704101562 26.044921875 l 1
 275.561523438 -0.3134765625 l 1
 275.561523438 -0.3134765625 199.626953125 -27.9306640625 160.3984375 28.4990234375 c 1
 160.3984375 28.4990234375 134.719726562 58.8798828125 167.018554688 134.676757812 c 0
 175.309570312 154.229492188 259.844726562 191.162109375 259.844726562 191.162109375 c 1
 338.508789062 204.774414062 l 1
 338.508789062 204.774414062 338.764648438 269.280273438 223.641601562 209.51171875 c 1
 205.759765625 193.857421875 l 1
 187.204101562 191.114257812 l 1
 186.83203125 259.740234375 l 1
 186.83203125 259.740234375 340.962890625 342.948242188 412.614257812 246.98046875 c 1
 412.614257812 246.98046875 423.380859375 227.303710938 423.380859375 173.224609375 c 0
 423.380859375 119.146484375 423.380859375 54.810546875 423.380859375 54.810546875 c 1
 423.380859375 54.810546875 424.950195312 33.6015625 438.849609375 29.3173828125 c 0
 442.604492188 28.16015625 443.833984375 26.34765625 443.833984375 26.34765625 c 1
337.690429688 90.669921875 m 1
 337.62890625 90.669921875 l 1
 338.508789062 144.28125 l 1
 288.018554688 143.971679688 281.473632812 122.762695312 281.473632812 122.762695312 c 1
 244.719726562 145.161132812 237.212890625 114.038085938 237.212890625 114.038085938 c 1
 217.325195312 29.0400390625 289.524414062 70.6298828125 289.524414062 70.6298828125 c 1
 337.690429688 90.669921875 l 1
EndSplineSet
Validated: 37
EndChar

StartChar: Edieresis
Encoding: 203 203 98
Width: 351
VWidth: 0
Flags: W
HStem: 0.264648 75.6318<153.614 247.923 247.962 297.352> 216.628 66.165<179.777 199.66> 216.73 52.209<136.651 179.772> 415.054 70.9912<190.297 223.688>
VStem: 45.0967 91.4922<94.059 216.73 268.939 329.735 348.298 410.502> 87.3193 72.4209<541.601 579.519> 189.399 72.4209<541.601 579.519> 306.738 22.0547<371.123 389.894>
LayerCount: 2
Fore
SplineSet
261.8203125 579.518554688 m 5x93
 261.8203125 541.600585938 l 5
 225.609375 520.532226562 l 5
 189.399414062 541.600585938 l 5
 189.399414062 579.518554688 l 5
 226.3125 601.29296875 l 5
 261.8203125 579.518554688 l 5x93
159.740234375 579.518554688 m 1x97
 159.740234375 541.600585938 l 1
 123.529296875 520.532226562 l 1
 87.3193359375 541.600585938 l 1
 87.3193359375 579.518554688 l 1
 124.233398438 601.29296875 l 1
 159.740234375 579.518554688 l 1x97
328.79296875 371.123046875 m 1
 306.73828125 370.751953125 l 1
 293.9921875 415.053710938 223.688476562 415.053710938 223.688476562 415.053710938 c 1
 190.296875 415.053710938 l 1
 190.296875 415.053710938 143.333007812 418.209960938 137.393554688 389.5 c 1
 137.393554688 348.297851562 l 1
 131.330078125 344.337890625 l 1
 130.7109375 340.6875 l 1
 123.966796875 340.6875 l 1
 122.357421875 338.026367188 l 1
 122.048828125 335.056640625 l 1
 119.51171875 336.727539062 l 1
 119.821289062 331.77734375 l 1
 124.276367188 331.77734375 l 1
 127.431640625 329.735351562 l 1
 128.978515625 330.848632812 l 1
 131.701171875 334.06640625 l 1
 136.52734375 336.35546875 l 1
 136.588867188 268.939453125 l 1xbb
 172.040039062 268.939453125 179.77734375 282.79296875 179.77734375 282.79296875 c 1
 278.51953125 277.200195312 289.61328125 287.185546875 289.61328125 287.185546875 c 1
 282.919921875 265.759765625 l 1
 275.443359375 239.28125 l 2
 264.984375 217.013671875 199.66015625 216.627929688 199.66015625 216.627929688 c 1xdb
 136.651367188 216.73046875 l 1
 136.836914062 142.907226562 l 2
 138.383789062 125.272460938 147.6328125 75.896484375 203.104492188 75.896484375 c 0
 292.599609375 75.896484375 301.602539062 103.740234375 301.602539062 103.740234375 c 1
 328.79296875 103.740234375 l 1
 328.79296875 0.326171875 l 1
 301.321289062 0.388671875 247.922851562 0.2646484375 247.922851562 0.2646484375 c 1
 132.33984375 0.4501953125 l 1
 132.216796875 0.326171875 l 1
 22.326171875 0.326171875 l 1
 22.326171875 52.6455078125 l 1
 22.326171875 52.6455078125 43.1162109375 52.2119140625 44.97265625 111.426757812 c 2
 45.0966796875 366.234375 l 1
 45.0966796875 388.6953125 l 2xbb
 44.2919921875 399.399414062 42.25 412.083984375 37.30078125 422.169921875 c 0
 33.958984375 428.109375 29.1943359375 433.678710938 22.326171875 437.514648438 c 1
 22.326171875 437.885742188 l 1
 22.326171875 485.673828125 l 1
 22.326171875 486.044921875 l 1
 55.86328125 486.044921875 l 1
 159.626953125 486.044921875 l 1
 328.79296875 486.044921875 l 1
 328.79296875 371.123046875 l 1
EndSplineSet
Validated: 33
EndChar

StartChar: AE
Encoding: 198 198 99
Width: 701
VWidth: 0
Flags: W
HStem: 0.264648 75.6318<497.652 591.961 592 641.39> 216.628 66.165<523.815 543.698> 216.73 52.209<480.688 523.81> 415.934 70.1113<534.334 567.727>
VStem: 389.057 91.6318<205.277 216.73 268.939 330.615 349.178 411.525> 650.776 22.0547<372.003 390.774>
LayerCount: 2
Fore
SplineSet
331.028320312 186.041015625 m 1x9c
 336.4921875 189.578125 l 2
 333.516601562 190.930664062 332.389648438 192.220703125 332.169921875 193.319335938 c 2
 327.509765625 186.041015625 l 1
 331.028320312 186.041015625 l 1x9c
672.831054688 372.002929688 m 1
 650.776367188 371.631835938 l 1
 638.030273438 415.93359375 567.7265625 415.93359375 567.7265625 415.93359375 c 1
 534.333984375 415.93359375 l 1
 534.333984375 415.93359375 487.37109375 419.08984375 481.431640625 390.379882812 c 1
 481.431640625 349.177734375 l 1
 475.3671875 345.217773438 l 1
 474.749023438 341.567382812 l 1
 468.004882812 341.567382812 l 1
 466.395507812 338.90625 l 1
 466.0859375 335.936523438 l 1
 463.549804688 337.607421875 l 1
 463.858398438 332.657226562 l 1
 468.313476562 332.657226562 l 1
 471.469726562 330.615234375 l 1
 473.016601562 331.729492188 l 1
 475.739257812 334.946289062 l 1
 480.565429688 337.236328125 l 1
 480.626953125 268.939453125 l 1xbc
 516.078125 268.939453125 523.815429688 282.79296875 523.815429688 282.79296875 c 1
 622.557617188 277.200195312 633.650390625 287.185546875 633.650390625 287.185546875 c 1
 626.958007812 265.759765625 l 1
 619.481445312 239.28125 l 1
 609.022460938 217.013671875 543.698242188 216.627929688 543.698242188 216.627929688 c 1xdc
 480.688476562 216.73046875 l 1xbc
 480.874023438 142.907226562 l 2
 482.420898438 125.272460938 491.670898438 75.896484375 547.142578125 75.896484375 c 0
 636.637695312 75.896484375 645.640625 103.740234375 645.640625 103.740234375 c 1
 672.831054688 103.740234375 l 1
 672.831054688 0.326171875 l 1
 645.358398438 0.388671875 591.9609375 0.2646484375 591.9609375 0.2646484375 c 1
 476.377929688 0.4501953125 l 1
 476.254882812 0.326171875 l 1
 366.364257812 0.326171875 l 1
 366.364257812 0.56640625 l 1
 362.703125 0.56640625 l 1
 362.703125 28.9013671875 l 1
 362.703125 28.9013671875 374.608398438 44.390625 347.6640625 76.84375 c 2
 320.981445312 108.981445312 l 1
 294.719726562 101.6015625 266.641601562 103.064453125 266.641601562 103.064453125 c 1
 175.443359375 99.771484375 l 1
 145.564453125 49.4560546875 l 1
 140.53515625 30.609375 147.614257812 28.9013671875 147.614257812 28.9013671875 c 1
 147.614257812 0.56640625 l 1
 131.471679688 0.56640625 l 1
 28.5283203125 0.56640625 l 1
 28.5283203125 29.5732421875 l 1
 32.626953125 33.048828125 38.525390625 42.748046875 44.298828125 53.603515625 c 2
 250.52734375 487.565429688 l 1
 389.056640625 205.27734375 l 1
 389.134765625 366.234375 l 1
 389.134765625 388.6953125 l 2
 388.330078125 399.399414062 386.288085938 412.083984375 381.337890625 422.169921875 c 0
 377.997070312 428.109375 373.232421875 433.678710938 366.364257812 437.514648438 c 1
 366.364257812 437.885742188 l 1
 366.364257812 485.673828125 l 1
 366.364257812 486.044921875 l 1
 399.900390625 486.044921875 l 1
 503.665039062 486.044921875 l 1
 672.831054688 486.044921875 l 1
 672.831054688 372.002929688 l 1
312.6953125 186.041015625 m 1
 307.125976562 194.458007812 l 1
 307.125976562 199.336914062 l 1
 297.068359375 200.435546875 l 1
 252.845703125 311.83203125 l 1
 239.001953125 281.211914062 l 2
 238.1328125 282.310546875 236.704101562 284.018554688 235.08984375 285.237304688 c 0
 232.544921875 287.189453125 229.689453125 298.534179688 226.522460938 286.154296875 c 1
 228.6953125 283.774414062 l 1
 228.01171875 281.211914062 l 1
 231.55078125 278.7109375 l 1
 234.034179688 270.35546875 l 1
 193.37890625 161.947265625 l 1
 237.274414062 167.986328125 246.416015625 191.712890625 246.416015625 191.712890625 c 1
 284.288085938 189.760742188 267.409179688 189.08984375 288.206054688 189.211914062 c 1
 302.594726562 177.623046875 l 1
 302.594726562 186.041015625 l 1
 312.6953125 186.041015625 l 1
EndSplineSet
Validated: 33
EndChar

StartChar: Ecircumflex
Encoding: 202 202 100
Width: 351
VWidth: 0
Flags: W
HStem: 0.264648 75.6318<153.614 247.923 247.962 297.352> 216.628 66.165<179.777 199.66> 216.73 52.209<136.651 179.772> 415.054 70.9912<190.297 223.688>
VStem: 45.0967 91.4922<94.059 216.73 268.939 329.735 348.298 410.502> 306.738 22.0547<371.123 389.894>
LayerCount: 2
Fore
SplineSet
202.94140625 542.150390625 m 5x9c
 202.94140625 542.150390625 198.428710938 550.704101562 179.571289062 574.032226562 c 5
 159.310546875 555.493164062 154.327148438 545.09765625 154.327148438 545.09765625 c 5
 154.327148438 545.09765625 98.9931640625 534.684570312 98.375 535.021484375 c 4
 94.41796875 537.182617188 168.373046875 636.565429688 178.869140625 650.626953125 c 4
 179.234375 651.357421875 179.599609375 652.114257812 179.9921875 652.928710938 c 6
 179.9921875 652.928710938 258.887695312 533.196289062 254.48046875 531.119140625 c 4
 253.834960938 530.810546875 202.94140625 542.150390625 202.94140625 542.150390625 c 5x9c
328.79296875 371.123046875 m 1
 306.73828125 370.751953125 l 1
 293.9921875 415.053710938 223.688476562 415.053710938 223.688476562 415.053710938 c 1
 190.296875 415.053710938 l 1
 190.296875 415.053710938 143.333007812 418.209960938 137.393554688 389.5 c 1
 137.393554688 348.297851562 l 1
 131.330078125 344.337890625 l 1
 130.7109375 340.6875 l 1
 123.966796875 340.6875 l 1
 122.357421875 338.026367188 l 1
 122.048828125 335.056640625 l 1
 119.51171875 336.727539062 l 1
 119.821289062 331.77734375 l 1
 124.276367188 331.77734375 l 1
 127.431640625 329.735351562 l 1
 128.978515625 330.848632812 l 1
 131.701171875 334.06640625 l 1
 136.52734375 336.35546875 l 1
 136.588867188 268.939453125 l 1xbc
 172.040039062 268.939453125 179.77734375 282.79296875 179.77734375 282.79296875 c 1
 278.51953125 277.200195312 289.61328125 287.185546875 289.61328125 287.185546875 c 1
 282.919921875 265.759765625 l 1
 275.443359375 239.28125 l 2
 264.984375 217.013671875 199.66015625 216.627929688 199.66015625 216.627929688 c 1xdc
 136.651367188 216.73046875 l 1xbc
 136.836914062 142.907226562 l 2
 138.383789062 125.272460938 147.6328125 75.896484375 203.104492188 75.896484375 c 0
 292.599609375 75.896484375 301.602539062 103.740234375 301.602539062 103.740234375 c 1
 328.79296875 103.740234375 l 1
 328.79296875 0.326171875 l 1
 301.321289062 0.388671875 247.922851562 0.2646484375 247.922851562 0.2646484375 c 1
 132.33984375 0.4501953125 l 1
 132.216796875 0.326171875 l 1
 22.326171875 0.326171875 l 1
 22.326171875 52.6455078125 l 1
 22.326171875 52.6455078125 43.1162109375 52.2119140625 44.97265625 111.426757812 c 2
 45.0966796875 366.234375 l 1
 45.0966796875 388.6953125 l 2
 44.2919921875 399.399414062 42.25 412.083984375 37.30078125 422.169921875 c 0
 33.958984375 428.109375 29.1943359375 433.678710938 22.326171875 437.514648438 c 1
 22.326171875 437.885742188 l 1
 22.326171875 485.673828125 l 1
 22.326171875 486.044921875 l 1
 55.86328125 486.044921875 l 1
 159.626953125 486.044921875 l 1
 328.79296875 486.044921875 l 1
 328.79296875 371.123046875 l 1
EndSplineSet
Validated: 33
EndChar

StartChar: Eacute
Encoding: 201 201 101
Width: 351
VWidth: 0
Flags: W
HStem: 0.264648 75.6318<153.614 247.923 247.962 297.352> 216.628 66.165<179.777 199.66> 216.73 52.209<136.651 179.772> 415.054 70.9912<190.297 223.688>
VStem: 45.0967 91.4922<94.059 216.73 268.939 329.735 348.298 410.502> 306.738 22.0547<371.123 389.894>
LayerCount: 2
Fore
SplineSet
227.21875 630.758789062 m 5x9c
 227.21875 630.758789062 241.483398438 597.473632812 224.9765625 570.724609375 c 4
 214.23828125 553.32421875 169.942382812 535.323242188 169.942382812 535.323242188 c 6
 154.788085938 525.575195312 123.767578125 521.73046875 123.767578125 521.73046875 c 5
 195.814453125 563.40625 166.865234375 596.383789062 166.865234375 596.383789062 c 5
 186.01171875 634.58984375 l 5
 227.21875 630.758789062 l 5x9c
328.79296875 371.123046875 m 1
 306.73828125 370.751953125 l 1
 293.9921875 415.053710938 223.688476562 415.053710938 223.688476562 415.053710938 c 1
 190.296875 415.053710938 l 1
 190.296875 415.053710938 143.333007812 418.209960938 137.393554688 389.5 c 1
 137.393554688 348.297851562 l 1
 131.330078125 344.337890625 l 1
 130.7109375 340.6875 l 1
 123.966796875 340.6875 l 1
 122.357421875 338.026367188 l 1
 122.048828125 335.056640625 l 1
 119.51171875 336.727539062 l 1
 119.821289062 331.77734375 l 1
 124.276367188 331.77734375 l 1
 127.431640625 329.735351562 l 1
 128.978515625 330.848632812 l 1
 131.701171875 334.06640625 l 1
 136.52734375 336.35546875 l 1
 136.588867188 268.939453125 l 1xbc
 172.040039062 268.939453125 179.77734375 282.79296875 179.77734375 282.79296875 c 1
 278.51953125 277.200195312 289.61328125 287.185546875 289.61328125 287.185546875 c 1
 282.919921875 265.759765625 l 1
 275.443359375 239.28125 l 2
 264.984375 217.013671875 199.66015625 216.627929688 199.66015625 216.627929688 c 1xdc
 136.651367188 216.73046875 l 1xbc
 136.836914062 142.907226562 l 2
 138.383789062 125.272460938 147.6328125 75.896484375 203.104492188 75.896484375 c 0
 292.599609375 75.896484375 301.602539062 103.740234375 301.602539062 103.740234375 c 1
 328.79296875 103.740234375 l 1
 328.79296875 0.326171875 l 1
 301.321289062 0.388671875 247.922851562 0.2646484375 247.922851562 0.2646484375 c 1
 132.33984375 0.4501953125 l 1
 132.216796875 0.326171875 l 1
 22.326171875 0.326171875 l 1
 22.326171875 52.6455078125 l 1
 22.326171875 52.6455078125 43.1162109375 52.2119140625 44.97265625 111.426757812 c 2
 45.0966796875 366.234375 l 1
 45.0966796875 388.6953125 l 2
 44.2919921875 399.399414062 42.25 412.083984375 37.30078125 422.169921875 c 0
 33.958984375 428.109375 29.1943359375 433.678710938 22.326171875 437.514648438 c 1
 22.326171875 437.885742188 l 1
 22.326171875 485.673828125 l 1
 22.326171875 486.044921875 l 1
 55.86328125 486.044921875 l 1
 159.626953125 486.044921875 l 1
 328.79296875 486.044921875 l 1
 328.79296875 371.123046875 l 1
EndSplineSet
Validated: 33
EndChar

StartChar: Egrave
Encoding: 200 200 102
Width: 351
VWidth: 0
Flags: W
HStem: 0.264648 75.6318<153.614 247.923 247.962 297.352> 216.628 66.165<179.777 199.66> 216.73 52.209<136.651 179.772> 415.054 70.9912<190.297 223.688>
VStem: 45.0967 91.4922<94.059 216.73 268.939 329.735 348.298 410.502> 306.738 22.0547<371.123 389.894>
LayerCount: 2
Fore
SplineSet
132.701171875 642.19921875 m 5x9c
 132.701171875 642.19921875 118.436523438 608.9140625 134.943359375 582.165039062 c 4
 145.681640625 564.763671875 189.977539062 546.763671875 189.977539062 546.763671875 c 6
 205.131835938 537.014648438 236.15234375 533.169921875 236.15234375 533.169921875 c 5
 164.10546875 574.846679688 193.0546875 607.82421875 193.0546875 607.82421875 c 5
 173.908203125 646.030273438 l 5
 132.701171875 642.19921875 l 5x9c
328.79296875 371.123046875 m 1
 306.73828125 370.751953125 l 1
 293.9921875 415.053710938 223.688476562 415.053710938 223.688476562 415.053710938 c 1
 190.296875 415.053710938 l 1
 190.296875 415.053710938 143.333007812 418.209960938 137.393554688 389.5 c 1
 137.393554688 348.297851562 l 1
 131.330078125 344.337890625 l 1
 130.7109375 340.6875 l 1
 123.966796875 340.6875 l 1
 122.357421875 338.026367188 l 1
 122.048828125 335.056640625 l 1
 119.51171875 336.727539062 l 1
 119.821289062 331.77734375 l 1
 124.276367188 331.77734375 l 1
 127.431640625 329.735351562 l 1
 128.978515625 330.848632812 l 1
 131.701171875 334.06640625 l 1
 136.52734375 336.35546875 l 1
 136.588867188 268.939453125 l 1xbc
 172.040039062 268.939453125 179.77734375 282.79296875 179.77734375 282.79296875 c 1
 278.51953125 277.200195312 289.61328125 287.185546875 289.61328125 287.185546875 c 1
 282.919921875 265.759765625 l 1
 275.443359375 239.28125 l 2
 264.984375 217.013671875 199.66015625 216.627929688 199.66015625 216.627929688 c 1xdc
 136.651367188 216.73046875 l 1xbc
 136.836914062 142.907226562 l 2
 138.383789062 125.272460938 147.6328125 75.896484375 203.104492188 75.896484375 c 0
 292.599609375 75.896484375 301.602539062 103.740234375 301.602539062 103.740234375 c 1
 328.79296875 103.740234375 l 1
 328.79296875 0.326171875 l 1
 301.321289062 0.388671875 247.922851562 0.2646484375 247.922851562 0.2646484375 c 1
 132.33984375 0.4501953125 l 1
 132.216796875 0.326171875 l 1
 22.326171875 0.326171875 l 1
 22.326171875 52.6455078125 l 1
 22.326171875 52.6455078125 43.1162109375 52.2119140625 44.97265625 111.426757812 c 2
 45.0966796875 366.234375 l 1
 45.0966796875 388.6953125 l 2
 44.2919921875 399.399414062 42.25 412.083984375 37.30078125 422.169921875 c 0
 33.958984375 428.109375 29.1943359375 433.678710938 22.326171875 437.514648438 c 1
 22.326171875 437.885742188 l 1
 22.326171875 485.673828125 l 1
 22.326171875 486.044921875 l 1
 55.86328125 486.044921875 l 1
 159.626953125 486.044921875 l 1
 328.79296875 486.044921875 l 1
 328.79296875 371.123046875 l 1
EndSplineSet
Validated: 41
EndChar

StartChar: Adieresis
Encoding: 196 196 103
Width: 507
VWidth: 0
Flags: W
HStem: 0.566406 21G<27.6904 146.776 361.865 480.069> 467.565 20G<240.185 259.504>
VStem: 165.64 72.4209<541.601 579.519> 267.72 72.4209<541.601 579.519>
LayerCount: 2
Fore
SplineSet
456.403320312 70.150390625 m 2
 464.041015625 54.5966796875 474.232421875 34.5126953125 480.069335938 29.5732421875 c 1
 480.069335938 0.56640625 l 1
 381.608398438 0.56640625 l 1
 361.865234375 0.56640625 l 1
 361.865234375 28.9013671875 l 1
 361.865234375 28.9013671875 373.770507812 44.390625 346.826171875 76.84375 c 2
 320.143554688 108.981445312 l 1
 293.881835938 101.6015625 265.803710938 103.064453125 265.803710938 103.064453125 c 1
 174.60546875 99.771484375 l 1
 144.7265625 49.4560546875 l 1
 139.697265625 30.609375 146.776367188 28.9013671875 146.776367188 28.9013671875 c 1
 146.776367188 0.56640625 l 1
 130.633789062 0.56640625 l 1
 27.6904296875 0.56640625 l 1
 27.6904296875 29.5732421875 l 1
 31.7890625 33.048828125 37.6875 42.748046875 43.4609375 53.603515625 c 2
 249.689453125 487.565429688 l 1
 442.103515625 95.47265625 l 1
 456.403320312 70.150390625 l 2
330.190429688 186.041015625 m 1
 335.654296875 189.578125 l 1
 327.334960938 193.360351562 333.465820312 196.653320312 333.465820312 196.653320312 c 1
 319.387695312 174.662109375 l 1
 306.288085938 194.458007812 l 1
 306.288085938 199.336914062 l 1
 296.23046875 200.435546875 l 1
 252.0078125 311.83203125 l 1
 238.1640625 281.211914062 l 2
 237.294921875 282.310546875 235.866210938 284.018554688 234.251953125 285.237304688 c 0
 231.70703125 287.189453125 228.8515625 298.534179688 225.684570312 286.154296875 c 1
 227.857421875 283.774414062 l 1
 227.173828125 281.211914062 l 1
 230.712890625 278.7109375 l 1
 233.196289062 270.35546875 l 1
 192.541015625 161.947265625 l 1
 236.436523438 167.986328125 245.578125 191.712890625 245.578125 191.712890625 c 1
 283.450195312 189.760742188 266.571289062 189.08984375 287.368164062 189.211914062 c 1
 301.756835938 177.623046875 l 1
 301.756835938 186.041015625 l 1
 330.190429688 186.041015625 l 1
340.140625 579.518554688 m 5
 340.140625 541.600585938 l 5
 303.928710938 520.532226562 l 5
 267.719726562 541.600585938 l 5
 267.719726562 579.518554688 l 5
 304.6328125 601.29296875 l 5
 340.140625 579.518554688 l 5
238.060546875 579.518554688 m 5
 238.060546875 541.600585938 l 5
 201.849609375 520.532226562 l 5
 165.639648438 541.600585938 l 5
 165.639648438 579.518554688 l 5
 202.552734375 601.29296875 l 5
 238.060546875 579.518554688 l 5
EndSplineSet
Validated: 37
EndChar

StartChar: Acircumflex
Encoding: 194 194 104
Width: 507
VWidth: 0
Flags: W
HStem: 0.566406 21G<27.6904 146.776 361.865 480.069> 467.565 20G<240.185 259.504>
LayerCount: 2
Fore
SplineSet
456.403320312 70.150390625 m 6
 464.041015625 54.5966796875 474.232421875 34.5126953125 480.069335938 29.5732421875 c 5
 480.069335938 0.56640625 l 5
 381.608398438 0.56640625 l 5
 361.865234375 0.56640625 l 5
 361.865234375 28.9013671875 l 5
 361.865234375 28.9013671875 373.770507812 44.390625 346.826171875 76.84375 c 6
 320.143554688 108.981445312 l 5
 293.881835938 101.6015625 265.803710938 103.064453125 265.803710938 103.064453125 c 5
 174.60546875 99.771484375 l 5
 144.7265625 49.4560546875 l 5
 139.697265625 30.609375 146.776367188 28.9013671875 146.776367188 28.9013671875 c 5
 146.776367188 0.56640625 l 5
 130.633789062 0.56640625 l 5
 27.6904296875 0.56640625 l 5
 27.6904296875 29.5732421875 l 5
 31.7890625 33.048828125 37.6875 42.748046875 43.4609375 53.603515625 c 6
 249.689453125 487.565429688 l 5
 442.103515625 95.47265625 l 5
 456.403320312 70.150390625 l 6
330.190429688 186.041015625 m 5
 335.654296875 189.578125 l 5
 327.334960938 193.360351562 333.465820312 196.653320312 333.465820312 196.653320312 c 5
 319.387695312 174.662109375 l 5
 306.288085938 194.458007812 l 5
 306.288085938 199.336914062 l 5
 296.23046875 200.435546875 l 5
 252.0078125 311.83203125 l 5
 238.1640625 281.211914062 l 6
 237.294921875 282.310546875 235.866210938 284.018554688 234.251953125 285.237304688 c 4
 231.70703125 287.189453125 228.8515625 298.534179688 225.684570312 286.154296875 c 5
 227.857421875 283.774414062 l 5
 227.173828125 281.211914062 l 5
 230.712890625 278.7109375 l 5
 233.196289062 270.35546875 l 5
 192.541015625 161.947265625 l 5
 236.436523438 167.986328125 245.578125 191.712890625 245.578125 191.712890625 c 5
 283.450195312 189.760742188 266.571289062 189.08984375 287.368164062 189.211914062 c 5
 301.756835938 177.623046875 l 5
 301.756835938 186.041015625 l 5
 330.190429688 186.041015625 l 5
278.62109375 542.150390625 m 1
 278.62109375 542.150390625 274.108398438 550.704101562 255.251953125 574.032226562 c 1
 234.991210938 555.493164062 230.0078125 545.09765625 230.0078125 545.09765625 c 1
 230.0078125 545.09765625 174.672851562 534.684570312 174.055664062 535.021484375 c 0
 170.09765625 537.182617188 244.052734375 636.565429688 254.549804688 650.626953125 c 0
 254.915039062 651.357421875 255.280273438 652.114257812 255.672851562 652.928710938 c 2
 255.672851562 652.928710938 334.567382812 533.196289062 330.161132812 531.119140625 c 0
 329.515625 530.810546875 278.62109375 542.150390625 278.62109375 542.150390625 c 1
EndSplineSet
Validated: 37
EndChar

StartChar: Agrave
Encoding: 192 192 105
Width: 507
VWidth: 0
Flags: W
HStem: 0.566406 21G<27.6904 146.776 361.865 480.069> 467.565 20G<240.185 259.504>
LayerCount: 2
Fore
SplineSet
456.403320312 70.150390625 m 6
 464.041015625 54.5966796875 474.232421875 34.5126953125 480.069335938 29.5732421875 c 5
 480.069335938 0.56640625 l 5
 381.608398438 0.56640625 l 5
 361.865234375 0.56640625 l 5
 361.865234375 28.9013671875 l 5
 361.865234375 28.9013671875 373.770507812 44.390625 346.826171875 76.84375 c 6
 320.143554688 108.981445312 l 5
 293.881835938 101.6015625 265.803710938 103.064453125 265.803710938 103.064453125 c 5
 174.60546875 99.771484375 l 5
 144.7265625 49.4560546875 l 5
 139.697265625 30.609375 146.776367188 28.9013671875 146.776367188 28.9013671875 c 5
 146.776367188 0.56640625 l 5
 130.633789062 0.56640625 l 5
 27.6904296875 0.56640625 l 5
 27.6904296875 29.5732421875 l 5
 31.7890625 33.048828125 37.6875 42.748046875 43.4609375 53.603515625 c 6
 249.689453125 487.565429688 l 5
 442.103515625 95.47265625 l 5
 456.403320312 70.150390625 l 6
330.190429688 186.041015625 m 5
 335.654296875 189.578125 l 5
 327.334960938 193.360351562 333.465820312 196.653320312 333.465820312 196.653320312 c 5
 319.387695312 174.662109375 l 5
 306.288085938 194.458007812 l 5
 306.288085938 199.336914062 l 5
 296.23046875 200.435546875 l 5
 252.0078125 311.83203125 l 5
 238.1640625 281.211914062 l 6
 237.294921875 282.310546875 235.866210938 284.018554688 234.251953125 285.237304688 c 4
 231.70703125 287.189453125 228.8515625 298.534179688 225.684570312 286.154296875 c 5
 227.857421875 283.774414062 l 5
 227.173828125 281.211914062 l 5
 230.712890625 278.7109375 l 5
 233.196289062 270.35546875 l 5
 192.541015625 161.947265625 l 5
 236.436523438 167.986328125 245.578125 191.712890625 245.578125 191.712890625 c 5
 283.450195312 189.760742188 266.571289062 189.08984375 287.368164062 189.211914062 c 5
 301.756835938 177.623046875 l 5
 301.756835938 186.041015625 l 5
 330.190429688 186.041015625 l 5
216.30078125 642.19921875 m 1
 216.30078125 642.19921875 202.036132812 608.9140625 218.54296875 582.165039062 c 0
 229.282226562 564.763671875 273.578125 546.763671875 273.578125 546.763671875 c 2
 288.732421875 537.014648438 319.752929688 533.169921875 319.752929688 533.169921875 c 1
 247.705078125 574.846679688 276.654296875 607.82421875 276.654296875 607.82421875 c 1
 257.5078125 646.030273438 l 1
 216.30078125 642.19921875 l 1
EndSplineSet
Validated: 37
EndChar

StartChar: Aacute
Encoding: 193 193 106
Width: 507
VWidth: 0
Flags: W
HStem: 0.566406 21G<27.6904 146.776 361.865 480.069> 467.565 20G<240.185 259.504>
LayerCount: 2
Fore
SplineSet
456.403320312 70.150390625 m 6
 464.041015625 54.5966796875 474.232421875 34.5126953125 480.069335938 29.5732421875 c 5
 480.069335938 0.56640625 l 5
 381.608398438 0.56640625 l 5
 361.865234375 0.56640625 l 5
 361.865234375 28.9013671875 l 5
 361.865234375 28.9013671875 373.770507812 44.390625 346.826171875 76.84375 c 6
 320.143554688 108.981445312 l 5
 293.881835938 101.6015625 265.803710938 103.064453125 265.803710938 103.064453125 c 5
 174.60546875 99.771484375 l 5
 144.7265625 49.4560546875 l 5
 139.697265625 30.609375 146.776367188 28.9013671875 146.776367188 28.9013671875 c 5
 146.776367188 0.56640625 l 5
 130.633789062 0.56640625 l 5
 27.6904296875 0.56640625 l 5
 27.6904296875 29.5732421875 l 5
 31.7890625 33.048828125 37.6875 42.748046875 43.4609375 53.603515625 c 6
 249.689453125 487.565429688 l 5
 442.103515625 95.47265625 l 5
 456.403320312 70.150390625 l 6
330.190429688 186.041015625 m 5
 335.654296875 189.578125 l 5
 327.334960938 193.360351562 333.465820312 196.653320312 333.465820312 196.653320312 c 5
 319.387695312 174.662109375 l 5
 306.288085938 194.458007812 l 5
 306.288085938 199.336914062 l 5
 296.23046875 200.435546875 l 5
 252.0078125 311.83203125 l 5
 238.1640625 281.211914062 l 6
 237.294921875 282.310546875 235.866210938 284.018554688 234.251953125 285.237304688 c 4
 231.70703125 287.189453125 228.8515625 298.534179688 225.684570312 286.154296875 c 5
 227.857421875 283.774414062 l 5
 227.173828125 281.211914062 l 5
 230.712890625 278.7109375 l 5
 233.196289062 270.35546875 l 5
 192.541015625 161.947265625 l 5
 236.436523438 167.986328125 245.578125 191.712890625 245.578125 191.712890625 c 5
 283.450195312 189.760742188 266.571289062 189.08984375 287.368164062 189.211914062 c 5
 301.756835938 177.623046875 l 5
 301.756835938 186.041015625 l 5
 330.190429688 186.041015625 l 5
300.258789062 642.19921875 m 1
 300.258789062 642.19921875 314.5234375 608.9140625 298.016601562 582.165039062 c 0
 287.278320312 564.763671875 242.982421875 546.763671875 242.982421875 546.763671875 c 2
 227.828125 537.014648438 196.807617188 533.169921875 196.807617188 533.169921875 c 1
 268.854492188 574.846679688 239.905273438 607.82421875 239.905273438 607.82421875 c 1
 259.051757812 646.030273438 l 1
 300.258789062 642.19921875 l 1
EndSplineSet
Validated: 37
EndChar

